{"glyphs":{"0":{"ha":411,"x_min":68,"x_max":351,"o":"m 68 703 l 69 925 q 84 971 77 939 q 99 1018 92 1004 q 168 1046 115 1046 q 206 1032 182 1046 q 244 1005 231 1018 q 266 976 257 993 q 281 946 275 958 q 292 910 288 934 q 298 877 296 887 q 306 822 303 845 q 313 758 308 798 q 320 709 319 717 q 326 664 321 701 q 332 615 331 627 q 337 570 333 603 q 342 521 340 537 q 346 476 343 505 q 349 427 348 447 q 351 342 351 380 q 350 277 351 304 q 345 207 349 250 q 332 129 341 163 q 309 61 323 94 q 218 -9 279 -9 q 174 8 205 -9 q 72 525 108 49 l 78 530 l 77 629 q 68 703 68 641 m 106 642 l 119 519 q 231 22 119 22 q 290 96 270 22 q 313 227 309 168 q 318 382 318 320 q 307 558 318 444 q 275 726 296 673 l 275 786 q 259 865 260 824 q 253 929 258 905 q 238 969 248 952 q 147 1015 217 1007 q 107 968 115 989 q 100 901 100 948 l 106 642 z "},"1":{"ha":411,"x_min":54,"x_max":357,"o":"m 326 9 l 155 4 q 140 10 146 4 q 134 25 134 16 l 140 39 l 178 37 q 205 46 197 37 q 212 75 212 55 q 203 394 212 250 q 172 871 193 557 l 174 918 q 161 982 174 959 q 110 1006 148 1006 l 78 1003 q 54 1018 54 1003 q 176 1038 54 1038 q 192 1031 186 1038 q 199 1015 199 1024 l 201 1015 q 197 962 197 995 q 208 842 197 929 q 218 693 218 754 q 230 477 218 632 q 241 280 241 322 q 239 227 241 237 q 248 69 248 191 l 245 49 l 252 45 l 314 49 q 357 29 357 49 q 326 9 357 9 z "},"2":{"ha":387,"x_min":53,"x_max":321,"o":"m 290 1 l 87 -11 q 63 -3 74 -11 q 53 17 53 4 q 100 112 77 47 q 127 186 123 176 q 247 517 207 359 q 286 847 286 674 q 200 1047 286 1047 q 170 1018 181 1039 q 156 978 159 998 q 132 926 151 926 q 114 951 114 926 q 121 1003 114 977 q 146 1053 129 1030 q 187 1075 164 1075 q 281 1031 245 1075 q 319 926 317 987 l 317 924 l 321 822 q 290 545 321 709 q 215 285 258 382 q 180 211 212 277 q 104 28 106 58 l 115 26 q 282 41 163 35 l 302 20 l 290 1 z "},"3":{"ha":399,"x_min":52,"x_max":346,"o":"m 214 572 l 200 571 q 174 576 184 571 l 174 582 l 167 589 q 181 610 168 593 q 212 646 195 626 q 242 699 229 666 q 256 761 256 732 q 254 814 256 789 q 248 877 253 839 q 234 942 243 914 q 208 990 225 970 q 167 1011 190 1011 q 129 999 144 1011 q 108 971 113 986 q 75 932 93 932 q 60 938 67 932 q 52 951 52 943 q 100 1020 73 996 q 158 1044 127 1044 q 233 1011 208 1044 l 237 1010 q 293 747 293 929 q 268 669 293 713 q 245 637 262 665 q 222 603 229 610 q 298 519 277 581 q 322 418 313 475 q 337 335 331 362 q 346 260 346 296 q 345 207 346 224 q 342 161 345 189 q 334 113 339 133 q 320 70 330 92 q 298 33 311 47 q 229 -1 268 -1 q 161 12 191 -1 q 132 50 132 26 l 143 57 q 178 42 160 56 q 203 25 197 28 q 309 201 309 25 q 287 437 309 359 q 214 572 264 519 z "},"4":{"ha":357,"x_min":62,"x_max":309,"o":"m 309 385 q 270 368 309 364 q 243 362 255 369 q 231 328 231 355 q 234 207 231 300 q 243 103 238 114 q 241 77 241 98 q 248 46 241 56 l 243 29 l 248 20 l 248 0 l 225 -17 l 204 -8 l 204 41 l 203 45 q 208 94 208 67 l 199 236 l 201 298 q 187 359 201 353 l 106 351 q 79 358 87 351 q 68 367 71 364 l 68 371 q 75 415 68 378 l 62 443 l 75 511 l 89 783 l 89 1004 l 83 1039 q 104 1057 83 1057 q 125 1038 125 1057 l 119 926 q 123 879 119 902 l 121 875 q 123 836 123 850 l 107 486 l 117 446 l 107 408 q 120 382 107 382 q 158 386 134 382 q 191 395 182 390 q 185 578 191 445 q 175 749 180 711 q 170 800 170 786 q 196 822 170 822 l 208 807 l 216 611 q 220 486 216 570 q 231 395 224 401 l 282 400 q 309 385 309 400 z "},"5":{"ha":386,"x_min":60,"x_max":329,"o":"m 103 1047 q 131 682 103 1008 l 129 681 q 153 677 129 680 q 254 652 231 669 q 296 559 276 635 q 329 297 329 430 q 323 162 329 196 q 309 100 317 127 q 290 54 301 73 q 224 -14 264 8 l 216 -14 q 144 8 144 -14 q 171 24 144 24 l 207 12 q 246 38 228 12 q 274 100 264 64 q 294 221 294 178 q 291 321 294 265 q 279 457 288 376 q 248 592 270 538 q 193 646 226 646 l 161 646 l 155 642 l 151 643 l 121 631 q 90 652 95 631 q 87 675 88 660 q 86 696 87 690 q 93 777 93 735 q 77 916 93 818 q 60 1061 61 1015 l 74 1075 l 180 1076 q 222 1057 222 1076 l 207 1044 l 178 1044 l 174 1042 l 118 1048 l 109 1046 l 103 1047 m 103 907 q 102 905 102 907 l 103 907 z "},"6":{"ha":350,"x_min":68,"x_max":293,"o":"m 268 8 q 263 2 268 8 q 240 -12 258 -4 q 196 -20 222 -20 q 151 -4 170 -20 q 121 33 131 11 q 105 87 111 56 q 96 146 98 119 q 89 250 91 235 q 68 547 68 403 q 73 734 68 680 q 84 840 78 789 q 100 926 90 890 q 123 996 110 962 q 201 1064 151 1064 q 212 1060 206 1064 q 218 1049 218 1056 q 210 1036 218 1042 q 188 1024 201 1029 q 171 1015 175 1019 q 132 906 149 997 q 104 608 109 772 q 139 619 121 619 q 178 608 158 619 q 212 577 197 597 q 238 532 226 556 q 258 473 250 507 q 273 409 267 439 q 282 340 279 379 q 289 274 286 302 q 292 210 291 245 q 293 157 292 174 q 293 116 293 139 q 291 75 293 92 q 284 39 290 58 q 268 8 278 20 m 104 514 q 139 113 102 318 q 141 93 140 107 q 144 72 143 79 q 149 53 146 64 q 156 35 151 41 q 167 22 160 28 q 208 8 180 8 q 260 118 260 8 q 248 356 260 277 q 224 483 235 435 q 192 560 212 532 q 146 589 172 589 q 104 514 104 562 z "},"7":{"ha":305,"x_min":57,"x_max":248,"o":"m 69 1059 l 216 1063 q 235 1055 226 1063 q 248 1038 244 1047 q 238 985 239 1015 q 234 902 238 955 q 175 464 229 848 q 107 58 121 79 q 109 41 109 54 q 100 5 109 28 q 75 -18 91 -18 l 58 -3 q 70 53 58 20 q 95 144 81 85 q 125 319 109 203 q 159 597 142 434 q 182 802 177 761 q 194 886 187 844 q 208 1028 208 976 q 160 1036 208 1036 l 78 1032 l 57 1046 l 69 1059 z "},"8":{"ha":355,"x_min":60,"x_max":301,"o":"m 301 71 l 297 37 q 298 31 297 33 q 252 -33 276 -13 q 193 -53 228 -53 q 139 -33 159 -53 q 110 16 119 -14 q 90 126 90 75 q 135 513 90 338 q 142 536 137 521 q 155 582 155 569 q 149 618 155 595 q 133 667 142 640 q 60 978 60 888 q 102 1082 60 1055 q 140 1092 118 1092 l 165 1092 q 179 1086 170 1090 q 193 1079 189 1082 q 214 1057 208 1071 q 240 914 240 998 q 212 684 240 831 q 192 588 192 592 q 195 574 192 584 q 203 554 199 565 q 210 539 208 543 q 301 71 301 263 m 139 36 q 153 -6 140 14 q 184 -26 165 -26 q 248 4 229 -26 q 268 81 268 35 q 215 406 268 212 q 205 449 211 420 q 178 534 190 513 q 136 354 150 496 q 122 114 122 213 q 140 40 122 85 l 139 36 m 158 1061 l 143 1060 q 126 1064 132 1060 q 94 985 94 1038 q 121 801 94 932 q 167 657 147 669 q 208 905 208 790 q 193 1019 208 976 q 158 1061 178 1061 z "},"9":{"ha":345,"x_min":57,"x_max":275,"o":"m 250 39 l 252 7 q 228 -32 252 -32 l 216 -18 q 229 106 229 18 l 236 493 q 235 568 236 518 q 233 643 233 618 l 224 640 q 103 713 149 657 q 57 843 57 768 q 90 1023 57 949 q 124 1068 102 1049 q 172 1086 146 1086 q 226 1076 197 1086 q 266 1050 256 1065 q 275 829 275 1034 l 273 665 l 264 610 l 260 142 l 250 39 m 104 794 q 125 730 109 745 q 151 709 141 715 q 181 694 161 703 q 215 676 201 684 l 235 679 q 241 977 241 802 q 227 1038 241 1016 q 182 1060 213 1060 q 133 1036 151 1060 q 107 976 115 1013 q 93 857 93 907 q 104 794 93 806 z "}," ":{"ha":197,"x_min":0,"x_max":0,"o":""},"!":{"ha":223,"x_min":60,"x_max":153,"o":"m 60 26 q 74 55 60 40 q 105 69 88 69 q 133 55 122 69 q 143 18 143 40 q 109 -18 143 -16 q 100 -11 106 -12 q 60 26 77 -7 m 100 218 l 98 224 l 98 557 q 102 794 98 557 l 92 1013 q 106 1038 92 1027 q 137 1050 121 1050 q 153 1032 153 1050 q 138 700 153 921 q 123 368 123 479 l 125 307 q 114 225 125 252 l 118 218 l 100 218 z "},"\"":{"ha":431,"x_min":140,"x_max":329,"o":"m 140 856 q 143 939 143 876 l 143 950 q 158 1068 143 1068 q 181 1052 172 1068 q 191 1007 191 1036 q 175 915 191 978 q 146 852 159 852 q 140 856 144 852 m 283 987 q 311 1068 283 1068 q 324 1052 319 1068 q 329 1008 329 1036 q 321 916 329 980 q 308 851 313 851 q 301 852 302 851 q 283 956 283 880 l 283 987 z "},"#":{"ha":536,"x_min":52,"x_max":482,"o":"m 392 457 l 418 458 q 457 432 457 458 q 435 414 457 422 l 380 414 q 360 220 378 376 q 342 -21 342 64 l 326 -39 q 301 -25 301 -39 q 310 62 301 4 q 319 156 319 119 q 333 278 319 193 q 346 408 346 364 q 254 412 309 412 q 184 407 200 412 q 167 236 178 359 q 125 -39 142 -39 q 110 -35 118 -39 q 102 -25 102 -31 q 119 178 102 28 q 153 407 136 328 l 93 401 q 52 431 52 401 q 98 444 52 444 l 127 444 q 155 446 149 444 q 170 547 159 454 q 180 659 180 640 l 134 656 q 79 681 81 656 l 90 693 q 183 697 170 693 q 195 788 186 728 q 215 987 215 914 l 214 1015 q 235 1046 214 1046 l 244 1026 q 232 865 244 972 q 220 704 220 758 q 292 699 239 699 q 371 708 345 699 q 422 1035 414 915 q 443 1046 431 1046 q 460 1032 454 1046 q 434 874 459 979 q 410 715 410 770 l 412 708 l 464 708 l 482 689 q 464 667 473 667 l 406 669 q 385 460 385 587 l 392 457 m 191 457 l 192 452 q 255 449 208 449 q 343 454 302 449 q 368 653 368 588 q 261 667 368 667 q 215 659 230 667 q 199 564 208 642 q 191 457 191 487 z "},"$":{"ha":365,"x_min":60,"x_max":311,"o":"m 216 125 l 222 46 q 199 -12 222 -12 q 189 -2 193 -12 q 186 16 186 8 l 192 20 l 192 111 l 187 115 q 118 113 140 115 q 69 182 69 146 q 82 196 69 196 l 85 196 q 103 173 98 188 q 115 148 107 157 q 148 139 123 139 q 189 144 173 139 q 153 597 189 256 q 137 636 152 604 q 105 705 122 669 q 60 882 60 805 q 70 958 60 919 q 126 1032 90 1032 l 121 1092 q 140 1128 121 1128 l 151 1116 q 150 1084 150 1106 q 172 1034 150 1034 q 225 1003 199 1034 q 260 961 260 968 q 254 945 260 953 q 241 945 248 938 q 223 970 235 951 q 199 997 212 988 q 161 1008 186 1006 l 157 997 l 161 888 q 173 729 161 846 q 192 592 184 612 q 231 511 199 573 q 311 273 304 361 q 291 191 311 216 q 258 155 271 166 q 216 125 244 144 m 214 163 l 215 160 q 261 203 242 173 q 281 266 281 233 q 249 394 281 299 q 191 526 217 488 q 202 345 191 465 q 214 163 214 224 m 92 873 q 144 671 92 787 q 149 665 144 667 q 136 838 147 726 q 123 999 125 951 q 101 948 110 996 q 92 873 92 899 z "},"%":{"ha":760,"x_min":61,"x_max":703,"o":"m 296 782 l 298 718 q 234 509 298 558 q 178 490 210 490 q 61 800 61 490 l 61 806 q 77 922 61 854 q 160 1053 108 1053 q 256 1002 231 1053 q 298 786 298 928 l 296 782 m 96 799 l 98 722 q 109 629 98 680 q 175 526 127 526 q 225 549 205 526 q 254 610 245 572 q 267 726 267 673 l 256 900 l 253 913 q 228 985 253 954 q 164 1015 202 1015 q 121 959 135 1015 q 107 878 111 916 q 102 835 102 840 l 96 799 m 703 325 l 700 261 l 703 257 q 684 122 703 177 q 564 18 649 18 q 517 46 537 18 q 486 114 496 75 q 465 237 465 193 l 465 243 q 582 553 465 553 q 638 534 614 553 q 674 491 662 516 q 693 431 686 467 q 703 325 703 382 m 664 198 q 664 211 664 198 q 667 250 665 224 q 667 293 668 276 q 667 323 667 309 q 666 357 667 338 q 659 407 665 376 q 645 459 654 437 q 619 498 636 481 q 578 514 602 514 q 538 489 555 514 q 515 429 522 465 q 503 322 503 364 l 500 249 l 505 212 q 510 180 506 210 q 519 129 515 151 q 537 85 524 106 q 570 64 549 64 q 610 75 591 64 q 638 105 628 86 q 655 148 648 123 q 664 198 662 172 m 498 1039 q 519 1021 519 1039 q 506 953 519 1009 q 484 857 492 897 q 335 203 475 817 l 307 82 q 303 63 306 77 q 298 39 300 48 q 292 19 296 31 q 267 -4 283 -3 q 253 28 253 5 q 260 88 253 51 q 282 185 267 125 q 345 458 297 245 q 434 827 393 671 q 477 991 475 983 q 481 1006 479 998 q 486 1021 484 1013 q 498 1039 492 1039 z "},"&":{"ha":639,"x_min":62,"x_max":585,"o":"m 585 172 q 527 150 585 150 q 396 205 469 150 q 318 161 351 174 q 238 149 286 149 q 148 182 190 149 q 84 265 106 216 q 62 352 62 313 q 63 415 62 390 q 70 466 64 439 q 77 508 75 492 q 89 551 79 524 q 102 588 99 578 q 120 629 105 598 q 139 667 136 660 q 162 712 142 674 q 186 758 182 750 l 176 953 l 176 1068 q 191 1133 176 1110 q 221 1156 205 1156 q 290 1135 253 1156 q 326 1084 326 1114 l 322 1002 q 323 985 322 990 q 300 917 313 956 q 250 800 269 827 q 218 736 218 756 q 245 586 218 694 q 313 373 272 477 q 386 260 354 269 q 439 529 439 366 q 427 551 439 553 q 406 559 413 549 l 407 562 l 404 571 l 408 578 q 488 584 432 578 q 558 595 544 589 q 582 574 582 591 q 558 557 582 564 q 513 551 535 551 l 479 553 l 471 553 q 459 376 471 446 q 411 236 447 306 q 518 180 459 180 l 570 184 l 585 172 m 191 696 q 118 552 143 634 q 93 408 93 469 q 102 312 93 347 q 128 244 111 276 q 249 175 167 175 q 321 192 277 175 q 368 231 366 208 q 340 262 362 241 q 261 399 296 307 q 217 541 227 492 q 202 632 207 591 q 191 696 197 674 m 518 427 q 519 425 519 427 l 518 427 m 212 892 q 210 870 210 884 q 212 838 210 857 q 214 807 214 818 q 267 914 237 829 q 296 1038 296 1000 q 244 1121 296 1121 q 221 1101 235 1121 q 208 1071 208 1081 l 210 899 l 212 892 z "},"'":{"ha":431,"x_min":140,"x_max":191,"o":"m 140 856 q 143 939 143 876 l 143 950 q 158 1068 143 1068 q 181 1052 172 1068 q 191 1007 191 1036 q 175 915 191 978 q 146 852 159 852 q 140 856 144 852 z "},"(":{"ha":312,"x_min":64,"x_max":264,"o":"m 64 596 q 81 758 64 642 q 132 988 98 874 q 199 1103 165 1101 l 212 1092 q 191 1019 211 1059 q 102 596 102 848 q 207 -94 102 156 q 235 -148 212 -107 q 264 -214 258 -189 q 244 -231 254 -231 q 229 -228 235 -231 q 218 -216 223 -224 q 210 -203 213 -208 q 199 -175 199 -183 q 99 184 135 -33 q 64 596 64 400 z "},")":{"ha":323,"x_min":49,"x_max":262,"o":"m 262 554 q 220 216 262 396 q 69 -189 126 -189 q 55 -184 62 -189 q 49 -173 49 -180 q 59 -147 49 -167 q 84 -99 69 -127 q 184 215 143 13 q 225 554 225 416 q 163 965 225 791 q 144 1004 157 980 q 114 1092 114 1059 l 127 1103 q 183 1028 156 1102 q 227 857 210 954 q 262 554 262 644 z "},"*":{"ha":614,"x_min":57,"x_max":554,"o":"m 364 760 q 321 755 327 760 q 375 632 321 738 q 428 515 428 527 q 422 497 428 503 q 405 492 416 492 q 387 504 394 492 q 375 538 379 515 q 370 564 370 561 q 294 722 332 652 q 278 686 288 714 l 224 558 q 216 536 221 551 q 195 488 204 504 l 176 485 l 157 505 q 209 624 157 521 q 267 758 261 726 q 252 761 258 761 l 94 761 l 72 760 q 57 782 57 760 q 61 794 57 789 q 72 799 66 799 l 260 798 l 262 800 q 204 919 248 827 q 161 1019 161 1010 q 183 1035 161 1035 q 213 986 193 1035 q 255 884 233 938 q 290 822 277 831 q 316 892 296 833 q 390 1047 366 1047 q 405 1040 397 1047 q 412 1025 412 1033 q 395 989 412 1017 q 357 891 378 956 q 323 799 336 826 q 408 791 331 791 l 528 799 q 546 790 538 799 q 554 772 554 782 q 522 753 554 753 l 364 760 m 319 760 q 318 758 318 760 l 319 758 l 319 760 z "},"+":{"ha":493,"x_min":68,"x_max":425,"o":"m 272 264 q 243 241 272 241 q 224 248 235 241 q 214 261 214 254 l 214 304 l 216 376 q 197 420 216 417 q 170 422 187 422 l 109 415 q 68 444 68 415 q 83 464 68 464 l 157 460 q 214 471 214 460 l 207 610 q 213 633 207 626 q 235 640 218 640 q 260 616 260 640 l 254 603 l 260 493 q 269 467 260 473 q 298 460 278 460 l 382 464 q 425 440 425 464 q 401 416 425 416 l 317 421 q 269 414 273 421 q 260 374 260 399 q 266 316 260 350 q 272 264 272 282 z "},",":{"ha":276,"x_min":68,"x_max":201,"o":"m 68 -110 l 71 -97 q 143 4 143 -37 q 115 31 126 14 q 103 66 103 47 q 120 96 103 84 q 155 109 136 109 q 201 68 186 109 l 199 64 q 201 41 201 58 q 184 -15 201 24 q 140 -87 168 -54 q 90 -121 113 -120 l 68 -110 z "},"-":{"ha":420,"x_min":77,"x_max":345,"o":"m 345 501 q 254 474 345 487 q 130 461 163 461 q 86 468 96 461 q 77 485 77 474 q 168 512 77 499 q 292 525 260 525 q 345 501 345 525 z "},".":{"ha":222,"x_min":77,"x_max":146,"o":"m 107 -5 q 86 5 95 -5 q 77 28 77 16 q 88 53 77 41 q 112 65 99 65 q 135 53 125 65 q 146 29 146 41 q 107 -5 146 -5 z "},"/":{"ha":379,"x_min":58,"x_max":325,"o":"m 325 1021 q 311 953 325 1009 q 289 857 298 897 q 140 203 280 817 l 113 82 q 109 63 111 77 q 103 39 106 48 q 97 19 101 31 q 72 -4 89 -3 q 58 28 58 5 q 65 89 58 51 q 88 185 73 127 q 151 457 103 243 q 240 827 199 671 q 283 991 281 983 q 287 1006 285 998 q 292 1021 290 1013 q 304 1039 298 1039 q 325 1021 325 1039 z "},":":{"ha":233,"x_min":77,"x_max":160,"o":"m 107 136 q 86 147 95 136 q 77 170 77 157 q 88 195 77 183 q 112 207 99 207 q 135 195 125 207 q 146 171 146 183 q 107 136 146 136 m 121 661 q 99 672 109 661 q 90 695 90 682 q 101 720 90 708 q 125 732 113 732 q 149 720 138 732 q 160 696 160 708 q 121 661 160 661 z "},";":{"ha":265,"x_min":64,"x_max":197,"o":"m 153 661 q 131 672 140 661 q 122 695 122 682 q 133 720 122 708 q 157 732 144 732 q 181 720 170 732 q 192 696 192 708 q 153 661 192 661 m 139 123 q 98 184 98 148 q 115 216 98 203 q 152 228 132 228 q 184 212 172 228 q 197 173 197 196 q 182 109 197 149 q 139 34 166 68 q 86 -1 112 -1 l 64 9 l 66 22 q 139 123 139 83 z "},"<":{"ha":386,"x_min":57,"x_max":332,"o":"m 313 0 l 294 3 l 292 3 q 245 92 270 35 q 212 164 220 149 l 143 309 q 129 338 140 316 q 113 372 117 360 q 83 419 109 385 q 57 472 57 453 q 90 568 57 490 q 161 733 122 645 q 205 835 200 821 q 216 873 210 850 q 228 913 222 896 q 261 964 243 961 l 279 950 q 184 705 267 869 q 106 475 106 547 q 201 268 106 463 q 319 36 297 73 l 332 26 q 325 9 330 19 q 313 0 319 0 z "},"=":{"ha":420,"x_min":77,"x_max":386,"o":"m 386 493 q 240 489 386 489 l 106 489 q 85 495 94 489 q 77 513 77 502 q 199 517 77 517 l 355 517 q 376 510 366 517 q 386 493 386 503 m 96 439 l 370 437 q 379 431 374 437 q 383 417 383 424 q 375 410 383 410 q 107 412 375 412 q 96 420 101 412 q 90 433 90 427 q 96 439 90 439 z "},">":{"ha":386,"x_min":54,"x_max":329,"o":"m 94 3 q 74 0 94 3 q 62 9 68 0 q 54 26 56 19 l 66 36 q 186 272 91 80 q 281 475 281 463 q 202 705 281 547 q 107 950 119 869 l 125 964 q 159 913 144 960 q 170 873 163 897 q 181 835 176 850 q 225 733 186 821 q 329 477 329 500 q 303 419 329 454 q 273 372 278 385 q 257 337 269 359 q 243 309 245 315 l 123 61 q 94 3 98 9 z "},"?":{"ha":315,"x_min":64,"x_max":249,"o":"m 74 870 q 64 950 64 922 q 68 996 64 977 q 81 1032 72 1015 q 152 1070 100 1070 q 218 1040 203 1070 q 249 900 249 979 q 238 760 249 821 q 214 644 228 699 q 186 526 199 589 q 161 164 154 376 q 159 164 161 165 q 144 160 152 160 q 129 176 132 160 q 155 555 129 385 q 178 656 161 590 q 212 884 212 803 q 198 998 212 956 q 163 1040 183 1040 l 147 1040 q 98 954 98 1040 q 109 870 98 935 l 92 865 q 74 870 76 863 m 144 -5 q 123 5 132 -5 q 114 28 114 16 q 125 53 114 41 q 149 65 136 65 q 173 53 162 65 q 183 29 183 41 q 144 -5 183 -5 z "},"@":{"ha":703,"x_min":62,"x_max":640,"o":"m 330 317 q 193 647 193 317 l 193 664 q 200 835 193 798 q 218 903 208 872 q 243 951 229 934 q 333 993 278 993 q 424 953 388 993 q 487 538 446 927 q 494 465 494 474 l 510 458 q 539 424 528 424 q 593 635 593 424 q 515 1051 593 846 q 471 1138 495 1105 q 319 1203 420 1203 q 177 1141 219 1203 q 133 995 142 1089 q 128 932 130 968 q 125 891 126 897 q 123 870 125 886 q 119 846 121 854 q 109 804 113 816 q 111 743 111 768 q 106 705 111 719 q 109 680 109 700 q 111 626 109 660 q 114 573 113 591 q 121 509 116 555 q 128 444 126 463 q 133 391 130 426 q 136 334 135 356 q 142 282 138 311 q 153 230 146 253 q 212 116 171 174 q 298 58 253 58 q 431 84 374 58 q 545 168 489 109 q 557 181 552 176 q 575 195 570 193 l 587 182 q 543 117 578 147 q 465 67 509 86 q 302 26 372 26 q 127 189 201 26 q 118 222 125 206 q 109 244 111 237 q 78 455 94 286 q 62 694 62 623 q 118 1119 62 973 q 210 1223 147 1196 q 309 1243 256 1243 q 394 1234 362 1243 q 450 1212 426 1225 q 495 1174 474 1198 q 530 1128 516 1149 q 558 1072 545 1107 q 578 1012 571 1036 q 594 947 586 988 q 618 814 616 837 q 625 761 621 791 q 631 721 630 731 q 636 688 633 711 q 640 612 640 654 q 537 383 640 383 q 498 399 518 383 q 467 418 477 415 q 387 330 443 358 q 330 317 359 317 m 375 942 q 371 946 375 942 q 357 952 368 949 q 332 956 347 956 q 303 947 317 956 q 281 927 290 939 q 266 896 272 915 q 256 860 260 877 q 251 819 253 842 q 248 742 248 788 l 248 564 q 258 438 248 469 q 278 391 268 408 q 340 357 298 357 q 388 384 364 357 q 426 446 412 412 q 439 505 439 481 l 439 610 q 437 654 439 633 q 435 686 435 675 q 431 712 434 696 q 428 736 429 728 q 423 762 427 744 q 418 786 420 781 q 407 843 412 809 q 400 886 401 878 q 395 907 398 895 q 387 927 391 920 q 375 942 382 935 z "},"A":{"ha":472,"x_min":53,"x_max":400,"o":"m 385 407 l 400 45 l 400 30 q 396 9 400 14 q 372 0 385 0 q 351 7 359 0 q 343 24 343 14 q 347 40 347 32 l 343 68 l 343 205 q 270 237 343 224 q 161 250 197 250 q 137 200 148 250 q 116 89 126 149 q 96 14 106 28 q 53 31 63 14 q 95 182 75 62 q 127 358 115 303 q 171 595 139 412 q 213 828 202 777 q 231 904 224 880 q 246 962 237 928 q 286 1042 269 1042 q 315 1032 308 1042 q 327 986 322 1022 q 337 893 332 949 q 347 791 342 838 q 362 598 359 644 q 375 532 366 552 q 372 459 372 490 q 385 407 372 429 m 157 289 q 297 269 215 269 q 322 272 314 269 l 329 269 q 342 282 342 269 q 288 908 342 572 q 284 923 287 912 q 282 940 282 934 q 264 879 265 892 l 268 871 q 252 823 263 866 q 222 645 241 780 q 194 472 203 511 q 176 403 186 434 q 157 297 157 334 l 157 289 z "},"B":{"ha":418,"x_min":74,"x_max":349,"o":"m 349 321 l 345 261 q 349 245 345 258 q 313 108 336 148 q 261 47 290 68 q 186 5 232 26 q 159 -2 176 5 q 131 -8 141 -8 q 77 11 77 -8 l 83 363 l 74 942 q 110 1042 74 1042 q 255 981 205 1042 q 304 817 304 920 q 215 593 304 713 q 260 530 235 564 l 298 478 q 342 394 335 430 q 349 321 349 357 m 129 47 l 138 46 q 237 90 180 46 q 302 167 294 134 q 310 252 310 200 q 191 550 310 500 q 154 543 177 549 q 122 534 131 536 q 129 47 129 331 m 117 935 l 122 602 l 126 600 q 206 656 175 600 q 247 748 231 701 q 268 807 262 795 l 268 860 q 233 951 268 907 q 153 994 199 994 q 117 935 117 994 z "},"C":{"ha":472,"x_min":65,"x_max":414,"o":"m 115 684 l 103 583 q 121 309 103 501 q 159 88 140 117 q 268 32 195 32 q 375 72 341 32 q 407 77 388 72 l 414 69 q 308 -18 414 3 q 251 -22 283 -22 q 177 9 220 -22 q 117 78 134 40 q 82 314 99 116 q 65 663 65 512 q 74 840 65 813 q 69 885 69 864 q 129 1015 69 968 q 275 1061 189 1061 q 327 1046 299 1061 q 355 1010 355 1031 q 334 994 355 994 q 317 1003 328 994 q 299 1011 306 1011 q 283 1008 292 1011 q 250 1014 267 1014 q 209 1007 233 1014 q 169 988 185 1000 q 142 958 153 977 q 125 922 131 939 q 115 878 119 905 q 111 782 111 839 l 115 684 m 273 1000 l 271 1000 l 273 1000 z "},"D":{"ha":476,"x_min":56,"x_max":404,"o":"m 106 203 l 107 258 q 98 448 107 340 q 86 582 88 555 q 79 756 80 595 q 76 935 79 917 q 65 977 74 952 q 56 1015 56 1001 q 160 1048 56 1048 l 167 1048 q 281 990 220 1048 q 360 885 342 932 q 385 773 379 838 q 394 653 391 707 q 403 585 396 599 l 400 547 l 404 541 l 400 529 l 404 522 q 396 484 396 509 q 393 436 396 458 q 388 402 391 414 q 379 366 385 390 q 359 289 372 342 q 233 68 321 140 q 129 -3 145 -3 q 97 4 113 -3 q 78 25 80 12 q 100 81 98 50 l 106 203 m 110 983 l 122 753 q 133 487 122 663 q 143 249 143 311 q 140 113 143 187 l 143 107 l 143 68 l 150 68 q 242 148 202 96 q 304 256 282 199 q 340 380 326 313 q 363 593 363 490 q 139 999 363 999 q 110 983 111 999 z "},"E":{"ha":337,"x_min":65,"x_max":283,"o":"m 135 41 l 218 46 q 283 24 283 46 q 242 -2 272 3 q 184 -8 212 -8 l 152 -8 q 80 2 90 -8 q 71 22 71 12 l 83 74 l 83 77 q 78 138 78 104 l 85 279 l 77 576 l 83 852 q 75 927 83 878 q 65 999 66 976 l 90 1038 l 187 1050 l 192 1046 q 230 1037 224 1046 q 235 1019 235 1029 q 184 993 235 993 l 147 996 q 117 979 117 996 l 127 743 l 121 570 l 118 567 l 126 562 l 203 576 q 219 569 210 576 q 228 553 228 561 q 207 525 228 525 l 175 526 q 122 500 122 526 l 132 383 l 127 375 l 127 93 q 135 54 135 84 l 135 41 z "},"F":{"ha":297,"x_min":56,"x_max":241,"o":"m 191 1004 l 157 1006 q 106 974 106 1006 q 116 773 106 906 q 126 572 126 640 q 173 581 142 572 q 216 589 203 589 q 235 579 229 589 q 241 561 241 570 q 213 540 241 544 q 155 533 184 536 q 126 517 126 530 q 139 282 126 438 q 153 49 153 127 l 149 41 q 153 21 153 31 q 122 -3 153 -3 q 98 92 98 -3 l 100 136 q 91 346 100 207 q 82 555 82 486 q 56 991 82 958 l 56 1000 q 193 1050 56 1050 q 216 1018 216 1050 q 191 1004 216 1004 z "},"G":{"ha":525,"x_min":64,"x_max":458,"o":"m 387 314 q 431 256 431 314 q 445 132 431 214 q 458 8 458 50 q 440 -14 458 -14 q 407 17 407 -14 q 408 20 407 18 q 408 24 408 23 q 373 4 395 20 q 340 -15 351 -12 q 308 -20 330 -18 q 275 -28 286 -21 l 278 -28 q 141 36 186 -7 q 90 153 104 71 q 64 595 64 291 q 71 764 64 714 q 85 853 77 814 q 104 919 93 891 q 132 977 115 947 q 170 1024 149 1006 q 285 1065 218 1065 q 326 1042 326 1065 q 306 1025 326 1025 l 267 1032 q 129 838 160 1032 q 111 561 111 732 q 107 409 107 451 q 108 343 107 366 q 111 284 109 319 q 119 221 113 249 q 133 160 125 193 q 155 103 141 127 q 187 59 169 79 q 294 17 225 17 q 407 86 362 17 q 394 228 407 190 q 371 265 382 265 l 315 260 q 283 283 283 260 q 325 305 283 296 q 387 314 366 314 z "},"H":{"ha":408,"x_min":64,"x_max":334,"o":"m 278 559 l 265 1031 q 268 1050 265 1036 q 301 1013 294 1050 q 307 836 307 981 q 317 386 307 690 q 328 33 328 83 q 334 13 334 21 q 326 -9 334 4 q 309 -22 318 -22 q 289 8 289 -22 l 290 40 q 277 517 290 254 l 268 515 l 215 522 q 117 505 146 522 q 129 265 117 425 q 140 25 140 106 q 126 4 140 4 q 103 20 109 4 q 96 116 98 36 q 92 288 93 195 q 89 406 91 380 q 64 1039 64 745 l 86 1050 l 104 1035 q 98 932 98 983 l 110 650 l 109 595 q 114 546 109 567 l 277 557 l 278 559 z "},"I":{"ha":323,"x_min":52,"x_max":268,"o":"m 244 5 l 200 12 q 168 -4 184 12 q 129 7 137 -4 l 125 7 q 52 31 62 7 q 83 46 52 46 l 114 45 q 142 85 142 45 q 139 182 143 125 q 133 297 134 240 q 125 519 132 354 q 117 755 119 684 l 118 918 q 114 999 118 985 l 66 989 q 52 1008 52 989 q 113 1040 52 1027 q 195 1053 174 1053 q 232 1030 232 1053 q 215 1007 232 1007 l 182 1008 q 153 986 158 1008 q 149 878 149 968 q 166 524 149 789 q 183 125 183 258 l 182 53 l 232 57 q 268 22 268 57 l 244 5 z "},"J":{"ha":317,"x_min":49,"x_max":262,"o":"m 224 207 l 216 93 q 221 68 216 77 l 211 46 q 174 -54 208 -3 q 98 -135 139 -105 q 69 -109 69 -135 q 93 -81 71 -96 q 119 -62 115 -66 q 180 150 180 -1 q 174 355 180 222 q 164 591 167 489 q 142 1010 157 928 l 68 997 q 54 1003 60 997 q 49 1018 49 1010 q 240 1053 49 1053 q 256 1046 250 1053 q 262 1031 262 1040 q 198 1010 262 1010 l 183 1010 l 182 983 q 190 873 182 947 q 199 735 199 800 q 211 485 199 669 q 224 207 224 300 m 142 -17 q 143 -18 143 -17 l 142 -17 z "},"K":{"ha":468,"x_min":69,"x_max":411,"o":"m 383 -32 l 364 -26 q 281 332 337 134 q 180 616 226 530 l 176 614 q 147 555 172 597 q 119 487 122 512 q 117 390 117 463 l 123 83 q 94 -4 123 -4 q 69 60 69 -4 q 78 253 69 124 q 87 446 87 381 q 82 945 87 446 l 79 950 l 69 1015 q 93 1044 69 1044 q 110 1042 105 1044 q 119 1023 115 1039 q 126 884 126 998 l 121 586 l 122 586 q 196 761 150 645 q 249 890 243 876 q 347 1083 324 1083 q 371 1063 371 1083 q 353 1015 368 1038 q 336 984 339 991 q 313 935 332 977 q 279 862 293 893 q 247 790 264 831 q 205 673 208 701 l 212 661 l 207 657 q 316 313 254 538 q 411 -5 378 87 q 383 -32 409 -32 z "},"L":{"ha":322,"x_min":66,"x_max":267,"o":"m 199 0 l 155 1 q 136 -7 148 1 q 115 -16 125 -16 q 96 -7 106 -16 q 86 14 86 2 l 94 77 l 81 471 l 66 1051 q 85 1065 66 1065 q 111 1040 111 1065 q 118 634 111 720 q 125 528 125 548 q 122 473 125 507 l 126 468 q 123 394 123 431 q 131 250 123 356 q 139 98 138 143 q 134 71 134 90 q 140 44 134 51 q 168 37 146 37 q 196 46 189 37 l 248 46 q 267 24 267 37 q 248 -3 267 -3 q 227 3 243 -3 q 199 0 220 0 z "},"M":{"ha":581,"x_min":72,"x_max":504,"o":"m 429 1054 q 463 1076 433 1076 q 473 1069 467 1076 q 479 1057 479 1063 q 475 879 475 964 q 486 584 475 793 q 497 302 497 374 q 496 213 497 231 q 499 152 494 196 q 504 41 504 108 q 484 -36 504 -26 l 484 -32 l 478 -37 l 452 -26 l 452 -22 q 456 -5 452 -14 l 450 7 q 453 134 453 90 l 443 590 l 446 746 q 443 812 446 770 q 440 869 441 855 q 437 860 437 867 q 398 586 433 770 q 340 328 376 444 q 333 307 338 320 q 321 262 321 278 l 325 256 q 319 220 323 251 q 281 151 308 151 q 248 259 250 151 q 244 305 248 277 q 183 607 241 333 q 117 893 125 882 q 111 612 111 768 l 115 171 l 122 39 q 111 3 122 14 q 72 75 72 3 l 79 307 l 74 589 l 78 918 q 77 1038 78 998 l 103 1053 q 225 608 136 1048 q 254 472 243 516 q 268 409 264 428 q 277 365 272 391 q 288 289 288 313 q 314 404 296 310 l 334 501 q 371 701 342 541 q 410 905 401 861 q 432 1047 430 996 l 429 1054 m 170 685 l 171 685 l 170 685 z "},"N":{"ha":524,"x_min":71,"x_max":449,"o":"m 421 75 l 425 25 q 390 -16 425 -16 q 357 37 366 -16 q 351 64 352 61 q 180 689 216 492 q 178 708 179 695 q 165 747 177 736 l 168 754 q 155 826 159 806 q 145 871 151 846 q 121 950 136 915 q 117 907 117 922 q 119 884 117 892 q 110 787 110 851 l 110 407 q 119 209 110 340 q 129 11 129 77 l 119 0 l 87 0 l 83 11 q 86 66 86 22 l 71 550 l 71 732 l 81 994 l 79 1023 q 89 1047 79 1041 q 112 1053 98 1053 q 138 1044 127 1053 q 149 1017 149 1036 q 155 977 149 999 q 172 929 161 956 q 190 880 184 902 q 202 809 197 858 q 215 724 208 761 q 239 623 222 686 q 278 484 256 560 q 307 383 300 407 q 323 321 313 359 q 346 212 345 244 q 360 157 355 198 q 383 102 366 117 q 392 168 392 121 l 397 652 l 393 867 l 397 920 q 393 937 397 935 l 397 949 q 392 1063 397 1034 q 427 1082 397 1082 q 449 1036 449 1082 q 440 990 440 1019 l 441 943 q 436 901 441 913 l 432 463 q 435 425 432 450 l 432 419 l 432 244 l 435 192 q 421 78 435 109 l 421 75 z "},"O":{"ha":472,"x_min":64,"x_max":397,"o":"m 397 419 l 385 240 l 387 235 q 376 151 376 188 q 361 74 376 113 q 317 2 347 34 q 254 -29 288 -29 q 191 -3 220 -29 q 142 63 161 22 q 108 158 123 103 q 85 267 94 214 q 72 377 77 320 q 64 542 64 472 q 70 700 64 611 q 77 814 76 789 q 78 860 77 840 q 81 907 79 880 q 89 955 84 935 q 102 998 93 976 q 123 1034 111 1019 q 203 1065 152 1065 q 288 1038 254 1065 q 312 1004 292 1030 q 342 955 332 979 q 364 840 352 932 q 397 419 397 603 m 205 1029 q 103 618 103 1029 l 103 564 q 118 356 103 467 q 148 176 132 245 q 193 58 164 107 q 257 9 222 9 q 326 106 304 9 q 352 278 348 203 q 357 412 357 381 l 357 446 q 356 489 357 471 q 355 548 356 507 q 353 621 355 589 q 347 699 351 653 q 338 780 344 744 q 324 856 332 815 q 305 925 316 896 q 279 979 294 954 q 205 1029 250 1029 z "},"P":{"ha":366,"x_min":61,"x_max":298,"o":"m 125 492 l 136 35 q 131 3 136 14 q 107 -8 125 -8 q 89 40 89 -8 l 94 289 l 83 514 q 80 769 83 669 q 75 902 76 869 q 73 952 74 935 q 61 1042 70 1006 q 97 1061 74 1061 q 186 1038 146 1061 q 250 978 226 1015 q 298 819 298 900 q 269 653 298 737 q 176 523 233 547 q 151 507 157 515 q 125 492 139 495 m 106 1021 l 122 546 l 125 543 q 146 551 139 545 q 160 565 153 557 q 170 575 167 572 q 260 802 260 665 q 256 878 260 849 q 232 932 252 906 q 199 970 213 958 q 160 1000 185 981 q 131 1021 134 1019 l 106 1021 z "},"Q":{"ha":493,"x_min":65,"x_max":437,"o":"m 72 621 l 71 705 q 208 1069 71 1069 q 305 1030 257 1069 q 361 943 353 991 q 399 403 399 729 q 372 136 399 215 q 313 36 362 107 q 319 10 313 26 q 327 -13 325 -5 q 332 -47 329 -20 q 337 -94 334 -75 q 353 -131 340 -114 q 389 -147 366 -147 q 437 -165 437 -147 q 385 -192 437 -192 q 362 -183 379 -192 q 343 -174 346 -174 q 303 -131 317 -162 q 282 -48 290 -100 q 269 18 274 3 l 205 18 q 78 222 102 92 q 65 389 65 292 l 72 621 m 104 458 l 104 400 q 146 149 104 255 q 189 82 161 110 q 253 54 217 54 l 262 61 q 279 71 265 71 q 297 75 292 72 q 344 205 341 114 q 345 255 345 226 q 346 297 345 284 q 351 333 347 310 q 355 368 355 356 l 355 557 q 350 605 350 570 q 348 672 350 640 q 339 753 345 704 q 332 817 334 802 q 329 854 330 833 q 326 887 328 876 q 322 918 325 899 q 315 949 319 937 q 305 975 311 960 q 289 998 298 989 q 267 1015 280 1007 q 199 1031 243 1031 q 104 458 104 1031 z "},"R":{"ha":401,"x_min":72,"x_max":340,"o":"m 82 1018 l 79 1043 q 107 1055 79 1055 q 194 1023 164 1055 q 234 955 224 991 q 250 899 244 918 q 261 835 261 858 q 222 667 261 765 q 197 597 197 604 q 252 324 197 530 q 340 32 306 118 q 322 -14 340 -14 q 299 -1 308 -14 q 288 14 290 12 q 252 164 283 68 q 213 293 220 261 q 188 425 206 326 q 155 576 170 524 l 144 585 l 118 574 l 118 53 l 121 18 q 96 -9 121 -9 q 79 -3 85 -9 q 72 14 72 3 l 77 21 l 82 864 l 82 1018 m 121 1011 l 114 708 q 118 619 114 648 l 121 619 q 157 648 131 619 q 193 693 183 676 q 209 749 203 710 q 215 815 215 789 q 211 869 215 841 q 199 931 208 898 q 174 986 191 964 q 132 1008 156 1008 l 132 1013 l 121 1011 z "},"S":{"ha":386,"x_min":54,"x_max":319,"o":"m 268 469 l 267 464 q 298 357 267 463 q 319 229 319 274 q 309 142 319 184 q 278 60 298 99 q 223 -5 258 20 q 156 -31 189 -31 q 111 -29 124 -31 q 54 4 71 -25 q 69 21 54 21 q 108 11 83 21 q 155 0 133 0 q 203 26 178 0 q 242 90 229 52 q 269 234 269 167 q 249 372 269 302 q 199 499 229 441 q 140 614 170 557 q 71 873 71 751 q 132 1035 71 975 q 210 1067 165 1067 q 246 1056 224 1067 q 273 1032 269 1044 l 265 1017 q 220 1031 234 1017 q 163 1006 186 1031 q 118 885 118 960 q 127 794 118 830 q 140 739 136 758 q 157 690 145 720 q 175 647 170 661 q 198 600 181 633 q 219 558 214 568 q 244 512 224 549 q 268 469 264 476 z "},"T":{"ha":368,"x_min":47,"x_max":315,"o":"m 232 370 l 239 46 q 215 -8 239 -8 q 193 11 201 -8 q 186 47 186 31 l 197 275 q 188 497 197 349 q 178 720 178 645 l 179 850 q 155 993 179 993 l 77 985 q 57 991 66 985 q 47 1008 47 998 q 140 1036 47 1023 q 286 1048 232 1048 q 306 1041 296 1048 q 315 1025 315 1034 q 289 1004 315 1004 q 237 1008 289 1004 q 208 994 214 1008 q 218 814 218 907 l 216 646 q 236 410 216 481 q 232 370 232 389 z "},"U":{"ha":504,"x_min":57,"x_max":429,"o":"m 425 289 l 427 201 q 396 28 427 84 q 359 -11 383 5 q 296 -26 334 -26 q 224 -6 257 -26 q 174 46 192 15 q 143 119 157 77 q 125 197 130 160 q 94 321 109 293 q 80 651 94 431 q 66 982 66 871 l 57 1011 q 64 1030 57 1021 q 81 1039 71 1039 q 115 937 115 1039 l 127 468 q 134 435 133 461 q 147 311 141 338 q 144 276 144 295 q 158 212 144 257 q 192 124 171 168 q 245 50 214 81 q 302 18 277 18 q 340 24 328 18 q 359 36 352 29 q 370 57 366 42 q 376 80 374 72 q 378 107 377 87 q 379 132 380 127 q 379 144 379 136 l 383 191 l 383 349 l 374 432 l 366 681 l 366 699 l 359 707 q 366 786 366 746 l 353 1022 q 362 1039 353 1033 q 383 1044 372 1044 l 407 1022 l 403 1011 l 407 1000 l 397 917 l 411 667 l 418 425 l 422 424 q 421 395 421 414 l 425 297 l 429 293 l 425 289 z "},"V":{"ha":454,"x_min":50,"x_max":395,"o":"m 254 -12 q 233 -7 250 -12 q 161 404 208 94 q 91 859 115 714 q 50 1035 66 1004 q 78 1050 55 1050 q 107 1000 100 1050 q 118 941 109 993 q 169 604 127 890 q 245 164 210 318 q 257 243 253 205 q 289 527 260 282 q 340 1028 340 970 l 340 1034 q 375 1054 361 1054 l 383 1048 l 380 1048 l 395 1038 q 385 951 395 1008 q 375 865 375 895 q 321 469 361 840 q 281 18 282 98 q 254 -12 269 -12 m 245 160 l 243 157 l 248 157 l 245 160 z "},"W":{"ha":644,"x_min":50,"x_max":589,"o":"m 298 714 l 297 711 q 292 642 292 688 q 279 542 291 595 q 252 283 268 488 q 236 4 236 79 q 228 -9 236 -1 q 211 -18 220 -18 q 194 -9 201 -18 q 183 17 186 0 q 179 47 180 35 q 177 100 178 70 q 172 163 176 131 q 160 234 168 195 q 149 300 153 274 q 123 511 145 326 q 50 1026 66 1002 q 77 1044 60 1044 q 104 1019 94 1044 q 119 952 114 994 q 127 873 124 911 q 131 796 130 835 q 138 704 133 758 q 170 467 143 650 q 205 210 197 283 l 208 210 q 219 360 208 275 q 231 467 229 446 q 240 520 233 489 q 248 570 246 552 q 253 673 249 588 q 260 783 258 758 q 268 840 263 809 q 272 888 272 871 l 271 913 q 290 940 271 930 q 332 916 332 940 l 325 897 q 382 528 325 743 q 440 167 440 314 l 444 164 q 452 248 448 180 q 474 455 456 315 q 495 653 492 595 q 513 832 498 711 q 528 1019 528 954 l 526 1046 q 562 1079 526 1079 q 580 1073 571 1079 q 589 1055 589 1066 q 574 1031 589 1043 q 575 1022 575 1028 q 570 991 575 1013 q 542 685 560 911 q 497 298 524 460 q 469 36 469 136 l 469 16 q 465 -9 469 -1 q 444 -18 460 -18 q 394 195 412 -18 q 351 442 389 260 q 302 711 313 625 l 298 714 m 444 160 q 441 158 441 160 l 444 160 m 227 787 l 227 785 l 227 787 z "},"X":{"ha":383,"x_min":56,"x_max":322,"o":"m 292 18 q 267 36 267 18 q 264 75 267 54 q 259 112 262 97 q 252 153 256 127 q 196 427 222 326 q 155 253 190 416 q 115 64 119 89 q 110 33 111 39 q 95 -4 105 1 q 78 -8 85 -8 q 63 -3 71 -8 q 56 9 56 3 q 61 37 56 16 q 76 83 67 57 q 123 271 98 151 q 152 416 147 391 q 160 453 157 440 q 166 486 163 466 q 172 564 172 523 q 164 655 172 605 q 139 777 156 706 q 118 868 122 848 q 98 937 114 888 q 82 1014 83 986 q 105 1032 93 1032 q 123 1025 117 1032 q 131 1011 130 1019 q 132 991 132 1004 q 137 954 133 978 q 164 831 141 929 q 196 681 188 733 q 233 807 222 751 q 254 928 252 917 q 258 957 256 939 q 263 988 260 974 q 270 1018 265 1002 q 297 1053 279 1053 q 322 1039 322 1053 q 314 1005 322 1026 q 296 951 305 985 q 266 816 286 918 q 241 686 246 713 q 233 645 235 658 q 227 609 231 631 q 220 536 220 566 l 293 161 l 290 154 q 302 98 290 134 q 314 47 314 61 q 307 26 314 33 q 292 18 300 18 m 195 431 l 192 431 q 195 429 192 429 l 195 431 z "},"Y":{"ha":342,"x_min":50,"x_max":285,"o":"m 196 -17 q 176 17 176 -17 l 183 285 q 174 397 183 285 q 165 463 174 420 q 157 522 157 505 q 153 557 157 538 q 142 605 149 577 q 133 648 136 633 q 117 731 130 663 q 70 938 89 873 q 50 1020 50 1002 q 78 1048 50 1048 l 94 1038 q 131 819 98 981 q 182 631 163 656 q 212 790 203 694 q 225 936 220 886 q 264 1044 237 1044 q 285 1029 285 1044 q 279 999 285 1019 q 272 965 274 980 q 256 876 269 950 q 237 765 243 802 q 218 562 218 654 l 222 517 l 214 496 l 214 485 l 224 318 q 221 37 224 130 l 225 33 l 227 24 q 219 -4 227 8 q 196 -17 211 -17 z "},"Z":{"ha":319,"x_min":53,"x_max":260,"o":"m 239 -7 l 74 -12 q 53 5 60 -12 q 97 125 83 58 q 120 276 111 193 q 138 399 129 359 q 198 838 182 731 q 220 1017 218 977 q 126 1010 220 1017 q 64 1038 64 1010 l 74 1048 q 107 1046 85 1046 q 237 1060 107 1046 q 260 1035 260 1060 q 240 930 245 1002 q 229 820 235 858 q 191 526 224 782 q 135 132 157 269 q 118 82 133 117 q 103 26 103 47 l 193 33 q 252 5 252 33 l 239 -7 z "},"[":{"ha":349,"x_min":60,"x_max":298,"o":"m 277 1010 l 199 1018 q 157 989 157 1018 q 139 531 157 789 q 117 167 122 273 q 103 35 111 60 l 103 1 l 97 -9 q 142 -12 102 -10 q 240 -46 240 -17 q 209 -60 240 -60 q 119 -51 178 -60 q 60 -24 60 -41 q 74 148 60 34 q 89 348 89 262 q 107 662 89 434 q 125 1004 125 890 q 119 1021 125 1011 q 111 1036 113 1031 l 139 1053 q 298 1025 298 1053 q 291 1014 298 1018 q 277 1010 284 1010 z "},"\\":{"ha":379,"x_min":56,"x_max":322,"o":"m 56 1021 q 77 1039 56 1039 q 93 1011 86 1039 q 140 827 99 983 q 230 456 181 671 q 293 184 278 241 q 322 21 322 70 q 309 -4 322 5 q 286 14 292 -3 q 277 39 279 31 q 272 63 275 48 q 268 82 269 77 l 240 203 q 200 372 227 259 q 157 553 173 485 q 98 818 113 739 q 75 928 83 897 q 56 1021 56 1009 z "},"]":{"ha":350,"x_min":53,"x_max":292,"o":"m 171 1017 l 93 1011 q 53 1025 53 1011 q 89 1046 53 1042 q 145 1051 125 1050 q 212 1053 179 1053 l 240 1036 q 233 1021 239 1031 q 227 1004 227 1011 q 245 675 227 895 q 264 370 264 456 q 278 161 264 284 q 292 -24 292 38 q 232 -51 292 -41 q 142 -60 173 -60 q 111 -46 111 -60 q 209 -12 111 -17 q 254 -9 250 -10 l 249 1 l 249 35 q 222 366 238 58 q 204 757 207 673 q 198 899 202 841 q 195 981 195 958 q 190 1010 195 1004 q 171 1017 185 1017 z "},"^":{"ha":325,"x_min":66,"x_max":257,"o":"m 232 1044 l 214 1056 q 174 1264 207 1140 q 136 1158 156 1219 q 115 1084 117 1097 l 92 1052 l 66 1069 q 115 1202 68 1100 q 182 1304 162 1304 q 203 1276 203 1304 q 209 1222 203 1248 q 228 1163 216 1196 q 244 1113 239 1131 l 243 1104 l 253 1084 l 252 1076 q 257 1061 257 1065 q 232 1044 257 1048 z "},"_":{"ha":383,"x_min":68,"x_max":323,"o":"m 68 739 q 135 958 68 932 q 194 947 161 958 q 228 924 228 937 q 279 743 258 886 q 302 504 299 599 l 306 500 q 315 412 306 470 q 323 323 323 353 l 323 203 q 309 138 315 184 q 296 71 303 92 q 215 26 279 26 q 93 229 103 26 q 85 350 92 252 q 76 490 78 449 q 68 739 68 626 m 98 624 q 115 314 98 443 q 153 106 115 165 q 201 57 172 77 q 265 91 245 57 q 294 224 294 142 q 281 394 294 305 q 258 590 267 482 q 247 719 250 697 q 242 763 245 741 q 238 800 240 786 q 232 837 236 814 q 220 874 227 859 q 204 903 214 888 q 147 932 185 932 q 98 682 98 932 l 98 624 m 193 1059 l 183 1076 q 218 1116 183 1116 q 245 1107 233 1116 q 257 1084 257 1099 q 244 1058 257 1069 q 215 1047 231 1047 l 193 1059 z "},"`":{"ha":373,"x_min":71,"x_max":297,"o":"m 140 1100 q 118 1097 127 1097 q 71 1125 71 1097 q 79 1156 71 1149 q 142 1140 130 1156 q 158 1134 143 1139 q 184 1125 174 1129 q 213 1114 195 1121 q 244 1101 231 1107 q 271 1088 258 1095 q 297 1061 297 1073 q 291 1053 297 1057 q 282 1050 286 1050 q 212 1073 278 1050 q 140 1100 146 1097 z "},"a":{"ha":452,"x_min":56,"x_max":386,"o":"m 249 207 l 212 205 q 169 214 193 214 q 143 212 145 214 q 140 208 141 211 q 139 203 140 204 l 136 175 q 123 90 134 140 q 83 -7 104 -7 q 65 1 75 -7 q 56 17 56 8 q 92 175 73 69 q 116 307 111 281 q 134 412 121 333 q 151 517 146 492 q 173 625 155 542 q 194 734 191 709 q 203 804 198 760 q 221 925 214 913 l 240 924 q 265 932 257 924 q 282 926 274 932 q 290 911 290 920 q 307 654 290 844 q 334 407 324 463 q 357 297 344 351 q 370 215 370 243 l 363 196 q 374 104 363 165 q 386 19 386 43 q 375 -12 386 -6 q 340 -4 347 -12 q 334 22 334 4 q 331 66 334 40 q 327 108 329 92 q 318 157 324 123 q 311 200 313 191 q 249 207 285 207 m 151 275 q 184 252 151 261 q 297 237 235 237 l 311 237 q 302 300 302 264 l 302 332 q 281 583 302 418 q 258 828 260 747 q 169 385 186 469 q 151 275 151 300 z "},"b":{"ha":359,"x_min":69,"x_max":286,"o":"m 82 901 q 111 937 82 937 q 183 921 130 937 q 236 892 235 905 q 235 888 235 889 q 269 806 260 847 q 278 683 278 765 q 256 539 278 600 l 257 539 q 236 503 252 526 q 216 473 220 479 q 259 413 243 452 q 279 344 275 374 q 285 271 283 313 l 286 235 l 286 215 q 203 18 286 82 q 97 -16 159 -16 q 78 -7 85 -16 q 70 14 71 1 q 69 57 69 27 l 83 350 l 81 473 l 89 806 q 87 886 89 859 l 82 893 l 82 901 m 117 102 l 118 39 q 206 87 170 39 q 243 189 243 136 l 243 191 q 243 215 243 203 q 242 255 243 227 q 238 306 241 283 q 226 358 235 330 q 206 406 218 387 q 127 453 178 453 q 121 270 121 349 q 125 168 121 190 q 117 102 117 153 m 125 633 l 123 536 l 123 519 l 129 501 l 139 501 q 231 686 231 501 q 227 772 231 711 l 224 775 q 154 890 215 890 q 123 708 123 890 l 125 633 z "},"c":{"ha":373,"x_min":65,"x_max":315,"o":"m 118 561 l 113 281 q 135 113 113 163 q 201 35 161 53 q 253 24 227 24 q 294 36 280 24 q 315 21 315 36 q 297 -3 315 10 q 262 -22 278 -16 l 216 -22 q 184 -10 208 -18 q 140 12 160 -3 q 102 60 120 26 q 77 138 85 94 q 65 302 65 212 l 65 461 q 79 715 65 646 q 153 890 106 854 q 190 910 165 900 q 225 925 216 920 l 281 925 q 284 924 282 925 q 288 923 287 924 q 292 922 290 923 q 295 921 294 922 q 298 920 296 921 q 301 918 300 919 q 307 904 307 912 l 289 884 l 231 884 q 181 857 202 884 q 149 793 160 830 q 131 709 138 757 q 121 568 121 636 l 118 561 z "},"d":{"ha":443,"x_min":64,"x_max":371,"o":"m 364 486 q 371 419 364 431 q 355 296 362 374 q 338 178 348 219 q 313 109 328 138 q 192 -7 277 39 l 96 -7 q 83 31 83 -7 q 78 272 78 138 l 81 600 q 75 861 81 745 q 64 885 64 871 q 75 909 64 899 q 96 920 87 920 q 118 908 106 920 q 136 894 130 897 q 165 887 142 891 q 203 876 188 884 q 253 836 218 869 q 300 794 288 803 l 298 791 q 319 756 300 783 q 343 717 338 729 q 366 551 366 656 l 364 486 m 323 401 l 322 452 l 315 591 q 267 758 313 670 q 211 828 246 800 q 136 856 176 856 q 121 578 121 856 q 136 81 121 300 l 135 54 l 140 52 l 144 33 l 187 33 q 208 54 195 45 q 225 68 220 64 q 323 401 323 157 z "},"e":{"ha":333,"x_min":71,"x_max":277,"o":"m 74 11 l 75 46 l 71 52 q 81 109 81 79 l 74 292 l 83 710 l 78 876 q 118 916 78 916 q 140 907 134 916 q 180 901 145 905 q 268 867 266 892 q 241 840 268 856 q 129 867 165 865 l 122 859 q 123 799 123 839 l 118 583 q 138 545 118 545 l 184 547 q 239 522 237 547 q 232 497 239 508 q 206 486 224 486 q 179 497 188 486 l 134 504 l 127 504 l 121 497 l 121 493 q 123 383 123 457 l 121 186 q 140 33 121 47 q 184 22 152 22 l 236 25 q 277 7 277 25 q 216 -18 277 -18 l 102 -18 q 74 11 76 -18 z "},"f":{"ha":357,"x_min":66,"x_max":302,"o":"m 119 235 l 127 36 q 94 -20 127 -20 l 66 1 q 79 283 79 135 q 89 619 79 432 q 98 899 98 806 q 111 918 98 911 q 149 925 123 925 q 239 915 176 925 q 302 885 302 905 q 253 861 302 861 q 196 875 228 875 q 159 873 164 875 q 153 870 155 872 q 150 860 152 868 q 144 846 148 852 l 131 553 l 131 504 q 155 499 131 499 q 224 478 224 500 q 213 459 224 467 q 191 452 202 452 l 144 460 q 119 392 119 460 l 119 235 m 75 688 l 75 686 q 74 685 75 685 q 72 686 72 685 q 74 688 72 688 l 75 688 z "},"g":{"ha":467,"x_min":62,"x_max":397,"o":"m 382 275 l 387 62 q 245 -9 315 -9 q 124 28 153 -9 q 79 205 96 66 q 62 402 62 343 q 69 531 62 460 q 80 666 76 602 q 94 773 84 730 q 252 920 127 920 q 294 900 294 920 q 285 885 294 890 q 267 879 276 879 l 240 882 q 167 822 193 882 q 131 699 138 755 q 121 610 124 643 q 116 534 117 576 q 114 414 114 469 q 118 325 114 358 q 132 270 129 308 q 138 193 136 231 q 149 116 140 154 q 185 54 157 78 q 261 31 213 31 q 345 252 345 31 l 345 354 q 296 368 330 368 l 269 367 q 236 383 236 367 q 269 407 236 407 q 397 379 397 407 l 382 275 z "},"h":{"ha":411,"x_min":71,"x_max":335,"o":"m 260 911 q 267 926 260 920 q 279 932 275 932 q 309 924 284 932 q 317 599 309 815 q 326 251 326 383 q 335 0 326 119 l 326 -16 q 283 -1 325 -1 q 277 371 277 307 l 273 376 l 278 389 q 273 440 278 410 l 252 446 q 224 441 239 441 l 135 456 l 121 450 l 117 275 l 121 269 l 129 37 q 106 1 129 1 q 75 85 75 1 l 78 339 q 74 475 78 465 q 81 567 81 488 q 71 892 81 567 q 78 910 71 901 q 94 918 85 918 q 122 838 122 918 l 117 498 q 228 482 117 482 q 266 492 254 482 q 278 547 278 502 q 269 719 278 591 q 260 911 260 847 m 239 501 l 241 498 l 239 498 l 239 501 z "},"i":{"ha":373,"x_min":50,"x_max":318,"o":"m 288 11 l 241 16 q 216 8 231 16 q 180 0 201 0 q 154 14 159 0 l 131 12 q 93 26 101 12 q 101 41 93 35 q 111 50 109 47 l 151 50 l 157 56 l 161 85 q 151 389 161 85 l 158 713 q 151 873 158 807 q 110 878 138 878 l 77 875 q 50 899 50 875 q 63 910 50 905 q 83 916 75 916 q 277 873 277 916 q 273 863 277 869 l 241 860 q 201 868 231 868 l 195 864 q 199 790 199 852 l 195 460 l 204 155 l 203 113 q 207 74 203 80 l 205 71 q 236 57 205 57 l 277 58 q 318 39 318 58 q 309 19 318 26 q 288 11 300 11 z "},"j":{"ha":389,"x_min":47,"x_max":336,"o":"m 49 -139 l 47 -134 q 97 -95 47 -127 q 153 -57 147 -63 q 186 20 175 -32 q 197 117 197 71 q 184 854 197 117 l 176 869 q 142 876 170 872 q 75 905 75 885 q 87 917 75 911 q 121 922 98 922 q 240 903 143 922 q 336 864 336 883 q 314 846 336 846 l 239 860 q 227 832 227 860 l 240 256 l 240 103 q 232 51 232 85 q 223 -18 232 17 q 198 -88 214 -53 q 153 -147 182 -123 q 90 -171 125 -171 l 81 -171 l 49 -139 z "},"k":{"ha":459,"x_min":69,"x_max":401,"o":"m 232 631 l 229 542 q 277 311 229 479 q 374 54 334 109 q 401 3 401 18 q 378 -25 401 -25 q 299 100 345 -25 q 222 358 254 224 q 189 539 191 491 l 186 545 q 164 499 181 534 q 140 450 146 465 q 119 351 119 401 l 113 252 l 113 74 l 122 -5 q 115 -18 122 -13 q 95 -22 108 -22 q 76 -17 82 -22 q 69 7 69 -11 l 69 268 l 82 443 l 96 711 l 96 904 q 118 920 103 920 q 140 911 132 920 q 149 893 149 903 q 136 825 136 871 q 134 680 136 779 q 131 533 131 582 q 239 725 144 538 q 343 911 334 911 q 380 888 378 911 q 232 631 294 760 z "},"l":{"ha":337,"x_min":74,"x_max":283,"o":"m 127 32 l 258 28 l 262 28 q 277 20 270 28 q 283 4 283 12 q 261 -14 283 -12 q 146 -12 225 -12 l 149 -14 l 97 -18 q 74 14 77 -18 q 77 60 77 27 l 85 800 l 92 892 q 102 901 92 901 l 125 896 q 123 786 125 896 l 125 484 q 121 367 121 370 l 123 249 l 119 237 l 121 239 l 119 228 q 123 208 119 216 l 119 75 l 119 66 q 121 38 119 45 q 127 32 122 32 z "},"m":{"ha":715,"x_min":66,"x_max":644,"o":"m 631 277 l 628 131 q 642 -14 628 34 q 644 -31 644 -22 q 636 -56 644 -41 q 614 -72 627 -72 q 586 17 586 -72 q 582 370 586 307 q 572 473 577 433 q 567 533 567 512 l 572 705 q 567 771 572 754 q 400 186 540 749 q 397 165 399 181 q 393 137 395 150 q 387 109 391 123 q 358 78 378 78 q 326 89 335 78 q 317 123 317 100 q 245 468 317 180 q 149 779 173 755 q 136 551 145 705 q 118 120 118 230 q 119 -8 118 10 q 90 -26 113 -26 q 76 -19 85 -26 q 66 -7 66 -12 q 88 431 66 140 q 110 869 110 723 l 102 896 q 139 917 102 917 q 166 895 160 917 q 172 860 171 878 q 177 820 173 842 q 213 726 181 797 q 251 630 244 655 q 269 568 258 605 q 298 449 291 489 l 317 412 q 332 345 321 389 q 357 195 355 250 q 444 482 373 219 q 522 779 515 745 q 531 832 528 814 q 536 860 534 850 q 544 886 539 871 q 578 914 554 914 q 600 906 587 914 q 612 889 612 898 q 631 277 612 307 m 567 779 l 566 779 l 564 778 l 567 777 l 567 779 z "},"n":{"ha":585,"x_min":71,"x_max":510,"o":"m 463 846 l 460 880 q 479 909 460 909 q 502 897 493 909 q 510 869 510 884 l 510 777 l 503 765 q 488 345 503 656 q 458 4 473 33 q 438 -1 455 3 q 415 -5 422 -5 q 403 4 408 -5 q 394 28 397 13 q 389 47 391 43 l 390 52 q 354 183 381 109 q 318 283 326 258 q 281 387 313 290 q 123 806 156 774 q 113 708 113 763 l 115 599 l 113 532 q 118 435 113 516 l 114 435 q 123 179 114 203 l 123 54 q 129 30 129 45 q 103 -3 129 -3 q 74 72 74 -3 l 79 163 l 71 562 l 79 808 l 79 833 q 80 857 79 851 q 82 872 81 863 q 85 885 83 880 q 90 896 87 890 q 104 916 96 908 l 109 911 l 122 914 q 141 892 138 909 q 143 885 141 891 q 144 878 144 878 q 244 602 168 779 q 336 374 320 425 q 366 267 353 323 q 428 85 394 142 l 431 89 q 463 846 463 392 m 433 -1 q 435 -3 435 -1 l 433 -1 z "},"o":{"ha":456,"x_min":64,"x_max":382,"o":"m 379 536 l 382 371 q 281 -9 382 58 q 227 -26 257 -26 q 64 485 64 -26 q 91 827 64 682 q 153 933 111 933 q 171 926 162 933 q 194 913 179 918 q 234 903 208 908 q 270 897 259 899 q 323 843 298 892 q 382 543 382 744 l 379 536 m 107 486 l 110 376 q 140 125 110 244 q 172 47 151 80 q 221 14 193 14 q 269 34 248 14 q 302 91 290 54 q 322 164 314 127 q 334 249 330 202 q 339 382 339 323 l 323 710 l 318 721 l 321 728 q 287 833 321 788 q 204 878 253 878 l 146 878 q 125 754 134 878 q 114 616 117 630 l 107 486 z "},"p":{"ha":354,"x_min":69,"x_max":282,"o":"m 122 268 l 134 -3 q 107 -28 134 -28 l 87 -17 q 72 183 72 66 l 78 441 q 69 473 69 462 q 83 602 83 497 q 75 871 83 849 q 96 905 89 905 l 157 905 q 202 890 174 905 q 248 860 230 875 q 282 696 282 828 q 272 554 282 578 q 250 510 262 529 q 221 479 239 492 q 122 433 182 452 l 122 268 m 121 825 l 127 625 l 122 494 l 131 481 q 237 694 233 481 q 237 732 237 709 q 236 770 237 754 q 230 804 235 785 q 216 835 224 823 q 151 863 195 863 q 127 854 133 863 q 121 825 121 845 z "},"q":{"ha":467,"x_min":64,"x_max":392,"o":"m 353 -294 q 261 -272 281 -294 q 247 -135 261 -210 q 229 -46 232 -60 q 125 5 157 -32 q 76 178 88 47 q 64 479 64 310 q 201 928 64 920 q 231 919 211 924 q 271 904 252 913 q 314 872 291 895 q 351 817 337 848 q 373 755 364 785 q 386 685 382 724 q 392 554 392 626 l 392 489 q 376 258 392 387 q 294 -26 346 6 q 285 -31 292 -28 q 268 -47 268 -39 q 283 -167 268 -100 q 301 -248 298 -234 q 332 -257 311 -258 q 371 -275 371 -256 q 353 -294 371 -294 m 100 476 l 104 450 l 104 390 q 212 -9 104 -9 l 253 -1 q 304 77 281 -1 q 339 235 328 156 q 350 349 350 313 l 350 591 q 197 892 350 892 q 132 798 153 892 q 100 476 100 659 z "},"r":{"ha":373,"x_min":69,"x_max":315,"o":"m 69 873 q 100 926 69 926 q 212 892 168 926 q 256 791 256 858 l 256 690 q 201 537 256 637 q 183 501 183 504 q 236 281 183 498 q 291 58 288 64 q 304 29 294 51 q 315 -8 315 7 q 300 -24 315 -24 l 279 -17 q 208 254 247 20 q 144 481 171 481 l 139 481 q 109 461 109 481 q 117 209 109 385 q 132 11 126 32 l 122 -12 l 102 -12 l 92 -1 q 69 873 69 600 m 109 854 l 114 518 l 117 515 q 164 543 143 515 q 196 610 185 570 q 218 733 218 691 q 216 797 218 775 q 204 842 213 818 q 125 890 186 890 q 113 878 117 890 q 109 854 109 865 z "},"s":{"ha":332,"x_min":61,"x_max":264,"o":"m 205 885 l 176 893 q 138 876 155 893 q 114 833 122 859 q 97 754 97 783 q 98 713 97 726 q 103 685 100 701 q 109 662 107 669 q 116 634 110 655 q 123 610 123 612 l 134 585 q 169 523 147 560 q 201 467 191 486 q 227 417 212 448 q 247 361 241 387 q 264 246 264 297 q 260 164 264 195 q 244 100 256 133 q 217 43 233 68 q 113 -14 180 -14 l 106 -17 q 61 17 65 -9 l 68 28 l 118 18 q 173 43 150 18 q 208 106 196 68 q 228 236 228 176 q 211 350 228 296 q 169 447 193 403 q 120 535 144 491 q 61 745 61 642 q 80 846 61 798 q 171 935 115 935 q 205 923 186 935 q 224 896 224 911 q 205 885 224 885 m 215 890 l 215 889 l 216 889 q 215 890 216 890 z "},"t":{"ha":369,"x_min":49,"x_max":314,"o":"m 283 871 l 208 880 l 201 872 l 204 867 q 201 787 201 861 q 224 442 201 713 q 248 35 248 170 q 239 16 248 24 q 221 8 231 8 l 205 20 l 203 121 l 205 170 q 200 203 205 189 q 183 547 200 321 q 165 880 167 772 q 49 907 56 880 q 75 922 55 922 l 264 909 l 289 911 q 314 893 314 911 q 304 877 314 884 q 283 871 294 871 z "},"u":{"ha":441,"x_min":65,"x_max":367,"o":"m 353 624 l 354 596 q 350 501 351 561 q 348 388 349 441 q 345 272 347 334 q 334 160 342 210 q 272 3 315 42 q 164 -6 226 -41 q 120 31 138 9 q 91 175 102 54 q 78 432 80 297 q 65 895 72 838 l 74 914 q 106 838 106 910 l 110 469 l 125 175 q 229 17 125 17 q 311 308 294 17 q 317 496 312 328 q 322 901 322 664 l 319 926 q 339 942 319 942 q 363 933 359 942 q 367 851 367 924 q 358 743 367 778 q 359 734 359 741 q 353 624 359 734 z "},"v":{"ha":484,"x_min":52,"x_max":424,"o":"m 408 946 q 424 928 424 941 q 420 895 424 916 q 411 849 417 875 q 402 808 405 823 q 378 702 399 793 q 350 562 357 611 q 334 423 342 513 q 321 302 325 332 q 303 221 317 273 q 288 155 290 170 q 283 117 285 140 q 279 73 282 94 q 271 31 277 52 q 228 -17 260 -17 l 212 -4 q 89 766 212 222 q 77 810 87 776 q 52 908 52 902 q 58 920 52 914 q 71 926 64 926 q 87 915 79 926 q 100 883 95 903 q 110 846 106 864 q 117 809 114 827 q 126 770 121 790 q 139 714 131 751 q 154 648 147 678 q 168 577 160 618 q 180 511 176 535 q 193 440 185 487 q 203 375 200 393 q 215 304 207 356 q 224 238 222 252 q 234 167 226 225 q 244 100 243 109 q 292 366 273 194 q 347 721 311 538 q 390 939 384 903 l 408 946 m 243 96 l 241 93 l 243 90 l 243 96 m 204 750 l 204 747 l 203 747 q 204 750 203 750 z "},"w":{"ha":574,"x_min":53,"x_max":504,"o":"m 401 -46 q 378 16 378 -46 q 363 120 375 52 q 348 209 351 188 q 334 361 345 230 q 283 714 307 690 q 269 522 269 557 q 263 429 269 487 q 243 278 258 371 q 228 173 229 186 q 223 134 226 161 q 217 83 220 107 q 208 31 213 59 q 179 -29 197 -29 q 147 33 158 -29 q 129 210 136 95 q 119 349 122 326 q 104 455 117 372 q 90 571 92 537 q 85 656 87 604 q 81 739 83 707 q 53 889 75 829 q 72 900 59 900 q 90 891 84 900 q 99 868 96 883 q 102 841 101 854 q 105 785 103 815 q 135 519 106 755 q 167 157 164 283 q 174 119 171 146 q 182 82 177 92 l 183 82 q 202 215 199 184 q 213 295 206 246 q 222 371 220 344 q 229 439 225 398 q 238 591 235 503 q 249 734 241 680 q 257 806 257 787 l 282 817 q 298 811 291 817 q 306 800 306 806 q 302 786 306 793 q 380 286 366 570 q 404 126 385 178 q 433 369 422 177 q 444 635 444 560 q 453 783 444 711 q 463 880 463 854 q 457 914 463 905 q 485 936 457 936 q 500 933 496 936 q 504 907 504 930 q 497 860 504 884 l 500 851 q 488 753 488 796 q 490 705 488 709 l 482 677 l 486 668 q 482 655 482 660 q 486 625 482 650 l 482 619 q 471 400 482 569 q 456 206 460 232 q 446 151 453 180 q 439 106 439 122 q 401 -46 439 -46 m 404 121 l 404 119 l 406 119 q 404 121 406 121 z "},"x":{"ha":351,"x_min":53,"x_max":290,"o":"m 121 31 q 100 -4 121 -4 q 74 12 74 -4 q 113 229 74 80 q 151 430 151 377 q 114 657 151 484 q 64 846 77 830 l 65 856 q 59 876 65 865 q 53 892 53 886 q 62 901 53 897 q 80 905 71 905 q 95 892 88 905 q 109 822 106 872 q 143 683 126 775 q 172 554 161 591 q 195 666 181 572 q 214 836 208 760 q 229 916 220 913 q 240 918 233 916 q 252 920 248 919 l 264 903 q 241 781 241 869 l 243 764 l 241 762 q 214 610 237 721 q 191 437 191 499 q 227 252 191 414 q 269 74 262 90 q 279 50 275 59 q 290 22 290 33 q 269 3 290 3 q 252 7 260 3 q 226 112 243 40 q 174 345 189 262 q 143 199 158 321 q 118 47 128 77 q 121 31 121 42 m 265 436 l 265 435 l 265 436 z "},"y":{"ha":380,"x_min":52,"x_max":321,"o":"m 237 300 l 239 79 q 210 -21 239 -21 q 198 -16 205 -21 q 189 -5 191 -10 q 203 237 203 28 q 198 353 203 278 q 192 452 193 429 l 183 469 l 187 486 q 122 662 170 527 q 52 886 53 855 l 71 901 q 111 813 84 899 q 164 640 138 726 q 201 550 191 553 l 207 575 l 204 582 q 231 681 214 594 q 267 845 248 767 q 303 922 286 922 q 321 907 321 922 q 306 840 321 892 q 278 744 291 787 q 259 677 265 701 q 244 617 252 653 q 228 490 228 549 q 235 467 235 473 l 227 427 l 237 300 z "},"z":{"ha":365,"x_min":57,"x_max":301,"o":"m 210 8 l 127 12 q 97 5 112 12 q 78 -3 83 -3 q 57 18 57 -3 q 73 100 57 42 q 130 325 113 245 q 155 442 146 404 q 195 575 165 480 q 262 884 262 786 l 132 875 q 118 882 124 875 q 113 897 113 889 q 267 920 113 920 q 301 897 301 920 q 267 745 301 850 q 233 621 233 640 q 191 467 226 583 q 103 43 104 178 q 143 40 117 40 l 201 45 q 241 26 241 45 q 210 8 241 8 z "},"{":{"ha":472,"x_min":25,"x_max":203,"o":"m 61 127 l 65 273 l 71 437 q 31 501 71 498 q 25 514 25 503 q 36 526 25 524 q 71 591 71 526 l 61 885 q 85 1005 61 963 q 150 1047 110 1047 q 184 1040 165 1047 q 203 1023 203 1032 q 180 1008 203 1008 l 153 1014 q 103 879 103 1014 l 103 708 l 107 602 q 100 547 107 568 q 71 514 93 526 q 100 482 93 503 q 107 428 107 461 l 103 285 l 103 134 q 153 -1 103 -1 q 198 -7 193 -1 q 203 -20 203 -13 q 156 -35 203 -35 q 85 7 110 -35 q 61 127 61 50 z "},"|":{"ha":349,"x_min":86,"x_max":161,"o":"m 131 1 l 126 -46 q 109 -60 126 -60 q 89 -58 91 -60 q 86 -21 86 -56 q 95 135 86 13 q 103 346 103 258 q 114 662 103 433 q 125 954 125 891 q 125 1020 125 1016 q 127 1032 125 1025 q 131 1043 128 1039 q 153 1053 138 1053 q 161 1038 161 1053 q 148 645 161 909 q 135 240 135 382 q 131 35 135 98 l 131 1 z "},"}":{"ha":472,"x_min":25,"x_max":203,"o":"m 167 885 l 163 739 l 157 575 q 197 511 157 515 q 203 499 203 509 q 192 486 203 488 q 157 421 157 486 l 167 127 q 142 7 167 50 q 78 -35 118 -35 q 43 -29 61 -35 q 25 -16 25 -24 q 47 0 25 0 l 75 -1 q 125 134 125 -1 l 125 304 l 121 411 q 127 466 121 445 q 157 498 134 486 q 127 530 134 510 q 121 585 121 551 l 125 728 l 125 879 q 75 1014 125 1014 l 54 1014 q 25 1028 25 1014 q 43 1042 25 1036 q 78 1047 61 1047 q 142 1005 118 1047 q 167 885 167 963 z "},"~":{"ha":443,"x_min":75,"x_max":368,"o":"m 330 779 l 322 806 q 339 814 326 814 q 360 799 353 814 q 368 761 368 784 q 346 715 368 737 q 296 693 323 693 q 244 708 269 693 q 206 735 219 722 q 171 775 193 749 l 161 779 l 136 779 q 122 762 134 771 q 110 745 110 753 q 117 713 110 736 l 102 692 q 84 699 93 692 q 75 715 75 707 q 97 786 75 758 q 160 814 119 814 q 215 783 205 791 q 242 746 225 763 q 272 729 259 729 q 289 730 285 729 l 298 728 q 312 743 302 737 q 330 779 330 754 z "},"":{"ha":223,"x_min":60,"x_max":153,"o":"m 60 1006 q 100 1043 77 1041 q 109 1050 106 1044 q 143 1014 143 1048 q 133 977 143 992 q 105 962 122 962 q 74 977 88 962 q 60 1006 60 992 m 102 237 l 98 475 l 98 808 q 100 814 98 808 l 118 814 l 114 807 q 125 725 125 781 l 123 664 q 138 332 123 553 q 153 0 153 111 q 137 -18 153 -18 q 106 -6 121 -18 q 92 20 92 5 l 102 237 z "},"":{"ha":441,"x_min":64,"x_max":389,"o":"m 248 150 l 252 18 q 246 8 252 10 q 235 9 240 6 q 229 17 229 13 l 227 16 q 224 138 224 93 l 224 224 q 126 273 145 256 q 82 347 88 309 q 64 571 64 429 q 175 843 64 783 l 168 929 q 186 974 168 974 l 195 968 q 193 923 193 956 q 200 840 193 891 q 229 831 205 838 q 272 817 253 823 q 307 798 291 810 q 323 774 323 785 q 311 751 323 751 q 288 768 299 751 q 273 789 277 785 q 253 798 269 793 q 231 810 236 803 l 205 810 l 204 812 q 225 552 204 724 q 245 292 245 380 l 244 272 q 256 250 244 260 q 342 289 309 250 q 374 332 355 304 q 389 306 389 332 q 340 250 389 279 q 261 221 292 221 l 249 221 l 248 150 m 110 663 q 98 534 98 568 q 208 269 98 269 l 214 272 q 192 590 214 373 q 170 787 183 736 q 125 729 143 783 q 110 663 107 674 z "},"":{"ha":513,"x_min":56,"x_max":463,"o":"m 397 33 l 334 37 l 329 35 q 231 58 303 50 l 207 61 q 143 52 169 61 q 77 18 118 43 q 56 34 56 22 q 71 57 56 45 q 108 78 85 68 q 136 92 131 88 q 173 161 161 110 q 184 261 184 212 q 172 367 184 310 q 138 496 160 424 q 109 603 117 568 l 102 602 q 88 607 94 602 q 82 621 82 612 q 100 640 82 640 l 83 838 q 95 960 83 895 q 165 1089 118 1089 l 210 1089 q 273 1035 239 1089 q 307 949 307 981 l 294 935 q 270 949 277 935 q 262 966 264 964 l 262 991 q 253 1016 260 995 q 235 1038 247 1038 q 192 1059 214 1059 l 180 1054 l 170 1044 q 133 971 149 1044 q 118 860 118 897 l 118 803 q 126 744 125 785 q 129 673 127 703 q 140 644 131 644 q 213 653 165 644 q 278 663 262 663 q 306 644 306 663 q 289 623 306 623 q 140 610 207 623 q 148 582 144 600 q 151 561 151 564 q 157 543 152 557 q 163 524 163 529 q 191 396 163 486 q 218 266 218 306 q 214 203 218 226 q 196 144 209 180 q 180 97 184 109 q 281 82 214 97 q 382 66 348 66 q 443 78 416 66 l 463 64 q 397 33 463 33 z "},"":{"ha":589,"x_min":61,"x_max":521,"o":"m 260 857 q 410 807 336 857 q 433 832 418 808 q 464 878 447 855 q 497 901 481 901 l 517 880 q 484 830 515 869 q 453 780 453 791 q 484 675 453 769 q 514 524 514 581 q 480 332 514 447 q 468 270 468 290 q 481 229 468 249 q 508 193 494 208 q 521 168 521 177 q 503 149 521 149 q 465 175 465 149 q 436 227 439 222 q 271 157 373 157 q 205 175 238 157 q 149 221 172 194 q 133 204 140 221 q 89 154 109 154 q 67 163 73 154 q 61 189 61 172 q 90 223 61 192 q 122 268 118 254 q 98 377 98 307 q 102 507 98 447 q 117 637 105 566 q 149 729 130 709 q 115 779 149 744 q 82 822 82 814 q 98 838 82 838 q 126 827 114 838 q 151 798 139 816 q 171 774 163 780 q 197 800 176 778 q 260 857 251 857 m 212 729 q 193 700 212 699 q 180 694 184 700 q 156 592 168 677 q 143 485 143 507 q 146 447 143 463 q 142 393 142 430 q 178 279 142 312 q 213 213 178 235 q 289 192 248 192 q 358 209 330 192 q 404 256 386 227 q 434 320 421 286 q 453 395 447 355 q 465 521 465 468 q 451 651 465 574 q 415 742 437 728 q 396 751 403 742 q 389 774 389 761 q 346 805 374 793 q 294 817 317 817 q 237 788 271 817 q 200 742 202 760 l 212 729 z "},"":{"ha":639,"x_min":50,"x_max":582,"o":"m 346 97 l 347 61 q 315 11 347 11 q 288 28 288 11 q 299 112 292 36 q 306 208 306 189 l 317 525 q 314 541 317 532 q 140 533 248 541 q 117 559 127 541 l 122 578 q 321 583 232 578 q 323 647 323 604 q 309 665 323 665 l 208 660 q 131 685 131 660 l 140 700 l 249 699 q 323 708 315 699 l 323 734 q 256 837 307 744 q 144 1033 204 930 q 50 1164 84 1136 l 50 1185 q 72 1190 66 1190 q 92 1176 77 1190 q 125 1137 107 1161 q 157 1091 142 1113 q 188 1044 172 1069 q 207 1015 203 1020 q 235 963 208 1003 q 264 919 262 923 q 276 897 266 916 q 293 865 286 879 q 312 833 301 851 q 345 794 334 795 q 371 861 359 824 q 394 940 382 899 q 419 1021 407 982 q 445 1104 431 1060 q 487 1213 475 1198 q 509 1227 498 1227 q 534 1207 534 1227 q 471 1019 507 1143 q 416 844 435 895 q 395 774 416 819 q 372 710 373 730 q 407 701 390 701 l 557 708 q 582 679 564 708 q 479 661 581 661 l 372 661 l 370 586 l 524 586 l 550 587 q 579 557 579 587 q 570 543 579 549 q 554 536 562 536 l 549 536 l 551 538 q 526 543 531 543 l 372 543 l 367 541 q 356 319 367 467 q 346 97 346 172 z "},"":{"ha":349,"x_min":98,"x_max":161,"o":"m 161 1038 l 154 823 q 150 676 154 717 l 150 643 l 146 596 q 133 582 146 582 q 118 584 121 582 q 115 593 115 586 l 125 1008 q 129 1040 125 1034 q 153 1053 138 1053 q 161 1038 161 1053 m 144 410 l 138 182 q 134 62 138 95 l 134 29 l 129 -18 q 124 -31 129 -31 q 112 -32 120 -32 q 101 -30 103 -32 q 98 -21 98 -28 l 106 250 l 109 380 q 118 419 109 414 q 134 425 127 425 q 142 425 140 425 q 144 410 144 423 z "},"":{"ha":332,"x_min":50,"x_max":264,"o":"m 205 885 l 176 893 q 138 876 155 893 q 114 833 122 859 q 97 734 97 783 q 120 644 97 686 q 172 561 142 602 q 220 495 202 519 q 264 365 264 437 q 232 240 264 292 q 253 160 253 195 q 247 96 253 126 q 228 34 240 65 q 193 -18 216 3 q 149 -39 171 -39 q 109 -27 127 -39 q 90 0 90 -15 q 109 11 90 11 l 138 3 q 212 93 193 3 q 216 148 216 113 q 194 226 216 182 q 142 316 172 270 q 94 388 111 362 q 50 528 50 452 q 81 652 50 604 q 61 733 61 696 q 67 800 61 770 q 86 862 74 831 q 121 914 98 893 q 165 935 143 935 q 205 923 186 935 q 224 896 224 911 q 205 885 224 885 m 210 265 q 228 349 228 308 q 214 426 228 389 q 185 488 201 463 q 142 549 169 512 q 103 608 116 587 q 86 523 86 567 q 99 443 86 479 q 128 383 113 406 q 170 322 143 359 q 210 265 197 286 z "},"":{"ha":526,"x_min":75,"x_max":452,"o":"m 415 664 q 396 674 404 664 q 387 695 387 684 q 398 718 387 707 q 420 729 408 729 q 442 718 433 729 q 452 696 452 707 q 415 664 452 664 m 136 682 q 109 728 136 728 q 86 716 96 728 q 75 693 75 705 q 83 670 75 682 q 102 659 90 659 q 125 665 114 659 q 136 682 136 671 z "},"":{"ha":785,"x_min":66,"x_max":722,"o":"m 81 341 q 73 478 79 366 q 66 630 66 590 q 69 716 66 671 q 79 821 71 762 q 99 933 87 881 q 134 1038 112 986 q 184 1128 156 1090 q 350 1213 250 1213 q 534 1135 459 1213 q 648 947 609 1057 q 703 741 690 826 q 722 513 722 605 q 383 1 722 1 q 136 117 203 1 q 81 341 93 189 m 661 322 l 676 399 l 676 606 q 664 696 676 637 q 650 762 651 755 q 456 1137 606 1034 q 442 1147 449 1144 q 429 1156 435 1151 q 419 1162 422 1160 q 409 1167 416 1164 q 399 1172 403 1171 q 389 1175 395 1173 q 367 1178 378 1178 q 144 918 204 1178 q 115 637 115 793 q 121 505 115 582 q 128 392 126 429 q 132 330 130 355 q 141 259 134 304 q 157 189 148 215 q 184 131 166 163 q 225 81 201 98 q 358 39 283 39 q 484 58 433 39 q 570 115 535 77 q 663 315 632 186 q 661 322 661 318 m 437 995 q 447 991 437 995 q 496 936 457 988 q 534 865 534 884 q 517 846 534 846 q 467 901 492 846 q 438 940 458 922 q 391 957 419 957 q 341 937 363 957 q 307 890 319 918 q 286 821 294 862 q 274 748 277 780 q 269 676 271 715 q 264 623 266 636 l 267 616 q 261 576 261 598 l 261 547 q 276 340 261 389 q 309 269 292 292 l 309 265 q 334 238 325 247 q 362 220 342 230 q 407 210 382 210 q 454 221 431 210 q 488 247 476 233 q 528 283 518 283 q 549 253 549 283 q 497 196 549 222 q 420 170 446 170 q 376 174 393 170 q 349 182 359 178 q 319 197 338 186 q 290 211 300 207 q 221 369 235 280 q 211 503 211 437 l 211 586 q 221 751 211 680 q 240 849 232 821 q 262 907 249 876 q 293 958 276 939 q 387 1002 334 1002 q 437 995 417 1002 z "},"":{"ha":469,"x_min":71,"x_max":385,"o":"m 248 554 l 211 553 q 168 561 201 557 q 132 442 168 561 q 101 345 108 351 q 82 348 94 338 q 71 366 71 357 q 196 821 98 411 q 213 926 206 914 l 232 925 q 257 933 249 925 q 274 927 266 933 q 282 912 282 922 l 373 452 q 385 366 385 391 q 374 335 385 341 q 339 343 345 335 q 332 369 332 351 q 330 413 332 387 q 325 455 328 439 q 317 504 323 471 q 310 547 311 538 q 248 554 283 554 m 178 605 l 229 594 q 296 585 286 589 l 310 585 l 243 869 q 178 605 205 700 m 378 267 q 288 258 378 262 q 163 254 198 254 q 119 261 129 254 q 110 278 110 267 q 201 287 110 283 q 347 290 292 290 q 368 283 358 290 q 378 267 378 276 z "},"":{"ha":503,"x_min":56,"x_max":449,"o":"m 342 -6 q 342 -10 342 -6 q 331 -19 342 -14 q 315 -24 321 -24 q 300 -15 309 -24 q 283 11 292 -5 q 267 39 273 26 q 252 68 260 52 q 235 101 243 85 q 201 166 227 116 q 140 286 176 216 q 56 468 56 454 q 95 579 56 481 q 179 789 134 677 q 232 921 224 901 l 232 922 q 271 994 259 994 q 298 975 296 994 q 259 896 278 945 q 223 801 241 846 q 156 619 205 755 q 98 469 107 482 q 282 106 102 419 q 342 -6 342 1 m 261 991 l 260 991 l 261 991 m 429 0 l 411 3 l 408 3 q 361 92 387 35 q 329 164 336 149 l 260 309 q 245 338 256 316 q 229 372 234 360 q 199 419 225 385 q 174 472 174 453 q 206 568 174 490 q 278 733 239 645 q 321 835 317 821 q 333 873 326 850 q 345 913 339 896 q 378 964 360 961 l 396 950 q 301 705 384 869 q 222 475 222 547 q 318 268 222 463 q 436 36 414 73 l 449 26 q 441 9 448 19 q 429 0 435 0 z "},"":{"ha":337,"x_min":-4,"x_max":304,"o":"m 304 519 l 298 475 q 299 372 298 395 q 282 338 300 338 q 267 345 275 338 q 258 358 258 351 q 254 493 258 358 q 248 500 254 498 q 220 501 242 501 l 197 501 l 111 497 l 1 497 q 1 500 2 497 q -4 522 -4 514 q 5 530 -4 530 l 97 536 l 227 541 q 272 543 258 541 q 304 519 304 539 z "},"":{"ha":420,"x_min":77,"x_max":345,"o":"m 345 501 q 255 493 345 496 q 130 489 165 489 q 86 495 96 489 q 77 513 77 502 q 168 521 77 517 q 314 525 258 525 q 334 518 324 525 q 345 501 345 511 z "},"":{"ha":787,"x_min":69,"x_max":722,"o":"m 69 485 q 71 668 69 485 q 411 1299 71 1299 q 521 1263 466 1299 q 611 1177 576 1227 q 638 1145 633 1171 q 657 1107 644 1119 q 683 932 657 1077 q 722 624 722 711 l 722 579 q 712 290 722 361 q 691 161 702 218 q 617 -7 669 46 q 520 -86 566 -60 q 418 -113 475 -113 q 317 -100 361 -113 q 240 -65 273 -87 q 181 -11 207 -44 q 137 56 155 22 q 106 136 119 91 q 86 222 94 182 q 75 312 79 262 q 69 485 69 387 m 117 707 l 126 418 q 263 -31 126 44 q 302 -57 294 -48 q 349 -66 326 -66 l 361 -72 q 616 84 537 -72 q 676 479 676 204 q 593 1120 676 878 l 603 1131 q 564 1174 589 1164 q 522 1215 538 1200 q 420 1258 473 1258 q 322 1238 367 1258 q 246 1184 277 1217 q 191 1103 215 1150 q 154 1007 168 1055 q 132 902 140 958 q 117 707 117 805 m 315 619 q 311 520 311 566 q 327 342 311 473 q 342 169 342 210 q 337 121 342 128 q 319 114 333 114 q 296 121 306 114 q 286 142 286 129 q 283 300 286 261 q 271 386 279 338 q 262 458 262 433 l 262 729 q 254 856 262 772 q 245 981 245 941 q 253 1042 245 1021 q 278 1076 260 1064 q 357 1093 307 1093 q 433 1083 408 1093 q 472 1055 457 1074 q 498 1016 488 1037 q 513 966 508 995 q 521 866 521 918 q 511 780 521 814 q 487 729 501 746 q 459 700 473 711 q 435 678 445 688 q 425 656 425 668 q 456 530 425 645 q 553 197 547 197 l 553 196 l 574 135 q 547 114 574 125 q 461 328 507 114 q 448 381 454 361 q 425 472 441 401 q 375 637 385 637 q 346 628 364 637 q 315 619 328 619 m 297 960 q 320 661 297 661 q 396 704 344 661 q 459 778 449 747 q 469 845 469 808 q 469 893 469 882 q 467 927 469 905 q 462 963 465 949 q 453 995 459 977 q 437 1024 446 1013 q 371 1050 415 1050 q 312 1033 326 1050 q 297 960 297 1015 z "},"":{"ha":420,"x_min":77,"x_max":345,"o":"m 334 503 q 339 499 334 503 q 344 486 345 496 q 256 476 343 476 q 173 476 203 476 q 127 477 142 476 q 106 479 113 477 q 91 483 99 480 q 77 498 77 487 q 165 510 78 510 l 244 510 q 334 503 324 510 z "},"":{"ha":589,"x_min":174,"x_max":415,"o":"m 240 879 q 230 867 240 879 q 213 823 221 854 q 204 764 204 791 q 229 708 204 736 q 286 681 253 681 q 340 693 319 681 q 370 724 361 705 q 389 801 389 760 q 360 872 389 841 q 283 903 332 903 q 240 879 258 903 m 286 654 q 207 694 241 654 q 174 769 174 734 q 184 840 174 804 q 219 905 194 876 q 290 935 244 935 q 376 897 336 935 q 415 807 415 860 q 286 654 415 654 z "},"":{"ha":420,"x_min":68,"x_max":425,"o":"m 367 160 q 276 151 367 155 q 151 147 185 147 q 108 154 117 147 q 98 171 98 160 q 190 179 98 176 q 313 183 281 183 q 367 160 367 183 m 272 264 q 243 241 272 241 q 224 248 235 241 q 214 261 214 254 l 214 304 l 216 376 q 197 420 216 417 q 170 422 187 422 q 109 415 170 422 q 68 444 68 415 q 83 464 68 464 l 157 460 q 214 471 214 460 l 207 610 q 213 633 207 626 q 235 640 218 640 q 260 616 260 640 l 254 603 l 260 493 q 269 467 260 473 q 298 460 278 460 l 382 464 q 425 440 425 464 q 401 416 425 416 l 317 421 q 269 414 273 421 q 260 374 260 399 q 266 316 260 350 q 272 264 272 282 z "},"":{"ha":387,"x_min":53,"x_max":321,"o":"m 290 1 l 87 -11 q 63 -3 74 -11 q 53 17 53 4 q 100 112 77 47 q 127 186 123 176 q 247 517 207 359 q 286 847 286 674 q 200 1047 286 1047 q 170 1018 181 1039 q 156 978 159 998 q 132 926 151 926 q 114 951 114 926 q 121 1003 114 977 q 146 1053 129 1030 q 187 1075 164 1075 q 281 1031 245 1075 q 319 926 317 987 l 317 924 l 321 822 q 290 545 321 709 q 215 285 258 382 q 180 211 212 277 q 104 28 106 58 l 115 26 q 282 41 163 35 l 302 20 l 290 1 z "},"":{"ha":399,"x_min":52,"x_max":346,"o":"m 214 572 l 200 571 q 174 576 184 571 l 174 582 l 167 589 q 181 610 168 593 q 212 646 195 626 q 242 699 229 666 q 256 761 256 732 q 254 814 256 789 q 248 877 253 839 q 234 942 243 914 q 208 990 225 970 q 167 1011 190 1011 q 129 999 144 1011 q 108 971 113 986 q 75 932 93 932 q 60 938 67 932 q 52 951 52 943 q 100 1020 73 996 q 158 1044 127 1044 q 233 1011 208 1044 l 237 1010 q 293 747 293 929 q 268 669 293 713 q 245 637 262 665 q 222 603 229 610 q 298 519 277 581 q 322 418 313 475 q 337 335 331 362 q 346 260 346 296 q 345 207 346 224 q 342 161 345 189 q 334 113 339 133 q 320 70 330 92 q 298 33 311 47 q 229 -1 268 -1 q 161 12 191 -1 q 132 50 132 26 l 143 57 q 178 42 160 56 q 203 25 197 28 q 309 201 309 25 q 287 437 309 359 q 214 572 264 519 z "},"":{"ha":337,"x_min":66,"x_max":269,"o":"m 92 888 q 66 908 66 888 q 149 980 66 916 q 239 1050 231 1043 q 269 1028 269 1050 q 265 1007 269 1027 q 92 888 195 976 z "},"":{"ha":504,"x_min":57,"x_max":429,"o":"m 425 289 l 427 201 q 396 28 427 84 q 359 -11 383 5 q 301 -26 334 -26 q 146 107 193 -26 l 146 31 q 149 9 149 24 l 147 -21 l 160 -146 q 150 -162 160 -157 q 130 -168 140 -168 q 114 -161 120 -168 q 107 -144 107 -153 l 106 -123 l 104 -40 l 102 98 l 94 340 q 80 659 94 444 q 66 982 66 873 l 57 1011 q 64 1030 57 1021 q 81 1039 71 1039 q 115 937 115 1039 l 127 468 q 134 435 133 461 q 147 311 141 338 q 144 276 144 295 q 158 212 144 257 q 192 124 171 168 q 245 50 214 81 q 302 18 277 18 q 340 24 328 18 q 359 36 352 29 q 370 57 366 42 q 376 80 374 72 q 378 107 377 87 q 379 132 380 127 q 379 144 379 136 l 383 191 l 383 349 l 374 432 l 366 681 l 366 699 l 359 707 q 366 786 366 746 l 353 1022 q 362 1039 353 1033 q 383 1044 372 1044 l 407 1022 l 403 1011 l 407 1000 l 397 917 l 411 667 l 418 425 l 422 424 q 421 395 421 414 l 425 297 l 429 293 l 425 289 z "},"":{"ha":635,"x_min":58,"x_max":585,"o":"m 532 179 l 541 24 q 533 8 541 14 q 517 1 526 1 q 482 69 482 1 l 494 798 l 485 1100 l 486 1145 q 473 1197 486 1179 q 422 1215 460 1215 q 407 1140 407 1215 q 416 904 407 1065 q 425 679 425 744 q 424 556 425 614 q 421 459 422 499 q 416 348 420 419 q 411 251 413 277 q 399 39 401 96 q 401 28 401 33 q 392 16 401 22 q 375 9 383 9 q 349 37 349 9 q 363 345 349 140 q 378 653 378 551 l 375 760 l 258 760 q 209 777 239 768 q 160 792 178 785 q 122 810 142 798 q 66 899 83 834 q 64 919 65 903 q 58 942 63 935 q 100 1126 58 1048 q 163 1192 125 1171 q 217 1212 181 1202 q 267 1227 253 1221 q 301 1236 281 1233 q 348 1239 322 1238 q 386 1242 373 1240 q 419 1255 393 1255 l 473 1244 q 505 1247 494 1244 q 533 1236 513 1238 q 569 1229 553 1233 q 585 1214 585 1225 q 557 1194 585 1194 q 530 1197 547 1194 l 541 774 l 532 179 m 363 1150 l 364 1189 q 282 1202 351 1202 q 158 1134 214 1202 q 102 998 102 1066 q 118 891 102 929 q 168 831 135 852 q 335 794 227 794 q 368 800 361 794 q 375 822 375 806 l 363 1150 z "},"":{"ha":222,"x_min":77,"x_max":146,"o":"m 107 472 q 86 483 95 472 q 77 506 77 493 q 88 531 77 519 q 112 543 99 543 q 135 531 125 543 q 146 507 146 519 q 107 472 146 472 z "},"":{"ha":317,"x_min":77,"x_max":241,"o":"m 170 -129 l 132 -134 q 94 -106 111 -134 q 106 -26 106 -79 l 106 -11 l 146 -5 q 140 -75 140 -37 q 241 -215 241 -82 q 210 -286 241 -248 q 136 -325 178 -325 q 97 -315 117 -325 q 77 -289 77 -305 q 92 -273 77 -273 q 114 -280 100 -273 q 140 -288 127 -288 q 168 -268 153 -288 q 183 -231 183 -248 l 179 -211 q 185 -203 179 -207 q 192 -199 191 -199 q 186 -150 192 -163 q 170 -129 181 -138 z "},"":{"ha":411,"x_min":54,"x_max":357,"o":"m 326 9 l 155 4 q 140 10 146 4 q 134 25 134 16 l 140 39 l 178 37 q 205 46 197 37 q 212 75 212 55 q 203 394 212 250 q 172 871 193 557 l 174 918 q 161 982 174 959 q 110 1006 148 1006 l 78 1003 q 54 1018 54 1003 q 176 1038 54 1038 q 192 1031 186 1038 q 199 1015 199 1024 l 201 1015 q 197 962 197 995 q 208 842 197 929 q 218 693 218 754 q 230 477 218 632 q 241 280 241 322 q 239 227 241 237 q 248 69 248 191 l 245 49 l 252 45 l 314 49 q 357 29 357 49 q 326 9 357 9 z "},"":{"ha":494,"x_min":92,"x_max":412,"o":"m 412 560 q 311 382 412 450 q 256 365 287 365 q 92 602 92 365 q 94 653 92 623 q 121 827 96 684 q 165 891 128 869 q 222 904 186 904 q 300 897 257 904 q 353 843 328 892 q 412 560 408 755 m 137 647 q 250 406 140 406 q 369 571 369 406 q 326 821 369 777 q 234 878 269 878 q 137 647 149 878 m 374 304 q 284 296 374 300 q 160 292 195 292 q 116 299 125 292 q 106 316 106 305 q 197 325 106 321 q 344 328 288 328 q 364 321 354 328 q 374 304 374 314 z "},"":{"ha":503,"x_min":54,"x_max":447,"o":"m 94 3 q 74 0 94 3 q 62 9 68 0 q 54 26 56 19 l 66 36 q 186 272 91 80 q 281 475 281 463 q 202 705 281 547 q 107 950 119 869 l 125 964 q 159 913 144 960 q 170 873 163 897 q 181 835 176 850 q 225 733 186 821 q 329 477 329 500 q 303 419 329 454 q 273 372 278 385 q 257 337 269 359 q 243 309 245 315 l 123 61 q 94 3 98 9 m 241 991 l 243 991 l 241 991 m 323 789 q 346 733 323 789 q 408 579 369 677 q 447 473 447 481 q 422 410 447 464 q 362 286 398 357 q 285 134 311 184 q 251 68 259 85 q 236 39 243 52 q 220 10 229 26 q 189 -24 200 -24 q 172 -19 182 -24 q 161 -6 161 -14 q 221 106 161 1 q 404 469 401 420 q 346 619 395 482 q 279 801 297 755 q 252 871 262 846 q 237 909 243 897 q 204 975 219 953 q 232 994 206 994 q 271 922 243 994 l 271 921 q 323 789 278 901 z "},"":{"ha":1147,"x_min":54,"x_max":1099,"o":"m 326 9 l 155 4 q 140 10 146 4 q 134 25 134 16 l 140 39 l 178 37 q 205 46 197 37 q 212 75 212 55 q 203 394 212 250 q 172 871 193 557 l 174 918 q 161 982 174 959 q 110 1006 148 1006 l 78 1003 q 54 1018 54 1003 q 176 1038 54 1038 q 192 1031 186 1038 q 199 1015 199 1024 l 201 1015 q 197 962 197 995 q 208 842 197 929 q 218 693 218 754 q 230 477 218 632 q 241 280 241 322 q 239 227 241 237 q 248 69 248 191 l 245 49 l 252 45 l 314 49 q 357 29 357 49 q 326 9 357 9 m 736 1021 q 722 953 736 1009 q 700 857 709 897 q 551 203 691 817 l 524 82 q 519 63 522 77 q 515 39 517 48 q 509 20 513 31 q 484 -4 500 -3 q 469 28 469 5 q 476 89 469 51 q 499 185 484 127 q 562 457 514 243 q 651 827 610 671 q 694 991 692 983 q 698 1006 696 998 q 703 1021 701 1013 q 715 1039 709 1039 q 736 1021 736 1039 m 1099 385 q 1059 368 1099 364 q 1033 362 1045 369 q 1021 328 1021 355 q 1025 208 1021 301 q 1034 103 1029 114 q 1032 76 1032 98 q 1038 46 1032 55 l 1034 29 l 1038 20 l 1038 0 l 1015 -17 l 994 -8 l 994 41 l 993 45 q 999 94 999 70 l 989 236 l 991 298 q 978 359 991 353 l 896 351 q 870 358 878 351 q 859 367 862 364 l 859 371 q 865 415 859 381 l 852 443 l 865 511 l 879 783 l 879 1004 l 873 1039 q 895 1057 873 1057 q 916 1038 916 1057 l 909 926 q 914 879 909 906 l 911 875 q 914 811 914 844 q 906 661 914 778 q 897 486 897 545 l 907 446 l 897 408 q 910 382 897 382 q 948 386 924 382 q 981 395 972 390 q 976 587 981 462 q 965 749 970 711 q 960 800 960 786 q 986 822 960 822 l 999 807 l 1007 611 q 1011 485 1007 568 q 1021 395 1015 401 l 1072 400 q 1099 385 1099 400 z "},"":{"ha":1177,"x_min":54,"x_max":1111,"o":"m 326 9 l 155 4 q 140 10 146 4 q 134 25 134 16 l 140 39 l 178 37 q 205 46 197 37 q 212 75 212 55 q 203 394 212 250 q 172 871 193 557 l 174 918 q 161 982 174 959 q 110 1006 148 1006 l 78 1003 q 54 1018 54 1003 q 176 1038 54 1038 q 192 1031 186 1038 q 199 1015 199 1024 l 201 1015 q 197 962 197 995 q 208 842 197 929 q 218 693 218 754 q 230 477 218 632 q 241 280 241 322 q 239 227 241 237 q 248 69 248 191 l 245 49 l 252 45 l 314 49 q 357 29 357 49 q 326 9 357 9 m 736 1021 q 722 953 736 1009 q 700 857 709 897 q 551 203 691 817 l 524 82 q 519 63 522 77 q 515 39 517 48 q 509 20 513 31 q 484 -4 500 -3 q 469 28 469 5 q 476 89 469 51 q 499 185 484 127 q 562 457 514 243 q 651 827 610 671 q 694 991 692 983 q 698 1006 696 998 q 703 1021 701 1013 q 715 1039 709 1039 q 736 1021 736 1039 m 1080 1 l 878 -11 q 853 -3 864 -11 q 843 17 843 4 q 890 112 867 47 q 918 186 914 178 q 1037 516 998 359 q 1076 847 1076 673 q 990 1047 1076 1047 q 960 1018 971 1039 q 947 978 949 998 q 922 926 941 926 q 904 951 904 926 q 911 1003 904 977 q 937 1053 919 1030 q 978 1075 955 1075 q 1072 1031 1036 1075 q 1109 926 1107 987 l 1107 924 l 1111 822 q 1080 545 1111 708 q 1006 285 1049 382 q 970 211 1002 276 q 895 28 896 57 l 905 26 q 1072 41 954 35 l 1093 20 l 1080 1 z "},"":{"ha":1136,"x_min":52,"x_max":1088,"o":"m 214 572 l 200 571 q 174 576 184 571 l 174 582 l 167 589 q 181 610 168 593 q 212 646 195 626 q 242 699 229 666 q 256 761 256 732 q 254 814 256 789 q 248 877 253 839 q 234 942 243 914 q 208 990 225 970 q 167 1011 190 1011 q 129 999 144 1011 q 108 971 113 986 q 75 932 93 932 q 60 938 67 932 q 52 951 52 943 q 100 1020 73 996 q 158 1044 127 1044 q 233 1011 208 1044 l 237 1010 q 293 747 293 929 q 268 669 293 713 q 245 637 262 665 q 222 603 229 610 q 298 519 277 581 q 322 418 313 475 q 337 335 331 362 q 346 260 346 296 q 345 207 346 224 q 342 161 345 189 q 334 113 339 133 q 320 70 330 92 q 298 33 311 47 q 229 -1 268 -1 q 161 12 191 -1 q 132 50 132 26 l 143 57 q 178 42 160 56 q 203 25 197 28 q 309 201 309 25 q 287 437 309 359 q 214 572 264 519 m 704 1039 q 725 1021 725 1039 q 711 953 725 1009 q 689 857 698 897 q 541 203 680 817 l 513 82 q 509 63 511 77 q 504 39 506 48 q 497 19 501 31 q 472 -4 489 -3 q 458 28 458 5 q 466 89 458 51 q 488 185 473 127 q 551 457 503 243 q 641 827 600 671 q 683 991 682 983 q 687 1006 685 998 q 692 1021 689 1013 q 704 1039 698 1039 m 1088 385 q 1048 368 1088 364 q 1022 362 1034 369 q 1010 328 1010 355 q 1014 207 1010 300 q 1022 103 1017 114 q 1021 76 1021 98 q 1026 46 1021 55 l 1022 29 l 1026 20 l 1026 0 l 1004 -17 l 983 -8 l 983 41 l 982 45 q 987 94 987 67 l 978 236 l 981 298 q 966 359 981 353 l 885 351 q 859 358 867 351 q 847 367 850 364 l 847 371 q 854 415 847 378 l 842 443 l 854 511 l 868 783 l 868 1004 l 863 1039 q 883 1057 863 1057 q 904 1038 904 1057 l 899 926 q 903 879 899 902 l 900 875 q 903 836 903 850 l 886 486 l 896 446 l 886 408 q 900 382 886 382 q 937 386 913 382 q 970 395 961 390 q 964 578 970 445 q 954 749 959 711 q 949 800 949 786 q 975 822 949 822 l 987 807 l 996 611 q 1000 486 996 570 q 1010 395 1004 401 l 1061 400 q 1088 385 1088 400 z "},"":{"ha":315,"x_min":65,"x_max":250,"o":"m 240 163 q 250 84 250 111 q 246 37 250 56 q 233 1 242 18 q 162 -37 214 -37 q 96 -7 111 -37 q 65 133 65 54 q 76 274 65 212 q 100 390 86 335 q 128 507 115 444 q 153 869 160 658 q 155 869 153 868 q 170 873 162 873 q 185 857 182 873 q 159 478 185 649 q 136 377 153 444 q 102 150 102 231 q 116 36 102 77 q 151 -6 131 -6 l 167 -6 q 216 80 216 -6 q 205 163 216 99 l 222 169 q 240 163 238 170 m 170 1039 q 191 1028 182 1039 q 200 1005 200 1018 q 189 980 200 992 q 165 968 178 968 q 141 980 152 968 q 131 1004 131 992 q 170 1039 131 1039 z "},"":{"ha":472,"x_min":53,"x_max":400,"o":"m 142 1185 q 120 1182 129 1182 q 73 1210 73 1182 q 81 1240 73 1234 q 144 1225 132 1240 q 160 1219 145 1224 q 186 1210 176 1214 q 215 1199 197 1206 q 247 1185 233 1192 q 273 1173 260 1179 q 299 1146 299 1158 q 293 1138 299 1141 q 284 1135 288 1135 q 214 1158 280 1135 q 142 1185 149 1181 m 385 407 l 400 45 l 400 30 q 396 9 400 14 q 372 0 385 0 q 351 7 359 0 q 343 24 343 14 q 347 40 347 32 l 343 68 l 343 205 q 270 237 343 224 q 161 250 197 250 q 137 200 148 250 q 116 89 126 149 q 96 14 106 28 q 53 31 63 14 q 95 182 75 62 q 127 358 115 303 q 171 595 139 412 q 213 828 202 777 q 231 904 224 880 q 246 962 237 928 q 286 1042 269 1042 q 315 1032 308 1042 q 327 986 322 1022 q 337 893 332 949 q 347 791 342 838 q 362 598 359 644 q 375 532 366 552 q 372 459 372 490 q 385 407 372 429 m 157 289 q 297 269 215 269 q 322 272 314 269 l 329 269 q 342 282 342 269 q 288 908 342 572 q 284 923 287 912 q 282 940 282 934 q 264 879 265 892 l 268 871 q 252 823 263 866 q 222 645 241 780 q 194 472 203 511 q 176 403 186 434 q 157 297 157 334 l 157 289 z "},"":{"ha":472,"x_min":53,"x_max":400,"o":"m 186 1135 q 161 1156 161 1135 q 243 1227 161 1164 q 333 1297 326 1291 q 363 1276 363 1297 q 359 1255 363 1275 q 186 1135 290 1223 m 385 407 l 400 45 l 400 30 q 396 9 400 14 q 372 0 385 0 q 351 7 359 0 q 343 24 343 14 q 347 40 347 32 l 343 68 l 343 205 q 270 237 343 224 q 161 250 197 250 q 137 200 148 250 q 116 89 126 149 q 96 14 106 28 q 53 31 63 14 q 95 182 75 62 q 127 358 115 303 q 171 595 139 412 q 213 828 202 777 q 231 904 224 880 q 246 962 237 928 q 286 1042 269 1042 q 315 1032 308 1042 q 327 986 322 1022 q 337 893 332 949 q 347 791 342 838 q 362 598 359 644 q 375 532 366 552 q 372 459 372 490 q 385 407 372 429 m 157 289 q 297 269 215 269 q 322 272 314 269 l 329 269 q 342 282 342 269 q 288 908 342 572 q 284 923 287 912 q 282 940 282 934 q 264 879 265 892 l 268 871 q 252 823 263 866 q 222 645 241 780 q 194 472 203 511 q 176 403 186 434 q 157 297 157 334 l 157 289 z "},"":{"ha":472,"x_min":53,"x_max":400,"o":"m 352 1135 l 334 1146 q 294 1354 327 1230 q 256 1249 276 1310 q 235 1174 237 1187 l 212 1142 l 186 1160 q 235 1292 188 1190 q 302 1394 282 1394 q 323 1366 323 1394 q 329 1312 323 1338 q 348 1253 336 1286 q 364 1203 359 1221 l 363 1194 l 373 1174 l 372 1166 q 377 1152 377 1156 q 352 1135 377 1139 m 385 407 l 400 45 l 400 30 q 396 9 400 14 q 372 0 385 0 q 351 7 359 0 q 343 24 343 14 q 347 40 347 32 l 343 68 l 343 205 q 270 237 343 224 q 161 250 197 250 q 137 200 148 250 q 116 89 126 149 q 96 14 106 28 q 53 31 63 14 q 95 182 75 62 q 127 358 115 303 q 171 595 139 412 q 213 828 202 777 q 231 904 224 880 q 246 962 237 928 q 286 1042 269 1042 q 315 1032 308 1042 q 327 986 322 1022 q 337 893 332 949 q 347 791 342 838 q 362 598 359 644 q 375 532 366 552 q 372 459 372 490 q 385 407 372 429 m 157 289 q 297 269 215 269 q 322 272 314 269 l 329 269 q 342 282 342 269 q 288 908 342 572 q 284 923 287 912 q 282 940 282 934 q 264 879 265 892 l 268 871 q 252 823 263 866 q 222 645 241 780 q 194 472 203 511 q 176 403 186 434 q 157 297 157 334 l 157 289 z "},"":{"ha":472,"x_min":53,"x_max":427,"o":"m 389 1222 l 381 1249 q 398 1257 385 1257 q 419 1242 412 1257 q 427 1203 427 1227 q 405 1158 427 1180 q 355 1136 382 1136 q 303 1151 328 1136 q 265 1178 278 1165 q 230 1218 252 1192 l 220 1222 l 195 1222 q 181 1205 193 1214 q 169 1188 169 1196 q 176 1156 169 1179 l 161 1135 q 143 1142 152 1135 q 134 1158 134 1149 q 156 1229 134 1201 q 219 1257 178 1257 q 274 1226 264 1234 q 301 1189 284 1206 q 331 1172 318 1172 q 348 1173 344 1172 l 357 1171 q 371 1186 361 1180 q 389 1222 389 1197 m 385 407 l 400 45 l 400 30 q 396 9 400 14 q 372 0 385 0 q 351 7 359 0 q 343 24 343 14 q 347 40 347 32 l 343 68 l 343 205 q 270 237 343 224 q 161 250 197 250 q 137 200 148 250 q 116 89 126 149 q 96 14 106 28 q 53 31 63 14 q 95 182 75 62 q 127 358 115 303 q 171 595 139 412 q 213 828 202 777 q 231 904 224 880 q 246 962 237 928 q 286 1042 269 1042 q 315 1032 308 1042 q 327 986 322 1022 q 337 893 332 949 q 347 791 342 838 q 362 598 359 644 q 375 532 366 552 q 372 459 372 490 q 385 407 372 429 m 157 289 q 297 269 215 269 q 322 272 314 269 l 329 269 q 342 282 342 269 q 288 908 342 572 q 284 923 287 912 q 282 940 282 934 q 264 879 265 892 l 268 871 q 252 823 263 866 q 222 645 241 780 q 194 472 203 511 q 176 403 186 434 q 157 297 157 334 l 157 289 z "},"":{"ha":472,"x_min":53,"x_max":470,"o":"m 433 1140 q 414 1150 422 1140 q 406 1172 406 1160 q 416 1194 406 1183 q 439 1205 427 1205 q 460 1194 451 1205 q 470 1172 470 1183 q 433 1140 470 1140 m 155 1158 q 127 1204 155 1204 q 104 1193 115 1204 q 94 1170 94 1181 q 101 1146 94 1158 q 120 1135 109 1135 q 143 1141 132 1135 q 155 1158 155 1147 m 385 407 l 400 45 l 400 30 q 396 9 400 14 q 372 0 385 0 q 351 7 359 0 q 343 24 343 14 q 347 40 347 32 l 343 68 l 343 205 q 270 237 343 224 q 161 250 197 250 q 137 200 148 250 q 116 89 126 149 q 96 14 106 28 q 53 31 63 14 q 95 182 75 62 q 127 358 115 303 q 171 595 139 412 q 213 828 202 777 q 231 904 224 880 q 246 962 237 928 q 286 1042 269 1042 q 315 1032 308 1042 q 327 986 322 1022 q 337 893 332 949 q 347 791 342 838 q 362 598 359 644 q 375 532 366 552 q 372 459 372 490 q 385 407 372 429 m 157 289 q 297 269 215 269 q 322 272 314 269 l 329 269 q 342 282 342 269 q 288 908 342 572 q 284 923 287 912 q 282 940 282 934 q 264 879 265 892 l 268 871 q 252 823 263 866 q 222 645 241 780 q 194 472 203 511 q 176 403 186 434 q 157 297 157 334 l 157 289 z "},"":{"ha":472,"x_min":53,"x_max":400,"o":"m 278 1060 q 261 1060 278 1060 q 224 1083 245 1060 q 204 1135 204 1105 q 229 1192 204 1164 q 283 1219 254 1219 q 336 1193 311 1219 q 361 1133 361 1166 q 336 1080 361 1100 q 278 1060 311 1060 m 287 1193 q 277 1193 287 1193 q 252 1176 268 1193 q 236 1144 236 1159 q 238 1119 236 1129 q 247 1097 239 1108 q 269 1086 254 1086 q 304 1098 283 1086 q 325 1130 325 1109 q 315 1172 325 1150 q 287 1193 305 1193 m 385 407 l 400 45 l 400 30 q 396 9 400 14 q 372 0 385 0 q 351 7 359 0 q 343 24 343 14 q 347 40 347 32 l 343 68 l 343 205 q 270 237 343 224 q 161 250 197 250 q 137 200 148 250 q 116 89 126 149 q 96 14 106 28 q 53 31 63 14 q 95 182 75 62 q 127 358 115 303 q 171 595 139 412 q 213 828 202 777 q 231 904 224 880 q 246 962 237 928 q 286 1042 269 1042 q 315 1032 308 1042 q 327 986 322 1022 q 337 893 332 949 q 347 791 342 838 q 362 598 359 644 q 375 532 366 552 q 372 459 372 490 q 385 407 372 429 m 157 289 q 297 269 215 269 q 322 272 314 269 l 329 269 q 342 282 342 269 q 288 908 342 572 q 284 923 287 912 q 282 940 282 934 q 264 879 265 892 l 268 871 q 252 823 263 866 q 222 645 241 780 q 194 472 203 511 q 176 403 186 434 q 157 297 157 334 l 157 289 z "},"":{"ha":626,"x_min":57,"x_max":572,"o":"m 542 39 q 572 21 572 39 q 441 -5 572 -3 q 386 -8 391 -5 q 370 -19 381 -11 q 351 -28 359 -27 l 332 -8 q 343 155 343 68 l 336 421 l 329 431 q 286 427 323 429 q 186 407 189 420 l 117 142 q 108 99 117 141 q 68 1 87 1 q 60 7 63 1 q 57 18 57 14 q 130 365 58 85 q 294 945 201 645 q 327 1027 313 1007 q 358 1047 342 1047 l 465 1054 q 509 1032 509 1054 l 500 1015 q 363 1007 432 1015 l 372 800 l 368 476 l 375 468 l 485 482 l 504 458 q 424 435 504 435 q 368 435 396 435 l 374 104 l 372 47 q 385 24 372 24 l 542 39 m 332 945 q 259 707 319 930 q 196 450 199 485 q 335 467 283 453 q 338 612 336 503 q 340 799 340 722 q 332 945 340 876 z "},"":{"ha":472,"x_min":65,"x_max":414,"o":"m 308 -135 l 271 -140 q 233 -112 250 -140 q 244 -33 244 -85 l 244 -17 l 284 -12 q 279 -81 279 -43 q 380 -221 380 -88 q 348 -292 380 -254 q 275 -331 317 -331 q 235 -321 255 -331 q 215 -295 215 -311 q 230 -279 215 -279 q 252 -287 239 -279 q 279 -294 266 -294 q 307 -274 292 -294 q 321 -237 321 -254 l 317 -217 q 323 -209 317 -213 q 330 -205 330 -205 q 325 -156 330 -169 q 308 -135 319 -144 m 115 684 l 103 583 q 121 309 103 501 q 159 88 140 117 q 268 32 195 32 q 375 72 341 32 q 407 77 388 72 l 414 69 q 308 -18 414 3 q 251 -22 283 -22 q 177 9 220 -22 q 117 78 134 40 q 82 314 99 116 q 65 663 65 512 q 74 840 65 813 q 69 885 69 864 q 129 1015 69 968 q 275 1061 189 1061 q 327 1046 299 1061 q 355 1010 355 1031 q 334 994 355 994 q 317 1003 328 994 q 299 1011 306 1011 q 283 1008 292 1011 q 250 1014 267 1014 q 209 1007 233 1014 q 169 988 185 1000 q 142 958 153 977 q 125 922 131 939 q 115 878 119 905 q 111 782 111 839 l 115 684 m 273 1000 l 271 1000 l 273 1000 z "},"":{"ha":337,"x_min":-26,"x_max":283,"o":"m 44 1185 q 22 1182 31 1182 q -26 1210 -26 1182 q -17 1240 -26 1234 q 45 1225 33 1240 q 62 1219 47 1224 q 88 1210 77 1214 q 117 1199 99 1206 q 148 1185 135 1192 q 174 1173 161 1179 q 201 1146 201 1158 q 195 1138 201 1141 q 185 1135 189 1135 q 116 1158 182 1135 q 44 1185 50 1181 m 135 41 l 218 46 q 283 24 283 46 q 242 -2 272 3 q 184 -8 212 -8 l 152 -8 q 80 2 90 -8 q 71 22 71 12 l 83 74 l 83 77 q 78 138 78 104 l 85 279 l 77 576 l 83 852 q 75 927 83 878 q 65 999 66 976 l 90 1038 l 187 1050 l 192 1046 q 230 1037 224 1046 q 235 1019 235 1029 q 184 993 235 993 l 147 996 q 117 979 117 996 l 127 743 l 121 570 l 118 567 l 126 562 l 203 576 q 219 569 210 576 q 228 553 228 561 q 207 525 228 525 l 175 526 q 122 500 122 526 l 132 383 l 127 375 l 127 93 q 135 54 135 84 l 135 41 z "},"":{"ha":337,"x_min":65,"x_max":313,"o":"m 136 1135 q 111 1156 111 1135 q 193 1227 111 1164 q 283 1297 275 1291 q 313 1276 313 1297 q 309 1255 313 1275 q 136 1135 239 1223 m 135 41 l 218 46 q 283 24 283 46 q 242 -2 272 3 q 184 -8 212 -8 l 152 -8 q 80 2 90 -8 q 71 22 71 12 l 83 74 l 83 77 q 78 138 78 104 l 85 279 l 77 576 l 83 852 q 75 927 83 878 q 65 999 66 976 l 90 1038 l 187 1050 l 192 1046 q 230 1037 224 1046 q 235 1019 235 1029 q 184 993 235 993 l 147 996 q 117 979 117 996 l 127 743 l 121 570 l 118 567 l 126 562 l 203 576 q 219 569 210 576 q 228 553 228 561 q 207 525 228 525 l 175 526 q 122 500 122 526 l 132 383 l 127 375 l 127 93 q 135 54 135 84 l 135 41 z "},"":{"ha":337,"x_min":40,"x_max":283,"o":"m 205 1135 l 187 1146 q 147 1354 180 1230 q 110 1249 130 1310 q 89 1174 90 1187 l 65 1142 l 40 1160 q 89 1292 41 1190 q 156 1394 136 1394 q 176 1366 176 1394 q 183 1312 176 1338 q 201 1253 189 1286 q 218 1203 213 1221 l 216 1194 l 227 1174 l 225 1166 q 231 1152 231 1156 q 205 1135 231 1139 m 135 41 l 218 46 q 283 24 283 46 q 242 -2 272 3 q 184 -8 212 -8 l 152 -8 q 80 2 90 -8 q 71 22 71 12 l 83 74 l 83 77 q 78 138 78 104 l 85 279 l 77 576 l 83 852 q 75 927 83 878 q 65 999 66 976 l 90 1038 l 187 1050 l 192 1046 q 230 1037 224 1046 q 235 1019 235 1029 q 184 993 235 993 l 147 996 q 117 979 117 996 l 127 743 l 121 570 l 118 567 l 126 562 l 203 576 q 219 569 210 576 q 228 553 228 561 q 207 525 228 525 l 175 526 q 122 500 122 526 l 132 383 l 127 375 l 127 93 q 135 54 135 84 l 135 41 z "},"":{"ha":337,"x_min":-54,"x_max":323,"o":"m 286 1140 q 267 1150 275 1140 q 258 1172 258 1160 q 269 1194 258 1183 q 292 1205 279 1205 q 313 1194 304 1205 q 323 1172 323 1183 q 286 1140 323 1140 m 7 1158 q -20 1204 7 1204 q -43 1193 -33 1204 q -54 1170 -54 1181 q -46 1146 -54 1158 q -27 1135 -39 1135 q -4 1141 -15 1135 q 7 1158 7 1147 m 135 41 l 218 46 q 283 24 283 46 q 242 -2 272 3 q 184 -8 212 -8 l 152 -8 q 80 2 90 -8 q 71 22 71 12 l 83 74 l 83 77 q 78 138 78 104 l 85 279 l 77 576 l 83 852 q 75 927 83 878 q 65 999 66 976 l 90 1038 l 187 1050 l 192 1046 q 230 1037 224 1046 q 235 1019 235 1029 q 184 993 235 993 l 147 996 q 117 979 117 996 l 127 743 l 121 570 l 118 567 l 126 562 l 203 576 q 219 569 210 576 q 228 553 228 561 q 207 525 228 525 l 175 526 q 122 500 122 526 l 132 383 l 127 375 l 127 93 q 135 54 135 84 l 135 41 z "},"":{"ha":323,"x_min":-6,"x_max":268,"o":"m 64 1185 q 41 1182 50 1182 q -6 1210 -6 1182 q 3 1240 -6 1234 q 65 1225 53 1240 q 82 1219 66 1224 q 108 1210 97 1214 q 137 1199 119 1206 q 168 1185 155 1192 q 194 1173 181 1179 q 220 1146 220 1158 q 215 1138 220 1141 q 205 1135 209 1135 q 136 1158 201 1135 q 64 1185 70 1181 m 244 5 l 200 12 q 168 -4 184 12 q 129 7 137 -4 l 125 7 q 52 31 62 7 q 83 46 52 46 l 114 45 q 142 85 142 45 q 139 182 143 125 q 133 297 134 240 q 125 519 132 354 q 117 755 119 684 l 118 918 q 114 999 118 985 l 66 989 q 52 1008 52 989 q 113 1040 52 1027 q 195 1053 174 1053 q 232 1030 232 1053 q 215 1007 232 1007 l 182 1008 q 153 986 158 1008 q 149 878 149 968 q 166 524 149 789 q 183 125 183 258 l 182 53 l 232 57 q 268 22 268 57 l 244 5 z "},"":{"ha":323,"x_min":52,"x_max":297,"o":"m 119 1135 q 94 1156 94 1135 q 177 1227 94 1164 q 267 1297 259 1291 q 297 1276 297 1297 q 293 1255 297 1275 q 119 1135 223 1223 m 244 5 l 200 12 q 168 -4 184 12 q 129 7 137 -4 l 125 7 q 52 31 62 7 q 83 46 52 46 l 114 45 q 142 85 142 45 q 139 182 143 125 q 133 297 134 240 q 125 519 132 354 q 117 755 119 684 l 118 918 q 114 999 118 985 l 66 989 q 52 1008 52 989 q 113 1040 52 1027 q 195 1053 174 1053 q 232 1030 232 1053 q 215 1007 232 1007 l 182 1008 q 153 986 158 1008 q 149 878 149 968 q 166 524 149 789 q 183 125 183 258 l 182 53 l 232 57 q 268 22 268 57 l 244 5 z "},"":{"ha":323,"x_min":23,"x_max":268,"o":"m 189 1135 l 170 1146 q 130 1354 163 1230 q 93 1249 113 1310 q 72 1174 73 1187 l 48 1142 l 23 1160 q 72 1292 24 1190 q 139 1394 119 1394 q 159 1366 159 1394 q 166 1312 159 1338 q 184 1253 172 1286 q 201 1203 196 1221 l 199 1194 l 210 1174 l 208 1166 q 214 1152 214 1156 q 189 1135 214 1139 m 244 5 l 200 12 q 168 -4 184 12 q 129 7 137 -4 l 125 7 q 52 31 62 7 q 83 46 52 46 l 114 45 q 142 85 142 45 q 139 182 143 125 q 133 297 134 240 q 125 519 132 354 q 117 755 119 684 l 118 918 q 114 999 118 985 l 66 989 q 52 1008 52 989 q 113 1040 52 1027 q 195 1053 174 1053 q 232 1030 232 1053 q 215 1007 232 1007 l 182 1008 q 153 986 158 1008 q 149 878 149 968 q 166 524 149 789 q 183 125 183 258 l 182 53 l 232 57 q 268 22 268 57 l 244 5 z "},"":{"ha":323,"x_min":-70,"x_max":307,"o":"m 270 1140 q 251 1150 259 1140 q 242 1172 242 1160 q 253 1194 242 1183 q 275 1205 263 1205 q 297 1194 288 1205 q 307 1172 307 1183 q 270 1140 307 1140 m -9 1158 q -37 1204 -9 1204 q -59 1193 -49 1204 q -70 1170 -70 1181 q -62 1146 -70 1158 q -43 1135 -55 1135 q -20 1141 -31 1135 q -9 1158 -9 1147 m 244 5 l 200 12 q 168 -4 184 12 q 129 7 137 -4 l 125 7 q 52 31 62 7 q 83 46 52 46 l 114 45 q 142 85 142 45 q 139 182 143 125 q 133 297 134 240 q 125 519 132 354 q 117 755 119 684 l 118 918 q 114 999 118 985 l 66 989 q 52 1008 52 989 q 113 1040 52 1027 q 195 1053 174 1053 q 232 1030 232 1053 q 215 1007 232 1007 l 182 1008 q 153 986 158 1008 q 149 878 149 968 q 166 524 149 789 q 183 125 183 258 l 182 53 l 232 57 q 268 22 268 57 l 244 5 z "},"":{"ha":569,"x_min":49,"x_max":497,"o":"m 135 811 l 123 1060 q 132 1077 123 1065 q 146 1089 140 1089 q 382 922 262 1089 q 432 842 410 882 l 432 839 q 497 440 497 655 q 464 249 497 349 q 365 63 430 149 q 218 -60 299 -24 q 202 -54 212 -57 q 178 -33 185 -50 l 176 -33 q 164 408 176 151 q 153 511 157 494 l 68 503 q 53 508 56 503 q 49 527 49 514 q 73 546 49 539 q 122 552 98 552 l 147 551 l 153 554 l 154 561 q 144 686 154 602 q 135 811 135 769 m 204 557 l 300 572 q 319 562 311 572 q 329 539 328 551 l 315 522 q 201 513 245 522 q 205 402 201 491 q 211 306 209 314 l 210 304 q 217 154 210 255 q 224 4 224 54 q 250 16 242 8 q 264 31 258 24 q 273 40 271 37 q 395 218 343 109 q 447 409 447 327 q 446 529 447 490 q 418 737 443 643 q 333 930 395 846 q 174 1043 271 1014 l 171 1040 q 181 764 171 953 q 204 557 191 576 z "},"":{"ha":524,"x_min":71,"x_max":449,"o":"m 349 1239 l 341 1265 q 358 1274 345 1274 q 379 1259 372 1274 q 387 1220 387 1244 q 365 1175 387 1197 q 315 1153 342 1153 q 263 1167 288 1153 q 225 1195 238 1182 q 190 1235 212 1208 l 180 1239 l 155 1239 q 141 1222 153 1231 q 129 1205 129 1213 q 136 1173 129 1196 l 121 1152 q 103 1159 112 1152 q 94 1175 94 1166 q 116 1246 94 1218 q 179 1274 138 1274 q 234 1243 224 1251 q 261 1206 244 1223 q 291 1189 278 1189 q 308 1190 304 1189 l 317 1187 q 331 1203 321 1197 q 349 1239 349 1214 m 421 75 l 425 25 q 390 -16 425 -16 q 357 37 366 -16 q 351 64 352 61 q 180 689 216 492 q 178 708 179 695 q 165 747 177 736 l 168 754 q 155 826 159 806 q 145 871 151 846 q 121 950 136 915 q 117 907 117 922 q 119 884 117 892 q 110 787 110 851 l 110 407 q 119 209 110 340 q 129 11 129 77 l 119 0 l 87 0 l 83 11 q 86 66 86 22 l 71 550 l 71 732 l 81 994 l 79 1023 q 89 1047 79 1041 q 112 1053 98 1053 q 138 1044 127 1053 q 149 1017 149 1036 q 155 977 149 999 q 172 929 161 956 q 190 880 184 902 q 202 809 197 858 q 215 724 208 761 q 239 623 222 686 q 278 484 256 560 q 307 383 300 407 q 323 321 313 359 q 346 212 345 244 q 360 157 355 198 q 383 102 366 117 q 392 168 392 121 l 397 652 l 393 867 l 397 920 q 393 937 397 935 l 397 949 q 392 1063 397 1034 q 427 1082 397 1082 q 449 1036 449 1082 q 440 990 440 1019 l 441 943 q 436 901 441 913 l 432 463 q 435 425 432 450 l 432 419 l 432 244 l 435 192 q 421 78 435 109 l 421 75 z "},"":{"ha":472,"x_min":-4,"x_max":397,"o":"m 66 1185 q 43 1182 52 1182 q -4 1210 -4 1182 q 5 1240 -4 1234 q 67 1225 55 1240 q 84 1219 68 1224 q 110 1210 99 1214 q 139 1199 121 1206 q 170 1185 157 1192 q 196 1173 183 1179 q 222 1146 222 1158 q 217 1138 222 1141 q 207 1135 211 1135 q 138 1158 203 1135 q 66 1185 72 1181 m 397 419 l 385 240 l 387 235 q 376 151 376 188 q 361 74 376 113 q 317 2 347 34 q 254 -29 288 -29 q 191 -3 220 -29 q 142 63 161 22 q 108 158 123 103 q 85 267 94 214 q 72 377 77 320 q 64 542 64 472 q 70 700 64 611 q 77 814 76 789 q 78 860 77 840 q 81 907 79 880 q 89 955 84 935 q 102 998 93 976 q 123 1034 111 1019 q 203 1065 152 1065 q 288 1038 254 1065 q 312 1004 292 1030 q 342 955 332 979 q 364 840 352 932 q 397 419 397 603 m 205 1029 q 103 618 103 1029 l 103 564 q 118 356 103 467 q 148 176 132 245 q 193 58 164 107 q 257 9 222 9 q 326 106 304 9 q 352 278 348 203 q 357 412 357 381 l 357 446 q 356 489 357 471 q 355 548 356 507 q 353 621 355 589 q 347 699 351 653 q 338 780 344 744 q 324 856 332 815 q 305 925 316 896 q 279 979 294 954 q 205 1029 250 1029 z "},"":{"ha":472,"x_min":64,"x_max":397,"o":"m 206 1135 q 181 1156 181 1135 q 263 1227 181 1164 q 353 1297 346 1291 q 384 1276 384 1297 q 380 1255 384 1275 q 206 1135 310 1223 m 397 419 l 385 240 l 387 235 q 376 151 376 188 q 361 74 376 113 q 317 2 347 34 q 254 -29 288 -29 q 191 -3 220 -29 q 142 63 161 22 q 108 158 123 103 q 85 267 94 214 q 72 377 77 320 q 64 542 64 472 q 70 700 64 611 q 77 814 76 789 q 78 860 77 840 q 81 907 79 880 q 89 955 84 935 q 102 998 93 976 q 123 1034 111 1019 q 203 1065 152 1065 q 288 1038 254 1065 q 312 1004 292 1030 q 342 955 332 979 q 364 840 352 932 q 397 419 397 603 m 205 1029 q 103 618 103 1029 l 103 564 q 118 356 103 467 q 148 176 132 245 q 193 58 164 107 q 257 9 222 9 q 326 106 304 9 q 352 278 348 203 q 357 412 357 381 l 357 446 q 356 489 357 471 q 355 548 356 507 q 353 621 355 589 q 347 699 351 653 q 338 780 344 744 q 324 856 332 815 q 305 925 316 896 q 279 979 294 954 q 205 1029 250 1029 z "},"":{"ha":472,"x_min":64,"x_max":397,"o":"m 275 1135 l 257 1146 q 217 1354 250 1230 q 180 1249 199 1310 q 159 1174 160 1187 l 135 1142 l 110 1160 q 158 1292 111 1190 q 226 1394 205 1394 q 246 1366 246 1394 q 253 1312 246 1338 q 271 1253 259 1286 q 288 1203 283 1221 l 286 1194 l 296 1174 l 295 1166 q 300 1152 300 1156 q 275 1135 300 1139 m 397 419 l 385 240 l 387 235 q 376 151 376 188 q 361 74 376 113 q 317 2 347 34 q 254 -29 288 -29 q 191 -3 220 -29 q 142 63 161 22 q 108 158 123 103 q 85 267 94 214 q 72 377 77 320 q 64 542 64 472 q 70 700 64 611 q 77 814 76 789 q 78 860 77 840 q 81 907 79 880 q 89 955 84 935 q 102 998 93 976 q 123 1034 111 1019 q 203 1065 152 1065 q 288 1038 254 1065 q 312 1004 292 1030 q 342 955 332 979 q 364 840 352 932 q 397 419 397 603 m 205 1029 q 103 618 103 1029 l 103 564 q 118 356 103 467 q 148 176 132 245 q 193 58 164 107 q 257 9 222 9 q 326 106 304 9 q 352 278 348 203 q 357 412 357 381 l 357 446 q 356 489 357 471 q 355 548 356 507 q 353 621 355 589 q 347 699 351 653 q 338 780 344 744 q 324 856 332 815 q 305 925 316 896 q 279 979 294 954 q 205 1029 250 1029 z "},"":{"ha":472,"x_min":58,"x_max":397,"o":"m 313 1222 l 305 1249 q 322 1257 309 1257 q 343 1242 336 1257 q 351 1203 351 1227 q 329 1158 351 1180 q 279 1136 307 1136 q 227 1151 252 1136 q 189 1178 202 1165 q 154 1218 176 1192 l 144 1222 l 119 1222 q 105 1205 117 1214 q 93 1188 93 1196 q 100 1156 93 1179 l 85 1135 q 67 1142 76 1135 q 58 1158 58 1149 q 80 1229 58 1201 q 143 1257 102 1257 q 198 1226 188 1234 q 225 1189 208 1206 q 255 1172 242 1172 q 272 1173 268 1172 l 281 1171 q 295 1186 285 1180 q 313 1222 313 1197 m 397 419 l 385 240 l 387 235 q 376 151 376 188 q 361 74 376 113 q 317 2 347 34 q 254 -29 288 -29 q 191 -3 220 -29 q 142 63 161 22 q 108 158 123 103 q 85 267 94 214 q 72 377 77 320 q 64 542 64 472 q 70 700 64 611 q 77 814 76 789 q 78 860 77 840 q 81 907 79 880 q 89 955 84 935 q 102 998 93 976 q 123 1034 111 1019 q 203 1065 152 1065 q 288 1038 254 1065 q 312 1004 292 1030 q 342 955 332 979 q 364 840 352 932 q 397 419 397 603 m 205 1029 q 103 618 103 1029 l 103 564 q 118 356 103 467 q 148 176 132 245 q 193 58 164 107 q 257 9 222 9 q 326 106 304 9 q 352 278 348 203 q 357 412 357 381 l 357 446 q 356 489 357 471 q 355 548 356 507 q 353 621 355 589 q 347 699 351 653 q 338 780 344 744 q 324 856 332 815 q 305 925 316 896 q 279 979 294 954 q 205 1029 250 1029 z "},"":{"ha":472,"x_min":17,"x_max":397,"o":"m 357 1140 q 337 1150 346 1140 q 329 1172 329 1160 q 339 1194 329 1183 q 362 1205 350 1205 q 384 1194 374 1205 q 393 1172 393 1183 q 357 1140 393 1140 m 78 1158 q 50 1204 78 1204 q 27 1193 38 1204 q 17 1170 17 1181 q 24 1146 17 1158 q 44 1135 32 1135 q 67 1141 56 1135 q 78 1158 78 1147 m 397 419 l 385 240 l 387 235 q 376 151 376 188 q 361 74 376 113 q 317 2 347 34 q 254 -29 288 -29 q 191 -3 220 -29 q 142 63 161 22 q 108 158 123 103 q 85 267 94 214 q 72 377 77 320 q 64 542 64 472 q 70 700 64 611 q 77 814 76 789 q 78 860 77 840 q 81 907 79 880 q 89 955 84 935 q 102 998 93 976 q 123 1034 111 1019 q 203 1065 152 1065 q 288 1038 254 1065 q 312 1004 292 1030 q 342 955 332 979 q 364 840 352 932 q 397 419 397 603 m 205 1029 q 103 618 103 1029 l 103 564 q 118 356 103 467 q 148 176 132 245 q 193 58 164 107 q 257 9 222 9 q 326 106 304 9 q 352 278 348 203 q 357 412 357 381 l 357 446 q 356 489 357 471 q 355 548 356 507 q 353 621 355 589 q 347 699 351 653 q 338 780 344 744 q 324 856 332 815 q 305 925 316 896 q 279 979 294 954 q 205 1029 250 1029 z "},"":{"ha":493,"x_min":86,"x_max":395,"o":"m 350 292 l 319 321 q 292 350 311 329 q 240 396 252 396 q 214 382 227 396 q 190 353 200 369 q 136 310 161 310 q 119 317 129 310 q 109 330 109 323 q 120 348 109 336 q 149 374 131 359 q 173 395 166 389 q 190 417 179 401 q 201 439 201 432 q 159 476 190 450 q 86 554 86 537 q 95 571 86 561 q 114 582 104 582 q 131 575 124 582 l 138 561 q 239 475 224 475 q 276 499 255 475 q 320 548 298 524 q 354 572 342 572 q 373 566 366 572 q 380 549 380 559 q 356 515 380 538 q 307 470 331 492 q 282 435 282 448 q 300 406 282 423 q 338 376 317 389 q 395 319 395 339 q 385 298 395 308 q 365 288 375 288 q 350 292 354 288 z "},"":{"ha":408,"x_min":68,"x_max":334,"o":"m 329 564 l 334 301 q 328 171 334 205 q 316 109 322 137 q 299 60 310 80 q 275 23 289 41 q 197 -14 247 -14 q 127 14 148 -14 l 126 14 q 90 -179 117 -46 l 69 -163 q 85 -66 70 -139 q 110 75 100 6 q 104 101 110 85 q 95 136 98 118 q 89 186 92 154 q 82 244 85 218 q 77 308 79 271 q 73 366 75 345 q 70 430 71 388 q 69 489 69 472 q 68 553 68 506 q 68 612 68 600 l 68 733 q 170 1064 68 1064 q 191 1056 176 1064 q 210 1048 205 1048 l 215 1051 l 222 1044 q 258 1219 231 1071 l 283 1219 l 282 1179 l 253 1011 q 273 971 253 994 l 272 968 q 283 942 275 956 q 309 833 309 903 l 306 832 q 316 705 306 791 q 326 576 326 618 l 326 568 l 329 564 m 248 942 q 205 554 228 823 q 164 189 182 285 q 146 70 146 94 q 207 16 146 16 q 297 271 297 16 q 248 942 297 844 m 215 978 q 215 991 215 978 q 201 1015 215 1004 q 176 1026 188 1026 q 149 1018 165 1026 l 140 1021 q 97 578 97 994 q 110 478 97 507 q 118 332 110 430 q 126 186 126 235 q 151 345 136 199 q 174 575 165 490 q 195 783 189 718 q 205 880 201 849 q 215 978 215 951 z "},"":{"ha":504,"x_min":18,"x_max":429,"o":"m 87 1185 q 65 1182 74 1182 q 18 1210 18 1182 q 26 1240 18 1234 q 89 1225 77 1240 q 105 1219 90 1224 q 132 1210 121 1214 q 160 1199 142 1206 q 192 1185 178 1192 q 218 1173 205 1179 q 244 1146 244 1158 q 238 1138 244 1141 q 229 1135 233 1135 q 159 1158 225 1135 q 87 1185 94 1181 m 425 289 l 427 201 q 396 28 427 84 q 359 -11 383 5 q 296 -26 334 -26 q 224 -6 257 -26 q 174 46 192 15 q 143 119 157 77 q 125 197 130 160 q 94 321 109 293 q 80 651 94 431 q 66 982 66 871 l 57 1011 q 64 1030 57 1021 q 81 1039 71 1039 q 115 937 115 1039 l 127 468 q 134 435 133 461 q 147 311 141 338 q 144 276 144 295 q 158 212 144 257 q 192 124 171 168 q 245 50 214 81 q 302 18 277 18 q 340 24 328 18 q 359 36 352 29 q 370 57 366 42 q 376 80 374 72 q 378 107 377 87 q 379 132 380 127 q 379 144 379 136 l 383 191 l 383 349 l 374 432 l 366 681 l 366 699 l 359 707 q 366 786 366 746 l 353 1022 q 362 1039 353 1033 q 383 1044 372 1044 l 407 1022 l 403 1011 l 407 1000 l 397 917 l 411 667 l 418 425 l 422 424 q 421 395 421 414 l 425 297 l 429 293 l 425 289 z "},"":{"ha":504,"x_min":57,"x_max":429,"o":"m 228 1135 q 203 1156 203 1135 q 285 1227 203 1164 q 375 1297 368 1291 q 406 1276 406 1297 q 401 1255 406 1275 q 228 1135 332 1223 m 425 289 l 427 201 q 396 28 427 84 q 359 -11 383 5 q 296 -26 334 -26 q 224 -6 257 -26 q 174 46 192 15 q 143 119 157 77 q 125 197 130 160 q 94 321 109 293 q 80 651 94 431 q 66 982 66 871 l 57 1011 q 64 1030 57 1021 q 81 1039 71 1039 q 115 937 115 1039 l 127 468 q 134 435 133 461 q 147 311 141 338 q 144 276 144 295 q 158 212 144 257 q 192 124 171 168 q 245 50 214 81 q 302 18 277 18 q 340 24 328 18 q 359 36 352 29 q 370 57 366 42 q 376 80 374 72 q 378 107 377 87 q 379 132 380 127 q 379 144 379 136 l 383 191 l 383 349 l 374 432 l 366 681 l 366 699 l 359 707 q 366 786 366 746 l 353 1022 q 362 1039 353 1033 q 383 1044 372 1044 l 407 1022 l 403 1011 l 407 1000 l 397 917 l 411 667 l 418 425 l 422 424 q 421 395 421 414 l 425 297 l 429 293 l 425 289 z "},"":{"ha":504,"x_min":57,"x_max":429,"o":"m 297 1135 l 279 1146 q 239 1354 272 1230 q 201 1249 221 1310 q 180 1174 182 1187 l 157 1142 l 132 1160 q 180 1292 133 1190 q 248 1394 227 1394 q 268 1366 268 1394 q 274 1312 268 1338 q 293 1253 281 1286 q 309 1203 304 1221 l 308 1194 l 318 1174 l 317 1166 q 322 1152 322 1156 q 297 1135 322 1139 m 425 289 l 427 201 q 396 28 427 84 q 359 -11 383 5 q 296 -26 334 -26 q 224 -6 257 -26 q 174 46 192 15 q 143 119 157 77 q 125 197 130 160 q 94 321 109 293 q 80 651 94 431 q 66 982 66 871 l 57 1011 q 64 1030 57 1021 q 81 1039 71 1039 q 115 937 115 1039 l 127 468 q 134 435 133 461 q 147 311 141 338 q 144 276 144 295 q 158 212 144 257 q 192 124 171 168 q 245 50 214 81 q 302 18 277 18 q 340 24 328 18 q 359 36 352 29 q 370 57 366 42 q 376 80 374 72 q 378 107 377 87 q 379 132 380 127 q 379 144 379 136 l 383 191 l 383 349 l 374 432 l 366 681 l 366 699 l 359 707 q 366 786 366 746 l 353 1022 q 362 1039 353 1033 q 383 1044 372 1044 l 407 1022 l 403 1011 l 407 1000 l 397 917 l 411 667 l 418 425 l 422 424 q 421 395 421 414 l 425 297 l 429 293 l 425 289 z "},"":{"ha":504,"x_min":39,"x_max":429,"o":"m 378 1140 q 359 1150 368 1140 q 351 1172 351 1160 q 361 1194 351 1183 q 384 1205 372 1205 q 406 1194 396 1205 q 415 1172 415 1183 q 378 1140 415 1140 m 100 1158 q 72 1204 100 1204 q 49 1193 60 1204 q 39 1170 39 1181 q 46 1146 39 1158 q 65 1135 54 1135 q 89 1141 77 1135 q 100 1158 100 1147 m 425 289 l 427 201 q 396 28 427 84 q 359 -11 383 5 q 296 -26 334 -26 q 224 -6 257 -26 q 174 46 192 15 q 143 119 157 77 q 125 197 130 160 q 94 321 109 293 q 80 651 94 431 q 66 982 66 871 l 57 1011 q 64 1030 57 1021 q 81 1039 71 1039 q 115 937 115 1039 l 127 468 q 134 435 133 461 q 147 311 141 338 q 144 276 144 295 q 158 212 144 257 q 192 124 171 168 q 245 50 214 81 q 302 18 277 18 q 340 24 328 18 q 359 36 352 29 q 370 57 366 42 q 376 80 374 72 q 378 107 377 87 q 379 132 380 127 q 379 144 379 136 l 383 191 l 383 349 l 374 432 l 366 681 l 366 699 l 359 707 q 366 786 366 746 l 353 1022 q 362 1039 353 1033 q 383 1044 372 1044 l 407 1022 l 403 1011 l 407 1000 l 397 917 l 411 667 l 418 425 l 422 424 q 421 395 421 414 l 425 297 l 429 293 l 425 289 z "},"":{"ha":342,"x_min":50,"x_max":341,"o":"m 163 1135 q 138 1156 138 1135 q 221 1227 138 1164 q 311 1297 303 1291 q 341 1276 341 1297 q 337 1255 341 1275 q 163 1135 267 1223 m 196 -17 q 176 17 176 -17 l 183 285 q 174 397 183 285 q 165 463 174 420 q 157 522 157 505 q 153 557 157 538 q 142 605 149 577 q 133 648 136 633 q 117 731 130 663 q 70 938 89 873 q 50 1020 50 1002 q 78 1048 50 1048 l 94 1038 q 131 819 98 981 q 182 631 163 656 q 212 790 203 694 q 225 936 220 886 q 264 1044 237 1044 q 285 1029 285 1044 q 279 999 285 1019 q 272 965 274 980 q 256 876 269 950 q 237 765 243 802 q 218 562 218 654 l 222 517 l 214 496 l 214 485 l 224 318 q 221 37 224 130 l 225 33 l 227 24 q 219 -4 227 8 q 196 -17 211 -17 z "},"":{"ha":366,"x_min":64,"x_max":302,"o":"m 129 364 l 136 35 q 131 3 136 14 q 107 -8 125 -8 q 89 40 89 -8 l 90 215 l 87 386 q 82 589 87 466 q 76 736 77 711 q 70 826 75 762 q 64 912 65 891 q 64 946 64 933 l 65 1038 q 75 1048 65 1046 l 98 1044 q 101 989 100 1025 q 104 935 103 954 l 104 933 q 271 817 217 931 q 302 681 302 753 q 273 525 302 609 q 180 395 237 421 q 155 380 163 387 q 129 364 142 368 m 110 893 l 110 857 q 119 633 111 781 q 129 415 127 486 q 150 423 143 416 q 164 437 157 429 q 174 447 171 444 q 264 673 264 537 q 217 829 264 784 q 168 870 197 848 q 135 893 138 891 l 110 893 z "},"":{"ha":418,"x_min":74,"x_max":335,"o":"m 122 549 l 129 33 q 103 -8 129 -8 q 77 11 77 -8 l 83 363 q 74 859 83 363 q 179 1042 74 1042 q 261 980 233 1042 q 290 823 290 919 q 201 579 290 664 q 301 478 267 546 q 335 321 335 410 l 335 289 q 280 68 335 130 q 214 18 254 39 q 198 16 205 16 q 181 21 191 16 q 172 37 172 26 q 189 60 172 47 q 242 94 213 71 q 277 134 272 116 q 295 196 294 168 q 296 259 296 224 q 290 335 296 294 q 272 420 285 376 q 174 550 243 519 q 158 564 165 554 q 151 579 151 573 q 152 589 151 586 q 155 594 153 592 q 159 598 156 596 q 163 600 161 600 q 172 603 168 603 q 228 683 201 612 q 254 822 254 753 q 233 942 254 890 q 180 994 211 994 q 117 851 117 994 l 122 602 l 122 549 z "},"":{"ha":452,"x_min":53,"x_max":386,"o":"m 123 1053 q 100 1050 109 1050 q 53 1078 53 1050 q 62 1108 53 1102 q 124 1093 112 1108 q 141 1087 125 1092 q 167 1078 156 1082 q 196 1066 178 1074 q 227 1053 214 1059 q 253 1040 240 1047 q 279 1014 279 1025 q 274 1006 279 1009 q 264 1002 268 1002 q 195 1026 260 1002 q 123 1053 129 1049 m 249 207 l 212 205 q 169 214 193 214 q 143 212 145 214 q 140 208 141 211 q 139 203 140 204 l 136 175 q 123 90 134 140 q 83 -7 104 -7 q 65 1 75 -7 q 56 17 56 8 q 92 175 73 69 q 116 307 111 281 q 134 412 121 333 q 151 517 146 492 q 173 625 155 542 q 194 734 191 709 q 203 804 198 760 q 221 925 214 913 l 240 924 q 265 932 257 924 q 282 926 274 932 q 290 911 290 920 q 307 654 290 844 q 334 407 324 463 q 357 297 344 351 q 370 215 370 243 l 363 196 q 374 104 363 165 q 386 19 386 43 q 375 -12 386 -6 q 340 -4 347 -12 q 334 22 334 4 q 331 66 334 40 q 327 108 329 92 q 318 157 324 123 q 311 200 313 191 q 249 207 285 207 m 151 275 q 184 252 151 261 q 297 237 235 237 l 311 237 q 302 300 302 264 l 302 332 q 281 583 302 418 q 258 828 260 747 q 169 385 186 469 q 151 275 151 300 z "},"":{"ha":452,"x_min":56,"x_max":386,"o":"m 184 1003 q 159 1023 159 1003 q 241 1095 159 1031 q 331 1165 323 1158 q 361 1143 361 1165 q 357 1122 361 1143 q 184 1003 288 1091 m 249 207 l 212 205 q 169 214 193 214 q 143 212 145 214 q 140 208 141 211 q 139 203 140 204 l 136 175 q 123 90 134 140 q 83 -7 104 -7 q 65 1 75 -7 q 56 17 56 8 q 92 175 73 69 q 116 307 111 281 q 134 412 121 333 q 151 517 146 492 q 173 625 155 542 q 194 734 191 709 q 203 804 198 760 q 221 925 214 913 l 240 924 q 265 932 257 924 q 282 926 274 932 q 290 911 290 920 q 307 654 290 844 q 334 407 324 463 q 357 297 344 351 q 370 215 370 243 l 363 196 q 374 104 363 165 q 386 19 386 43 q 375 -12 386 -6 q 340 -4 347 -12 q 334 22 334 4 q 331 66 334 40 q 327 108 329 92 q 318 157 324 123 q 311 200 313 191 q 249 207 285 207 m 151 275 q 184 252 151 261 q 297 237 235 237 l 311 237 q 302 300 302 264 l 302 332 q 281 583 302 418 q 258 828 260 747 q 169 385 186 469 q 151 275 151 300 z "},"":{"ha":452,"x_min":56,"x_max":386,"o":"m 332 1002 l 313 1014 q 273 1222 307 1098 q 236 1116 256 1177 q 215 1042 216 1055 l 191 1010 l 166 1027 q 215 1160 168 1058 q 282 1262 262 1262 q 302 1234 302 1262 q 309 1180 302 1206 q 327 1121 315 1154 q 344 1071 339 1088 l 342 1062 l 353 1042 l 351 1034 q 357 1019 357 1023 q 332 1002 357 1006 m 249 207 l 212 205 q 169 214 193 214 q 143 212 145 214 q 140 208 141 211 q 139 203 140 204 l 136 175 q 123 90 134 140 q 83 -7 104 -7 q 65 1 75 -7 q 56 17 56 8 q 92 175 73 69 q 116 307 111 281 q 134 412 121 333 q 151 517 146 492 q 173 625 155 542 q 194 734 191 709 q 203 804 198 760 q 221 925 214 913 l 240 924 q 265 932 257 924 q 282 926 274 932 q 290 911 290 920 q 307 654 290 844 q 334 407 324 463 q 357 297 344 351 q 370 215 370 243 l 363 196 q 374 104 363 165 q 386 19 386 43 q 375 -12 386 -6 q 340 -4 347 -12 q 334 22 334 4 q 331 66 334 40 q 327 108 329 92 q 318 157 324 123 q 311 200 313 191 q 249 207 285 207 m 151 275 q 184 252 151 261 q 297 237 235 237 l 311 237 q 302 300 302 264 l 302 332 q 281 583 302 418 q 258 828 260 747 q 169 385 186 469 q 151 275 151 300 z "},"":{"ha":452,"x_min":56,"x_max":408,"o":"m 370 1090 l 361 1117 q 379 1125 366 1125 q 400 1110 392 1125 q 408 1072 408 1095 q 385 1026 408 1048 q 336 1004 363 1004 q 283 1019 309 1004 q 245 1047 258 1034 q 210 1086 233 1060 l 201 1090 l 176 1090 q 161 1074 174 1082 q 149 1056 149 1065 q 156 1024 149 1048 l 141 1003 q 123 1010 132 1003 q 115 1027 115 1018 q 136 1097 115 1069 q 199 1125 158 1125 q 254 1095 244 1102 q 281 1057 264 1074 q 311 1040 298 1040 q 328 1042 324 1040 l 338 1039 q 351 1055 341 1048 q 370 1090 370 1065 m 249 207 l 212 205 q 169 214 193 214 q 143 212 145 214 q 140 208 141 211 q 139 203 140 204 l 136 175 q 123 90 134 140 q 83 -7 104 -7 q 65 1 75 -7 q 56 17 56 8 q 92 175 73 69 q 116 307 111 281 q 134 412 121 333 q 151 517 146 492 q 173 625 155 542 q 194 734 191 709 q 203 804 198 760 q 221 925 214 913 l 240 924 q 265 932 257 924 q 282 926 274 932 q 290 911 290 920 q 307 654 290 844 q 334 407 324 463 q 357 297 344 351 q 370 215 370 243 l 363 196 q 374 104 363 165 q 386 19 386 43 q 375 -12 386 -6 q 340 -4 347 -12 q 334 22 334 4 q 331 66 334 40 q 327 108 329 92 q 318 157 324 123 q 311 200 313 191 q 249 207 285 207 m 151 275 q 184 252 151 261 q 297 237 235 237 l 311 237 q 302 300 302 264 l 302 332 q 281 583 302 418 q 258 828 260 747 q 169 385 186 469 q 151 275 151 300 z "},"":{"ha":452,"x_min":56,"x_max":450,"o":"m 413 1008 q 394 1018 402 1008 q 385 1040 385 1028 q 396 1063 385 1052 q 418 1074 406 1074 q 440 1062 431 1074 q 450 1040 450 1051 q 413 1008 450 1008 m 134 1027 q 106 1072 134 1072 q 84 1061 94 1072 q 73 1038 73 1050 q 81 1015 73 1026 q 100 1003 88 1003 q 123 1009 112 1003 q 134 1027 134 1015 m 249 207 l 212 205 q 169 214 193 214 q 143 212 145 214 q 140 208 141 211 q 139 203 140 204 l 136 175 q 123 90 134 140 q 83 -7 104 -7 q 65 1 75 -7 q 56 17 56 8 q 92 175 73 69 q 116 307 111 281 q 134 412 121 333 q 151 517 146 492 q 173 625 155 542 q 194 734 191 709 q 203 804 198 760 q 221 925 214 913 l 240 924 q 265 932 257 924 q 282 926 274 932 q 290 911 290 920 q 307 654 290 844 q 334 407 324 463 q 357 297 344 351 q 370 215 370 243 l 363 196 q 374 104 363 165 q 386 19 386 43 q 375 -12 386 -6 q 340 -4 347 -12 q 334 22 334 4 q 331 66 334 40 q 327 108 329 92 q 318 157 324 123 q 311 200 313 191 q 249 207 285 207 m 151 275 q 184 252 151 261 q 297 237 235 237 l 311 237 q 302 300 302 264 l 302 332 q 281 583 302 418 q 258 828 260 747 q 169 385 186 469 q 151 275 151 300 z "},"":{"ha":452,"x_min":56,"x_max":386,"o":"m 255 1003 q 238 1003 255 1003 q 201 1026 222 1003 q 181 1078 181 1048 q 206 1135 181 1107 q 260 1162 231 1162 q 313 1136 288 1162 q 338 1076 338 1109 q 313 1023 338 1043 q 255 1003 288 1003 m 263 1136 q 254 1136 263 1136 q 229 1119 245 1136 q 213 1087 213 1102 q 215 1062 213 1072 q 224 1040 216 1051 q 246 1029 231 1029 q 281 1041 260 1029 q 302 1073 302 1053 q 292 1115 302 1093 q 263 1136 282 1136 m 249 207 l 212 205 q 169 214 193 214 q 143 212 145 214 q 140 208 141 211 q 139 203 140 204 l 136 175 q 123 90 134 140 q 83 -7 104 -7 q 65 1 75 -7 q 56 17 56 8 q 92 175 73 69 q 116 307 111 281 q 134 412 121 333 q 151 517 146 492 q 173 625 155 542 q 194 734 191 709 q 203 804 198 760 q 221 925 214 913 l 240 924 q 265 932 257 924 q 282 926 274 932 q 290 911 290 920 q 307 654 290 844 q 334 407 324 463 q 357 297 344 351 q 370 215 370 243 l 363 196 q 374 104 363 165 q 386 19 386 43 q 375 -12 386 -6 q 340 -4 347 -12 q 334 22 334 4 q 331 66 334 40 q 327 108 329 92 q 318 157 324 123 q 311 200 313 191 q 249 207 285 207 m 151 275 q 184 252 151 261 q 297 237 235 237 l 311 237 q 302 300 302 264 l 302 332 q 281 583 302 418 q 258 828 260 747 q 169 385 186 469 q 151 275 151 300 z "},"":{"ha":626,"x_min":57,"x_max":572,"o":"m 372 -8 l 351 -9 l 332 9 q 343 155 343 75 l 336 407 l 329 416 q 286 412 323 415 q 186 393 189 407 l 117 142 q 108 99 117 141 q 68 1 87 1 q 60 7 63 1 q 57 18 57 14 q 113 293 58 85 q 294 811 187 530 l 297 819 q 298 825 297 819 q 358 914 323 914 l 465 916 q 509 893 509 916 l 500 876 l 431 876 q 363 873 385 876 l 367 661 l 368 463 l 375 454 q 485 468 412 468 l 504 444 q 406 421 504 421 l 368 421 l 374 104 l 372 47 q 385 24 372 24 l 542 39 q 572 21 572 39 q 441 -5 572 -3 q 383 -9 391 -5 q 372 -8 379 -8 m 335 643 l 336 736 l 336 789 q 335 839 336 822 q 261 645 323 826 q 196 436 199 463 q 335 453 257 436 l 335 643 z "},"":{"ha":373,"x_min":65,"x_max":336,"o":"m 264 -135 l 227 -140 q 189 -112 206 -140 q 201 -33 201 -85 l 201 -17 l 241 -12 q 235 -81 235 -43 q 336 -221 336 -88 q 305 -292 336 -254 q 231 -331 273 -331 q 192 -321 212 -331 q 172 -295 172 -311 q 186 -279 172 -279 q 209 -287 195 -279 q 235 -294 222 -294 q 263 -274 248 -294 q 278 -237 278 -254 l 274 -217 q 280 -209 274 -213 q 287 -205 286 -205 q 281 -156 287 -169 q 264 -135 276 -144 m 118 561 l 113 281 q 135 113 113 163 q 201 35 161 53 q 253 24 227 24 q 294 36 280 24 q 315 21 315 36 q 297 -3 315 10 q 262 -22 278 -16 l 216 -22 q 184 -10 208 -18 q 140 12 160 -3 q 102 60 120 26 q 77 138 85 94 q 65 302 65 212 l 65 461 q 79 715 65 646 q 153 890 106 854 q 190 910 165 900 q 225 925 216 920 l 281 925 q 284 924 282 925 q 288 923 287 924 q 292 922 290 923 q 295 921 294 922 q 298 920 296 921 q 301 918 300 919 q 307 904 307 912 l 289 884 l 231 884 q 181 857 202 884 q 149 793 160 830 q 131 709 138 757 q 121 568 121 636 l 118 561 z "},"":{"ha":333,"x_min":-60,"x_max":277,"o":"m 9 1053 q -13 1050 -4 1050 q -60 1078 -60 1050 q -52 1108 -60 1102 q 11 1093 -1 1108 q 27 1087 12 1092 q 54 1078 43 1082 q 82 1066 64 1074 q 114 1053 100 1059 q 140 1040 127 1047 q 166 1014 166 1025 q 160 1006 166 1009 q 151 1002 155 1002 q 81 1026 147 1002 q 9 1053 16 1049 m 74 11 l 75 46 l 71 52 q 81 109 81 79 l 74 292 l 83 710 l 78 876 q 118 916 78 916 q 140 907 134 916 q 180 901 145 905 q 268 867 266 892 q 241 840 268 856 q 129 867 165 865 l 122 859 q 123 799 123 839 l 118 583 q 138 545 118 545 l 184 547 q 239 522 237 547 q 232 497 239 508 q 206 486 224 486 q 179 497 188 486 l 134 504 l 127 504 l 121 497 l 121 493 q 123 383 123 457 l 121 186 q 140 33 121 47 q 184 22 152 22 l 236 25 q 277 7 277 25 q 216 -18 277 -18 l 102 -18 q 74 11 76 -18 z "},"":{"ha":333,"x_min":71,"x_max":327,"o":"m 149 1003 q 124 1023 124 1003 q 207 1095 124 1031 q 296 1165 289 1158 q 327 1143 327 1165 q 323 1122 327 1143 q 149 1003 253 1091 m 74 11 l 75 46 l 71 52 q 81 109 81 79 l 74 292 l 83 710 l 78 876 q 118 916 78 916 q 140 907 134 916 q 180 901 145 905 q 268 867 266 892 q 241 840 268 856 q 129 867 165 865 l 122 859 q 123 799 123 839 l 118 583 q 138 545 118 545 l 184 547 q 239 522 237 547 q 232 497 239 508 q 206 486 224 486 q 179 497 188 486 l 134 504 l 127 504 l 121 497 l 121 493 q 123 383 123 457 l 121 186 q 140 33 121 47 q 184 22 152 22 l 236 25 q 277 7 277 25 q 216 -18 277 -18 l 102 -18 q 74 11 76 -18 z "},"":{"ha":333,"x_min":54,"x_max":277,"o":"m 219 1002 l 201 1014 q 161 1222 194 1098 q 123 1116 143 1177 q 102 1042 104 1055 l 79 1010 l 54 1027 q 102 1160 55 1058 q 170 1262 149 1262 q 190 1234 190 1262 q 196 1180 190 1206 q 215 1121 203 1154 q 231 1071 227 1088 l 230 1062 l 240 1042 l 239 1034 q 244 1019 244 1023 q 219 1002 244 1006 m 74 11 l 75 46 l 71 52 q 81 109 81 79 l 74 292 l 83 710 l 78 876 q 118 916 78 916 q 140 907 134 916 q 180 901 145 905 q 268 867 266 892 q 241 840 268 856 q 129 867 165 865 l 122 859 q 123 799 123 839 l 118 583 q 138 545 118 545 l 184 547 q 239 522 237 547 q 232 497 239 508 q 206 486 224 486 q 179 497 188 486 l 134 504 l 127 504 l 121 497 l 121 493 q 123 383 123 457 l 121 186 q 140 33 121 47 q 184 22 152 22 l 236 25 q 277 7 277 25 q 216 -18 277 -18 l 102 -18 q 74 11 76 -18 z "},"":{"ha":333,"x_min":-40,"x_max":336,"o":"m 300 1008 q 280 1018 289 1008 q 272 1040 272 1028 q 282 1063 272 1052 q 305 1074 293 1074 q 327 1062 317 1074 q 336 1040 336 1051 q 300 1008 336 1008 m 21 1027 q -7 1072 21 1072 q -30 1061 -19 1072 q -40 1038 -40 1050 q -33 1015 -40 1026 q -13 1003 -25 1003 q 10 1009 -1 1003 q 21 1027 21 1015 m 74 11 l 75 46 l 71 52 q 81 109 81 79 l 74 292 l 83 710 l 78 876 q 118 916 78 916 q 140 907 134 916 q 180 901 145 905 q 268 867 266 892 q 241 840 268 856 q 129 867 165 865 l 122 859 q 123 799 123 839 l 118 583 q 138 545 118 545 l 184 547 q 239 522 237 547 q 232 497 239 508 q 206 486 224 486 q 179 497 188 486 l 134 504 l 127 504 l 121 497 l 121 493 q 123 383 123 457 l 121 186 q 140 33 121 47 q 184 22 152 22 l 236 25 q 277 7 277 25 q 216 -18 277 -18 l 102 -18 q 74 11 76 -18 z "},"":{"ha":373,"x_min":-45,"x_max":318,"o":"m 24 1053 q 2 1050 11 1050 q -45 1078 -45 1050 q -37 1108 -45 1102 q 26 1093 14 1108 q 42 1087 27 1092 q 68 1078 58 1082 q 97 1066 79 1074 q 129 1053 115 1059 q 155 1040 142 1047 q 181 1014 181 1025 q 175 1006 181 1009 q 166 1002 170 1002 q 96 1026 162 1002 q 24 1053 31 1049 m 288 11 l 241 16 q 216 8 231 16 q 180 0 201 0 q 154 14 159 0 l 131 12 q 93 26 101 12 q 101 41 93 35 q 111 50 109 47 l 151 50 l 157 56 l 161 85 q 151 389 161 85 l 158 713 q 151 873 158 807 q 110 878 138 878 l 77 875 q 50 899 50 875 q 63 910 50 905 q 83 916 75 916 q 277 873 277 916 q 273 863 277 869 l 241 860 q 201 868 231 868 l 195 864 q 199 790 199 852 l 195 460 l 204 155 l 203 113 q 207 74 203 80 l 205 71 q 236 57 205 57 l 277 58 q 318 39 318 58 q 309 19 318 26 q 288 11 300 11 z "},"":{"ha":373,"x_min":50,"x_max":342,"o":"m 164 1003 q 139 1023 139 1003 q 221 1095 139 1031 q 311 1165 304 1158 q 342 1143 342 1165 q 338 1122 342 1143 q 164 1003 268 1091 m 288 11 l 241 16 q 216 8 231 16 q 180 0 201 0 q 154 14 159 0 l 131 12 q 93 26 101 12 q 101 41 93 35 q 111 50 109 47 l 151 50 l 157 56 l 161 85 q 151 389 161 85 l 158 713 q 151 873 158 807 q 110 878 138 878 l 77 875 q 50 899 50 875 q 63 910 50 905 q 83 916 75 916 q 277 873 277 916 q 273 863 277 869 l 241 860 q 201 868 231 868 l 195 864 q 199 790 199 852 l 195 460 l 204 155 l 203 113 q 207 74 203 80 l 205 71 q 236 57 205 57 l 277 58 q 318 39 318 58 q 309 19 318 26 q 288 11 300 11 z "},"":{"ha":373,"x_min":50,"x_max":318,"o":"m 234 1002 l 216 1014 q 176 1222 209 1098 q 138 1116 158 1177 q 117 1042 119 1055 l 94 1010 l 68 1027 q 117 1160 70 1058 q 184 1262 164 1262 q 205 1234 205 1262 q 211 1180 205 1206 q 230 1121 218 1154 q 246 1071 241 1088 l 245 1062 l 255 1042 l 254 1034 q 259 1019 259 1023 q 234 1002 259 1006 m 288 11 l 241 16 q 216 8 231 16 q 180 0 201 0 q 154 14 159 0 l 131 12 q 93 26 101 12 q 101 41 93 35 q 111 50 109 47 l 151 50 l 157 56 l 161 85 q 151 389 161 85 l 158 713 q 151 873 158 807 q 110 878 138 878 l 77 875 q 50 899 50 875 q 63 910 50 905 q 83 916 75 916 q 277 873 277 916 q 273 863 277 869 l 241 860 q 201 868 231 868 l 195 864 q 199 790 199 852 l 195 460 l 204 155 l 203 113 q 207 74 203 80 l 205 71 q 236 57 205 57 l 277 58 q 318 39 318 58 q 309 19 318 26 q 288 11 300 11 z "},"":{"ha":373,"x_min":-25,"x_max":351,"o":"m 315 1008 q 295 1018 304 1008 q 287 1040 287 1028 q 297 1063 287 1052 q 320 1074 308 1074 q 342 1062 332 1074 q 351 1040 351 1051 q 315 1008 351 1008 m 36 1027 q 8 1072 36 1072 q -15 1061 -4 1072 q -25 1038 -25 1050 q -18 1015 -25 1026 q 2 1003 -10 1003 q 25 1009 14 1003 q 36 1027 36 1015 m 288 11 l 241 16 q 216 8 231 16 q 180 0 201 0 q 154 14 159 0 l 131 12 q 93 26 101 12 q 101 41 93 35 q 111 50 109 47 l 151 50 l 157 56 l 161 85 q 151 389 161 85 l 158 713 q 151 873 158 807 q 110 878 138 878 l 77 875 q 50 899 50 875 q 63 910 50 905 q 83 916 75 916 q 277 873 277 916 q 273 863 277 869 l 241 860 q 201 868 231 868 l 195 864 q 199 790 199 852 l 195 460 l 204 155 l 203 113 q 207 74 203 80 l 205 71 q 236 57 205 57 l 277 58 q 318 39 318 58 q 309 19 318 26 q 288 11 300 11 z "},"":{"ha":350,"x_min":81,"x_max":329,"o":"m 328 890 q 268 879 328 886 q 292 553 292 749 l 292 547 q 285 250 292 414 q 279 177 283 235 q 269 87 275 119 q 252 33 262 56 q 176 -20 229 -20 q 83 75 92 -20 q 81 119 81 92 q 81 170 81 146 q 83 240 81 193 q 89 325 85 288 q 99 408 93 361 q 117 490 106 455 q 142 555 127 524 q 225 619 172 619 q 256 608 239 619 q 233 873 251 762 q 141 865 156 865 q 126 871 126 865 q 142 890 126 890 q 231 897 182 890 q 189 1015 214 994 q 172 1024 185 1019 q 142 1051 142 1037 q 148 1060 142 1056 q 158 1064 153 1064 q 265 901 230 1064 q 315 904 302 904 q 329 897 329 904 l 328 890 m 256 493 l 256 572 q 214 589 241 583 q 146 483 168 589 q 119 296 123 376 q 114 118 114 172 q 165 8 114 8 q 204 18 194 8 q 218 35 214 28 q 225 53 222 41 q 229 72 228 66 q 231 93 230 78 q 233 113 233 109 q 256 493 256 294 z "},"":{"ha":585,"x_min":71,"x_max":510,"o":"m 379 1090 l 371 1117 q 388 1125 375 1125 q 409 1110 401 1125 q 417 1072 417 1095 q 395 1026 417 1048 q 345 1004 372 1004 q 293 1019 318 1004 q 255 1047 268 1034 q 220 1086 242 1060 l 210 1090 l 185 1090 q 171 1074 183 1082 q 159 1056 159 1065 q 165 1024 159 1048 l 151 1003 q 133 1010 142 1003 q 124 1027 124 1018 q 146 1097 124 1069 q 209 1125 168 1125 q 264 1095 254 1102 q 291 1057 274 1074 q 321 1040 308 1040 q 338 1042 334 1040 l 347 1039 q 361 1055 351 1048 q 379 1090 379 1065 m 463 846 l 460 880 q 479 909 460 909 q 502 897 493 909 q 510 869 510 884 l 510 777 l 503 765 q 488 345 503 656 q 458 4 473 33 q 438 -1 455 3 q 415 -5 422 -5 q 403 4 408 -5 q 394 28 397 13 q 389 47 391 43 l 390 52 q 354 183 381 109 q 318 283 326 258 q 281 387 313 290 q 123 806 156 774 q 113 708 113 763 l 115 599 l 113 532 q 118 435 113 516 l 114 435 q 123 179 114 203 l 123 54 q 129 30 129 45 q 103 -3 129 -3 q 74 72 74 -3 l 79 163 l 71 562 l 79 808 l 79 833 q 80 857 79 851 q 82 872 81 863 q 85 885 83 880 q 90 896 87 890 q 104 916 96 908 l 109 911 l 122 914 q 141 892 138 909 q 143 885 141 891 q 144 878 144 878 q 244 602 168 779 q 336 374 320 425 q 366 267 353 323 q 428 85 394 142 l 431 89 q 463 846 463 392 m 433 -1 q 435 -3 435 -1 l 433 -1 z "},"":{"ha":456,"x_min":-5,"x_max":382,"o":"m 64 1053 q 42 1050 51 1050 q -5 1078 -5 1050 q 3 1108 -5 1102 q 66 1093 54 1108 q 82 1087 67 1092 q 109 1078 98 1082 q 137 1066 119 1074 q 169 1053 155 1059 q 195 1040 182 1047 q 221 1014 221 1025 q 215 1006 221 1009 q 206 1002 210 1002 q 136 1026 202 1002 q 64 1053 71 1049 m 379 536 l 382 371 q 281 -9 382 58 q 227 -26 257 -26 q 64 485 64 -26 q 91 827 64 682 q 153 933 111 933 q 171 926 162 933 q 194 913 179 918 q 234 903 208 908 q 270 897 259 899 q 323 843 298 892 q 382 543 382 744 l 379 536 m 107 486 l 110 376 q 140 125 110 244 q 172 47 151 80 q 221 14 193 14 q 269 34 248 14 q 302 91 290 54 q 322 164 314 127 q 334 249 330 202 q 339 382 339 323 l 323 710 l 318 721 l 321 728 q 287 833 321 788 q 204 878 253 878 l 146 878 q 125 754 134 878 q 114 616 117 630 l 107 486 z "},"":{"ha":456,"x_min":64,"x_max":382,"o":"m 205 1003 q 180 1023 180 1003 q 262 1095 180 1031 q 352 1165 345 1158 q 382 1143 382 1165 q 378 1122 382 1143 q 205 1003 309 1091 m 379 536 l 382 371 q 281 -9 382 58 q 227 -26 257 -26 q 64 485 64 -26 q 91 827 64 682 q 153 933 111 933 q 171 926 162 933 q 194 913 179 918 q 234 903 208 908 q 270 897 259 899 q 323 843 298 892 q 382 543 382 744 l 379 536 m 107 486 l 110 376 q 140 125 110 244 q 172 47 151 80 q 221 14 193 14 q 269 34 248 14 q 302 91 290 54 q 322 164 314 127 q 334 249 330 202 q 339 382 339 323 l 323 710 l 318 721 l 321 728 q 287 833 321 788 q 204 878 253 878 l 146 878 q 125 754 134 878 q 114 616 117 630 l 107 486 z "},"":{"ha":456,"x_min":64,"x_max":382,"o":"m 274 1002 l 256 1014 q 216 1222 249 1098 q 178 1116 198 1177 q 157 1042 159 1055 l 134 1010 l 109 1027 q 157 1160 110 1058 q 224 1262 204 1262 q 245 1234 245 1262 q 251 1180 245 1206 q 270 1121 258 1154 q 286 1071 281 1088 l 285 1062 l 295 1042 l 294 1034 q 299 1019 299 1023 q 274 1002 299 1006 m 379 536 l 382 371 q 281 -9 382 58 q 227 -26 257 -26 q 64 485 64 -26 q 91 827 64 682 q 153 933 111 933 q 171 926 162 933 q 194 913 179 918 q 234 903 208 908 q 270 897 259 899 q 323 843 298 892 q 382 543 382 744 l 379 536 m 107 486 l 110 376 q 140 125 110 244 q 172 47 151 80 q 221 14 193 14 q 269 34 248 14 q 302 91 290 54 q 322 164 314 127 q 334 249 330 202 q 339 382 339 323 l 323 710 l 318 721 l 321 728 q 287 833 321 788 q 204 878 253 878 l 146 878 q 125 754 134 878 q 114 616 117 630 l 107 486 z "},"":{"ha":456,"x_min":56,"x_max":382,"o":"m 311 1090 l 303 1117 q 320 1125 307 1125 q 341 1110 334 1125 q 349 1072 349 1095 q 327 1026 349 1048 q 277 1004 304 1004 q 225 1019 250 1004 q 187 1047 200 1034 q 152 1086 174 1060 l 142 1090 l 117 1090 q 103 1074 115 1082 q 91 1056 91 1065 q 98 1024 91 1048 l 83 1003 q 65 1010 74 1003 q 56 1027 56 1018 q 78 1097 56 1069 q 141 1125 100 1125 q 196 1095 186 1102 q 223 1057 206 1074 q 253 1040 240 1040 q 270 1042 266 1040 l 279 1039 q 293 1055 283 1048 q 311 1090 311 1065 m 379 536 l 382 371 q 281 -9 382 58 q 227 -26 257 -26 q 64 485 64 -26 q 91 827 64 682 q 153 933 111 933 q 171 926 162 933 q 194 913 179 918 q 234 903 208 908 q 270 897 259 899 q 323 843 298 892 q 382 543 382 744 l 379 536 m 107 486 l 110 376 q 140 125 110 244 q 172 47 151 80 q 221 14 193 14 q 269 34 248 14 q 302 91 290 54 q 322 164 314 127 q 334 249 330 202 q 339 382 339 323 l 323 710 l 318 721 l 321 728 q 287 833 321 788 q 204 878 253 878 l 146 878 q 125 754 134 878 q 114 616 117 630 l 107 486 z "},"":{"ha":456,"x_min":16,"x_max":392,"o":"m 355 1008 q 336 1018 345 1008 q 328 1040 328 1028 q 338 1063 328 1052 q 361 1074 349 1074 q 382 1062 373 1074 q 392 1040 392 1051 q 355 1008 392 1008 m 77 1027 q 49 1072 77 1072 q 26 1061 37 1072 q 16 1038 16 1050 q 23 1015 16 1026 q 42 1003 31 1003 q 65 1009 54 1003 q 77 1027 77 1015 m 379 536 l 382 371 q 281 -9 382 58 q 227 -26 257 -26 q 64 485 64 -26 q 91 827 64 682 q 153 933 111 933 q 171 926 162 933 q 194 913 179 918 q 234 903 208 908 q 270 897 259 899 q 323 843 298 892 q 382 543 382 744 l 379 536 m 107 486 l 110 376 q 140 125 110 244 q 172 47 151 80 q 221 14 193 14 q 269 34 248 14 q 302 91 290 54 q 322 164 314 127 q 334 249 330 202 q 339 382 339 323 l 323 710 l 318 721 l 321 728 q 287 833 321 788 q 204 878 253 878 l 146 878 q 125 754 134 878 q 114 616 117 630 l 107 486 z "},"":{"ha":420,"x_min":62,"x_max":343,"o":"m 343 503 q 305 490 343 492 q 240 489 267 489 l 92 489 q 71 495 80 489 q 62 513 62 502 q 199 517 62 517 l 328 517 q 338 512 333 517 q 343 503 343 507 m 258 657 q 249 638 258 646 q 227 629 239 629 q 204 640 215 629 q 193 662 193 650 q 204 684 193 674 q 227 693 216 693 q 258 657 258 693 m 240 378 q 195 350 195 378 q 206 327 195 338 q 229 317 217 317 q 252 324 241 317 q 264 343 264 332 q 258 367 264 355 q 240 378 252 378 z "},"":{"ha":383,"x_min":65,"x_max":309,"o":"m 304 518 l 309 278 q 301 144 309 184 q 284 77 294 104 q 262 31 275 49 q 184 -9 230 -9 q 121 16 138 -9 l 119 16 l 118 5 q 83 -168 98 -168 q 69 -149 69 -168 l 103 71 q 98 96 103 79 q 91 127 94 112 q 84 172 88 143 q 78 225 81 201 q 73 283 75 250 q 70 337 71 316 q 67 395 68 357 q 66 449 66 433 q 65 507 66 466 q 65 562 65 549 l 65 673 q 158 937 65 937 q 196 922 174 937 l 200 925 l 210 916 l 240 1079 l 262 1079 l 262 1067 l 235 889 q 253 851 235 879 l 252 848 q 261 827 253 840 q 286 726 286 787 l 283 725 q 292 627 283 692 q 301 529 301 562 l 301 522 l 304 518 m 179 423 q 165 291 179 423 q 144 130 152 159 q 136 72 136 100 q 193 17 136 17 q 275 250 275 17 q 262 636 275 485 q 229 825 249 788 q 179 423 206 687 m 103 439 q 111 306 103 395 q 119 172 119 217 q 157 481 132 251 q 184 725 182 711 q 191 769 186 740 q 200 857 200 831 q 188 893 200 883 q 167 903 175 903 q 139 896 159 903 l 132 897 q 93 530 93 876 q 103 439 93 465 z "},"":{"ha":441,"x_min":1,"x_max":367,"o":"m 71 1061 q 49 1059 58 1059 q 1 1086 1 1059 q 10 1117 1 1111 q 73 1101 60 1117 q 89 1096 74 1101 q 115 1086 104 1090 q 144 1075 126 1082 q 175 1062 162 1068 q 201 1049 189 1056 q 228 1023 228 1034 q 222 1015 228 1018 q 213 1011 216 1011 q 143 1035 209 1011 q 71 1061 77 1058 m 353 624 l 354 596 q 350 501 351 561 q 348 388 349 441 q 345 272 347 334 q 334 160 342 210 q 272 3 315 42 q 164 -6 226 -41 q 120 31 138 9 q 91 175 102 54 q 78 432 80 297 q 65 895 72 838 l 74 914 q 106 838 106 910 l 110 469 l 125 175 q 229 17 125 17 q 311 308 294 17 q 317 496 312 328 q 322 901 322 664 l 319 926 q 339 942 319 942 q 363 933 359 942 q 367 851 367 924 q 358 743 367 778 q 359 734 359 741 q 353 624 359 734 z "},"":{"ha":441,"x_min":65,"x_max":389,"o":"m 212 1011 q 186 1031 186 1011 q 269 1103 186 1040 q 359 1173 351 1166 q 389 1152 389 1173 q 385 1131 389 1151 q 212 1011 315 1099 m 353 624 l 354 596 q 350 501 351 561 q 348 388 349 441 q 345 272 347 334 q 334 160 342 210 q 272 3 315 42 q 164 -6 226 -41 q 120 31 138 9 q 91 175 102 54 q 78 432 80 297 q 65 895 72 838 l 74 914 q 106 838 106 910 l 110 469 l 125 175 q 229 17 125 17 q 311 308 294 17 q 317 496 312 328 q 322 901 322 664 l 319 926 q 339 942 319 942 q 363 933 359 942 q 367 851 367 924 q 358 743 367 778 q 359 734 359 741 q 353 624 359 734 z "},"":{"ha":441,"x_min":65,"x_max":367,"o":"m 281 1011 l 262 1023 q 222 1231 256 1107 q 185 1125 205 1186 q 164 1050 165 1064 l 140 1019 l 115 1036 q 164 1169 117 1067 q 231 1271 211 1271 q 252 1243 252 1271 q 258 1188 252 1215 q 276 1130 264 1162 q 293 1080 288 1097 l 292 1071 l 302 1050 l 300 1043 q 306 1028 306 1032 q 281 1011 306 1015 m 353 624 l 354 596 q 350 501 351 561 q 348 388 349 441 q 345 272 347 334 q 334 160 342 210 q 272 3 315 42 q 164 -6 226 -41 q 120 31 138 9 q 91 175 102 54 q 78 432 80 297 q 65 895 72 838 l 74 914 q 106 838 106 910 l 110 469 l 125 175 q 229 17 125 17 q 311 308 294 17 q 317 496 312 328 q 322 901 322 664 l 319 926 q 339 942 319 942 q 363 933 359 942 q 367 851 367 924 q 358 743 367 778 q 359 734 359 741 q 353 624 359 734 z "},"":{"ha":441,"x_min":22,"x_max":399,"o":"m 362 1017 q 343 1026 351 1017 q 334 1048 334 1036 q 345 1071 334 1060 q 368 1082 355 1082 q 389 1070 380 1082 q 399 1048 399 1059 q 362 1017 399 1017 m 83 1035 q 56 1080 83 1080 q 33 1069 43 1080 q 22 1046 22 1058 q 30 1023 22 1034 q 49 1011 37 1011 q 72 1017 61 1011 q 83 1035 83 1023 m 353 624 l 354 596 q 350 501 351 561 q 348 388 349 441 q 345 272 347 334 q 334 160 342 210 q 272 3 315 42 q 164 -6 226 -41 q 120 31 138 9 q 91 175 102 54 q 78 432 80 297 q 65 895 72 838 l 74 914 q 106 838 106 910 l 110 469 l 125 175 q 229 17 125 17 q 311 308 294 17 q 317 496 312 328 q 322 901 322 664 l 319 926 q 339 942 319 942 q 363 933 359 942 q 367 851 367 924 q 358 743 367 778 q 359 734 359 741 q 353 624 359 734 z "},"":{"ha":380,"x_min":52,"x_max":360,"o":"m 182 1003 q 157 1023 157 1003 q 240 1095 157 1031 q 330 1165 322 1158 q 360 1143 360 1165 q 356 1122 360 1143 q 182 1003 286 1091 m 237 300 l 239 79 q 210 -21 239 -21 q 198 -16 205 -21 q 189 -5 191 -10 q 203 237 203 28 q 198 353 203 278 q 192 452 193 429 l 183 469 l 187 486 q 122 662 170 527 q 52 886 53 855 l 71 901 q 111 813 84 899 q 164 640 138 726 q 201 550 191 553 l 207 575 l 204 582 q 231 681 214 594 q 267 845 248 767 q 303 922 286 922 q 321 907 321 922 q 306 840 321 892 q 278 744 291 787 q 259 677 265 701 q 244 617 252 653 q 228 490 228 549 q 235 467 235 473 l 227 427 l 237 300 z "},"":{"ha":359,"x_min":69,"x_max":286,"o":"m 82 901 q 111 937 82 937 q 183 921 130 937 q 236 892 235 905 q 235 888 235 889 q 269 806 260 847 q 278 683 278 765 q 256 539 278 600 l 257 539 q 236 503 252 526 q 216 473 220 479 q 259 413 243 452 q 279 344 275 374 q 285 271 283 313 l 286 235 l 286 215 q 203 18 286 82 q 97 -16 159 -16 q 78 -7 85 -16 q 70 14 71 1 q 69 57 69 27 l 83 350 l 81 473 l 89 806 q 87 886 89 859 l 82 893 l 82 901 m 117 102 l 118 39 q 206 87 170 39 q 243 189 243 136 l 243 191 q 243 215 243 203 q 242 255 243 227 q 238 306 241 283 q 226 358 235 330 q 206 406 218 387 q 127 453 178 453 q 121 270 121 349 q 125 168 121 190 q 117 102 117 153 m 125 633 l 123 536 l 123 519 l 129 501 l 139 501 q 231 686 231 501 q 227 772 231 711 l 224 775 q 154 890 215 890 q 123 708 123 890 l 125 633 z "},"":{"ha":380,"x_min":-8,"x_max":368,"o":"m 332 1008 q 313 1018 321 1008 q 304 1040 304 1028 q 315 1063 304 1052 q 337 1074 325 1074 q 359 1062 349 1074 q 368 1040 368 1051 q 332 1008 368 1008 m 53 1026 q 25 1072 53 1072 q 2 1061 13 1072 q -8 1038 -8 1050 q -1 1015 -8 1026 q 19 1003 7 1003 q 42 1009 31 1003 q 53 1026 53 1015 m 237 300 l 239 79 q 210 -21 239 -21 q 198 -16 205 -21 q 189 -5 191 -10 q 203 237 203 28 q 198 353 203 278 q 192 452 193 429 l 183 469 l 187 486 q 122 662 170 527 q 52 886 53 855 l 71 901 q 111 813 84 899 q 164 640 138 726 q 201 550 191 553 l 207 575 l 204 582 q 231 681 214 594 q 267 845 248 767 q 303 922 286 922 q 321 907 321 922 q 306 840 321 892 q 278 744 291 787 q 259 677 265 701 q 244 617 252 653 q 228 490 228 549 q 235 467 235 473 l 227 427 l 237 300 z "},"":{"ha":472,"x_min":53,"x_max":416,"o":"m 406 1161 q 411 1158 406 1161 q 416 1144 416 1154 q 328 1135 415 1135 q 244 1135 275 1135 q 199 1135 214 1135 q 178 1137 185 1136 q 163 1141 171 1139 q 149 1157 149 1145 q 237 1168 150 1168 l 316 1168 q 406 1161 396 1168 m 385 407 l 400 45 l 400 30 q 396 9 400 14 q 372 0 385 0 q 351 7 359 0 q 343 24 343 14 q 347 40 347 32 l 343 68 l 343 205 q 270 237 343 224 q 161 250 197 250 q 137 200 148 250 q 116 89 126 149 q 96 14 106 28 q 53 31 63 14 q 95 182 75 62 q 127 358 115 303 q 171 595 139 412 q 213 828 202 777 q 231 904 224 880 q 246 962 237 928 q 286 1042 269 1042 q 315 1032 308 1042 q 327 986 322 1022 q 337 893 332 949 q 347 791 342 838 q 362 598 359 644 q 375 532 366 552 q 372 459 372 490 q 385 407 372 429 m 157 289 q 297 269 215 269 q 322 272 314 269 l 329 269 q 342 282 342 269 q 288 908 342 572 q 284 923 287 912 q 282 940 282 934 q 264 879 265 892 l 268 871 q 252 823 263 866 q 222 645 241 780 q 194 472 203 511 q 176 403 186 434 q 157 297 157 334 l 157 289 z "},"":{"ha":452,"x_min":56,"x_max":396,"o":"m 386 1029 q 391 1026 386 1029 q 395 1012 396 1022 q 307 1002 395 1002 q 224 1002 255 1002 q 179 1003 193 1002 q 158 1005 165 1004 q 142 1009 151 1006 q 128 1025 128 1013 q 217 1036 130 1036 l 296 1036 q 386 1029 376 1036 m 249 207 l 212 205 q 169 214 193 214 q 143 212 145 214 q 140 208 141 211 q 139 203 140 204 l 136 175 q 123 90 134 140 q 83 -7 104 -7 q 65 1 75 -7 q 56 17 56 8 q 92 175 73 69 q 116 307 111 281 q 134 412 121 333 q 151 517 146 492 q 173 625 155 542 q 194 734 191 709 q 203 804 198 760 q 221 925 214 913 l 240 924 q 265 932 257 924 q 282 926 274 932 q 290 911 290 920 q 307 654 290 844 q 334 407 324 463 q 357 297 344 351 q 370 215 370 243 l 363 196 q 374 104 363 165 q 386 19 386 43 q 375 -12 386 -6 q 340 -4 347 -12 q 334 22 334 4 q 331 66 334 40 q 327 108 329 92 q 318 157 324 123 q 311 200 313 191 q 249 207 285 207 m 151 275 q 184 252 151 261 q 297 237 235 237 l 311 237 q 302 300 302 264 l 302 332 q 281 583 302 418 q 258 828 260 747 q 169 385 186 469 q 151 275 151 300 z "},"":{"ha":472,"x_min":53,"x_max":400,"o":"m 359 1283 q 374 1277 367 1283 q 380 1264 380 1272 q 373 1242 380 1257 l 376 1232 q 366 1207 373 1225 q 355 1183 358 1190 q 343 1165 351 1177 q 327 1148 335 1153 q 276 1135 304 1135 q 228 1147 248 1135 q 196 1182 207 1160 q 175 1276 175 1224 l 190 1289 q 203 1267 199 1288 q 239 1177 216 1194 l 254 1166 l 288 1166 q 321 1192 307 1166 q 336 1237 336 1217 l 334 1257 q 359 1283 334 1283 m 385 407 l 400 45 l 400 30 q 396 9 400 14 q 372 0 385 0 q 351 7 359 0 q 343 24 343 14 q 347 40 347 32 l 343 68 l 343 205 q 270 237 343 224 q 161 250 197 250 q 137 200 148 250 q 116 89 126 149 q 96 14 106 28 q 53 31 63 14 q 95 182 75 62 q 127 358 115 303 q 171 595 139 412 q 213 828 202 777 q 231 904 224 880 q 246 962 237 928 q 286 1042 269 1042 q 315 1032 308 1042 q 327 986 322 1022 q 337 893 332 949 q 347 791 342 838 q 362 598 359 644 q 375 532 366 552 q 372 459 372 490 q 385 407 372 429 m 157 289 q 297 269 215 269 q 322 272 314 269 l 329 269 q 342 282 342 269 q 288 908 342 572 q 284 923 287 912 q 282 940 282 934 q 264 879 265 892 l 268 871 q 252 823 263 866 q 222 645 241 780 q 194 472 203 511 q 176 403 186 434 q 157 297 157 334 l 157 289 z "},"":{"ha":452,"x_min":56,"x_max":386,"o":"m 340 1152 q 354 1146 347 1152 q 361 1133 361 1140 q 353 1110 361 1125 l 357 1100 q 346 1076 353 1093 q 335 1052 338 1059 q 323 1033 332 1045 q 307 1017 315 1021 q 256 1003 284 1003 q 208 1016 229 1003 q 176 1050 187 1029 q 155 1145 155 1093 l 170 1157 q 183 1135 180 1156 q 219 1046 197 1062 l 234 1035 l 269 1035 q 301 1060 287 1035 q 316 1105 316 1086 l 315 1125 q 340 1152 315 1152 m 249 207 l 212 205 q 169 214 193 214 q 143 212 145 214 q 140 208 141 211 q 139 203 140 204 l 136 175 q 123 90 134 140 q 83 -7 104 -7 q 65 1 75 -7 q 56 17 56 8 q 92 175 73 69 q 116 307 111 281 q 134 412 121 333 q 151 517 146 492 q 173 625 155 542 q 194 734 191 709 q 203 804 198 760 q 221 925 214 913 l 240 924 q 265 932 257 924 q 282 926 274 932 q 290 911 290 920 q 307 654 290 844 q 334 407 324 463 q 357 297 344 351 q 370 215 370 243 l 363 196 q 374 104 363 165 q 386 19 386 43 q 375 -12 386 -6 q 340 -4 347 -12 q 334 22 334 4 q 331 66 334 40 q 327 108 329 92 q 318 157 324 123 q 311 200 313 191 q 249 207 285 207 m 151 275 q 184 252 151 261 q 297 237 235 237 l 311 237 q 302 300 302 264 l 302 332 q 281 583 302 418 q 258 828 260 747 q 169 385 186 469 q 151 275 151 300 z "},"":{"ha":472,"x_min":53,"x_max":450,"o":"m 390 -271 l 435 -257 q 450 -273 450 -257 q 430 -299 450 -289 q 390 -309 410 -309 q 316 -270 348 -309 q 285 -198 285 -231 q 295 -132 285 -165 q 319 -73 304 -98 q 371 1 349 -22 l 380 11 l 420 5 q 422 4 423 7 q 412 -10 420 1 q 347 -153 347 -99 q 345 -185 347 -166 l 343 -214 q 358 -252 343 -232 q 390 -271 373 -271 m 385 407 l 400 45 l 400 30 q 396 9 400 14 q 372 0 385 0 q 351 7 359 0 q 343 24 343 14 q 347 40 347 32 l 343 68 l 343 205 q 270 237 343 224 q 161 250 197 250 q 137 200 148 250 q 116 89 126 149 q 96 14 106 28 q 53 31 63 14 q 95 182 75 62 q 127 358 115 303 q 171 595 139 412 q 213 828 202 777 q 231 904 224 880 q 246 962 237 928 q 286 1042 269 1042 q 315 1032 308 1042 q 327 986 322 1022 q 337 893 332 949 q 347 791 342 838 q 362 598 359 644 q 375 532 366 552 q 372 459 372 490 q 385 407 372 429 m 157 289 q 297 269 215 269 q 322 272 314 269 l 329 269 q 342 282 342 269 q 288 908 342 572 q 284 923 287 912 q 282 940 282 934 q 264 879 265 892 l 268 871 q 252 823 263 866 q 222 645 241 780 q 194 472 203 511 q 176 403 186 434 q 157 297 157 334 l 157 289 z "},"":{"ha":452,"x_min":56,"x_max":455,"o":"m 395 -284 l 440 -270 q 455 -286 455 -270 q 435 -312 455 -302 q 395 -321 415 -321 q 322 -283 353 -321 q 290 -211 290 -244 q 300 -145 290 -178 q 324 -86 310 -111 q 376 -12 354 -35 l 386 -2 l 426 -7 q 427 -9 429 -6 q 418 -23 426 -12 q 353 -166 353 -112 q 350 -198 353 -179 l 349 -227 q 363 -264 349 -245 q 395 -284 378 -284 m 249 207 l 212 205 q 169 214 193 214 q 143 212 145 214 q 140 208 141 211 q 139 203 140 204 l 136 175 q 123 90 134 140 q 83 -7 104 -7 q 65 1 75 -7 q 56 17 56 8 q 92 175 73 69 q 116 307 111 281 q 134 412 121 333 q 151 517 146 492 q 173 625 155 542 q 194 734 191 709 q 203 804 198 760 q 221 925 214 913 l 240 924 q 265 932 257 924 q 282 926 274 932 q 290 911 290 920 q 307 654 290 844 q 334 407 324 463 q 357 297 344 351 q 370 215 370 243 l 363 196 q 374 104 363 165 q 386 19 386 43 q 375 -12 386 -6 q 340 -4 347 -12 q 334 22 334 4 q 331 66 334 40 q 327 108 329 92 q 318 157 324 123 q 311 200 313 191 q 249 207 285 207 m 151 275 q 184 252 151 261 q 297 237 235 237 l 311 237 q 302 300 302 264 l 302 332 q 281 583 302 418 q 258 828 260 747 q 169 385 186 469 q 151 275 151 300 z "},"":{"ha":472,"x_min":65,"x_max":414,"o":"m 210 1135 q 184 1156 184 1135 q 267 1227 184 1164 q 357 1297 349 1291 q 387 1276 387 1297 q 383 1255 387 1275 q 210 1135 313 1223 m 115 684 l 103 583 q 121 309 103 501 q 159 88 140 117 q 268 32 195 32 q 375 72 341 32 q 407 77 388 72 l 414 69 q 308 -18 414 3 q 251 -22 283 -22 q 177 9 220 -22 q 117 78 134 40 q 82 314 99 116 q 65 663 65 512 q 74 840 65 813 q 69 885 69 864 q 129 1015 69 968 q 275 1061 189 1061 q 327 1046 299 1061 q 355 1010 355 1031 q 334 994 355 994 q 317 1003 328 994 q 299 1011 306 1011 q 283 1008 292 1011 q 250 1014 267 1014 q 209 1007 233 1014 q 169 988 185 1000 q 142 958 153 977 q 125 922 131 939 q 115 878 119 905 q 111 782 111 839 l 115 684 m 273 1000 l 271 1000 l 273 1000 z "},"":{"ha":373,"x_min":65,"x_max":349,"o":"m 171 1003 q 146 1023 146 1003 q 228 1095 146 1031 q 318 1165 311 1158 q 349 1143 349 1165 q 345 1122 349 1143 q 171 1003 275 1091 m 118 561 l 113 281 q 135 113 113 163 q 201 35 161 53 q 253 24 227 24 q 294 36 280 24 q 315 21 315 36 q 297 -3 315 10 q 262 -22 278 -16 l 216 -22 q 184 -10 208 -18 q 140 12 160 -3 q 102 60 120 26 q 77 138 85 94 q 65 302 65 212 l 65 461 q 79 715 65 646 q 153 890 106 854 q 190 910 165 900 q 225 925 216 920 l 281 925 q 284 924 282 925 q 288 923 287 924 q 292 922 290 923 q 295 921 294 922 q 298 920 296 921 q 301 918 300 919 q 307 904 307 912 l 289 884 l 231 884 q 181 857 202 884 q 149 793 160 830 q 131 709 138 757 q 121 568 121 636 l 118 561 z "},"":{"ha":472,"x_min":65,"x_max":414,"o":"m 279 1135 l 260 1146 q 220 1354 254 1230 q 183 1249 203 1310 q 162 1174 163 1187 l 138 1142 l 113 1160 q 162 1292 115 1190 q 229 1394 209 1394 q 250 1366 250 1394 q 256 1312 250 1338 q 274 1253 262 1286 q 291 1203 286 1221 l 290 1194 l 300 1174 l 298 1166 q 304 1152 304 1156 q 279 1135 304 1139 m 115 684 l 103 583 q 121 309 103 501 q 159 88 140 117 q 268 32 195 32 q 375 72 341 32 q 407 77 388 72 l 414 69 q 308 -18 414 3 q 251 -22 283 -22 q 177 9 220 -22 q 117 78 134 40 q 82 314 99 116 q 65 663 65 512 q 74 840 65 813 q 69 885 69 864 q 129 1015 69 968 q 275 1061 189 1061 q 327 1046 299 1061 q 355 1010 355 1031 q 334 994 355 994 q 317 1003 328 994 q 299 1011 306 1011 q 283 1008 292 1011 q 250 1014 267 1014 q 209 1007 233 1014 q 169 988 185 1000 q 142 958 153 977 q 125 922 131 939 q 115 878 119 905 q 111 782 111 839 l 115 684 m 273 1000 l 271 1000 l 273 1000 z "},"":{"ha":373,"x_min":65,"x_max":345,"o":"m 319 1002 l 301 1014 q 261 1222 294 1098 q 224 1116 243 1177 q 203 1042 204 1055 l 179 1010 l 154 1027 q 202 1160 155 1058 q 270 1262 250 1262 q 290 1234 290 1262 q 297 1180 290 1206 q 315 1121 303 1154 q 332 1071 327 1088 l 330 1062 l 340 1042 l 339 1034 q 345 1019 345 1023 q 319 1002 345 1006 m 118 561 l 113 281 q 135 113 113 163 q 201 35 161 53 q 253 24 227 24 q 294 36 280 24 q 315 21 315 36 q 297 -3 315 10 q 262 -22 278 -16 l 216 -22 q 184 -10 208 -18 q 140 12 160 -3 q 102 60 120 26 q 77 138 85 94 q 65 302 65 212 l 65 461 q 79 715 65 646 q 153 890 106 854 q 190 910 165 900 q 225 925 216 920 l 281 925 q 284 924 282 925 q 288 923 287 924 q 292 922 290 923 q 295 921 294 922 q 298 920 296 921 q 301 918 300 919 q 307 904 307 912 l 289 884 l 231 884 q 181 857 202 884 q 149 793 160 830 q 131 709 138 757 q 121 568 121 636 l 118 561 z "},"":{"ha":472,"x_min":65,"x_max":414,"o":"m 204 1135 q 183 1145 192 1135 q 174 1168 174 1156 q 185 1193 174 1181 q 209 1205 196 1205 q 232 1193 222 1205 q 243 1169 243 1181 q 204 1135 243 1135 m 115 684 l 103 583 q 121 309 103 501 q 159 88 140 117 q 268 32 195 32 q 375 72 341 32 q 407 77 388 72 l 414 69 q 308 -18 414 3 q 251 -22 283 -22 q 177 9 220 -22 q 117 78 134 40 q 82 314 99 116 q 65 663 65 512 q 74 840 65 813 q 69 885 69 864 q 129 1015 69 968 q 275 1061 189 1061 q 327 1046 299 1061 q 355 1010 355 1031 q 334 994 355 994 q 317 1003 328 994 q 299 1011 306 1011 q 283 1008 292 1011 q 250 1014 267 1014 q 209 1007 233 1014 q 169 988 185 1000 q 142 958 153 977 q 125 922 131 939 q 115 878 119 905 q 111 782 111 839 l 115 684 m 273 1000 l 271 1000 l 273 1000 z "},"":{"ha":373,"x_min":65,"x_max":315,"o":"m 166 1003 q 145 1014 154 1003 q 136 1037 136 1024 q 147 1062 136 1050 q 171 1074 158 1074 q 194 1062 184 1074 q 205 1038 205 1050 q 166 1003 205 1003 m 118 561 l 113 281 q 135 113 113 163 q 201 35 161 53 q 253 24 227 24 q 294 36 280 24 q 315 21 315 36 q 297 -3 315 10 q 262 -22 278 -16 l 216 -22 q 184 -10 208 -18 q 140 12 160 -3 q 102 60 120 26 q 77 138 85 94 q 65 302 65 212 l 65 461 q 79 715 65 646 q 153 890 106 854 q 190 910 165 900 q 225 925 216 920 l 281 925 q 284 924 282 925 q 288 923 287 924 q 292 922 290 923 q 295 921 294 922 q 298 920 296 921 q 301 918 300 919 q 307 904 307 912 l 289 884 l 231 884 q 181 857 202 884 q 149 793 160 830 q 131 709 138 757 q 121 568 121 636 l 118 561 z "},"":{"ha":472,"x_min":65,"x_max":414,"o":"m 253 1383 l 271 1394 q 296 1378 296 1390 q 291 1362 296 1373 l 292 1356 l 282 1335 l 283 1326 q 267 1276 279 1309 q 242 1171 242 1207 q 222 1135 242 1135 q 154 1237 201 1135 q 106 1369 107 1339 l 131 1388 l 155 1356 q 184 1256 157 1333 q 213 1175 212 1179 q 253 1383 246 1299 m 115 684 l 103 583 q 121 309 103 501 q 159 88 140 117 q 268 32 195 32 q 375 72 341 32 q 407 77 388 72 l 414 69 q 308 -18 414 3 q 251 -22 283 -22 q 177 9 220 -22 q 117 78 134 40 q 82 314 99 116 q 65 663 65 512 q 74 840 65 813 q 69 885 69 864 q 129 1015 69 968 q 275 1061 189 1061 q 327 1046 299 1061 q 355 1010 355 1031 q 334 994 355 994 q 317 1003 328 994 q 299 1011 306 1011 q 283 1008 292 1011 q 250 1014 267 1014 q 209 1007 233 1014 q 169 988 185 1000 q 142 958 153 977 q 125 922 131 939 q 115 878 119 905 q 111 782 111 839 l 115 684 m 273 1000 l 271 1000 l 273 1000 z "},"":{"ha":373,"x_min":65,"x_max":315,"o":"m 214 1251 l 233 1262 q 258 1246 258 1258 q 252 1230 258 1241 l 254 1223 l 243 1202 l 245 1194 q 229 1143 240 1177 q 203 1039 203 1075 q 183 1002 203 1002 q 116 1104 163 1002 q 67 1237 68 1206 l 92 1255 l 116 1223 q 145 1123 118 1200 q 174 1043 173 1046 q 214 1251 208 1167 m 118 561 l 113 281 q 135 113 113 163 q 201 35 161 53 q 253 24 227 24 q 294 36 280 24 q 315 21 315 36 q 297 -3 315 10 q 262 -22 278 -16 l 216 -22 q 184 -10 208 -18 q 140 12 160 -3 q 102 60 120 26 q 77 138 85 94 q 65 302 65 212 l 65 461 q 79 715 65 646 q 153 890 106 854 q 190 910 165 900 q 225 925 216 920 l 281 925 q 284 924 282 925 q 288 923 287 924 q 292 922 290 923 q 295 921 294 922 q 298 920 296 921 q 301 918 300 919 q 307 904 307 912 l 289 884 l 231 884 q 181 857 202 884 q 149 793 160 830 q 131 709 138 757 q 121 568 121 636 l 118 561 z "},"":{"ha":476,"x_min":56,"x_max":404,"o":"m 252 1383 l 271 1394 q 296 1378 296 1390 q 290 1362 296 1373 l 292 1356 l 281 1335 l 283 1326 q 267 1276 278 1309 q 241 1171 241 1207 q 221 1135 241 1135 q 154 1237 201 1135 q 105 1369 106 1339 l 130 1388 l 154 1356 q 183 1256 156 1333 q 212 1175 211 1179 q 252 1383 245 1299 m 106 203 l 107 258 q 98 448 107 340 q 86 582 88 555 q 79 756 80 595 q 76 935 79 917 q 65 977 74 952 q 56 1015 56 1001 q 160 1048 56 1048 l 167 1048 q 281 990 220 1048 q 360 885 342 932 q 385 773 379 838 q 394 653 391 707 q 403 585 396 599 l 400 547 l 404 541 l 400 529 l 404 522 q 396 484 396 509 q 393 436 396 458 q 388 402 391 414 q 379 366 385 390 q 359 289 372 342 q 233 68 321 140 q 129 -3 145 -3 q 97 4 113 -3 q 78 25 80 12 q 100 81 98 50 l 106 203 m 110 983 l 122 753 q 133 487 122 663 q 143 249 143 311 q 140 113 143 187 l 143 107 l 143 68 l 150 68 q 242 148 202 96 q 304 256 282 199 q 340 380 326 313 q 363 593 363 490 q 139 999 363 999 q 110 983 111 999 z "},"":{"ha":443,"x_min":64,"x_max":597,"o":"m 464 715 l 467 728 q 539 829 539 789 q 511 856 522 839 q 499 891 499 873 q 516 922 499 909 q 551 934 532 934 q 597 893 583 934 l 595 889 q 597 867 597 884 q 581 810 597 850 q 536 738 564 771 q 486 705 509 705 l 464 715 m 364 486 q 371 419 364 431 q 355 296 362 374 q 338 178 348 219 q 313 109 328 138 q 192 -7 277 39 l 96 -7 q 83 31 83 -7 q 78 272 78 138 l 81 600 q 75 861 81 745 q 64 885 64 871 q 75 909 64 899 q 96 920 87 920 q 118 908 106 920 q 136 894 130 897 q 165 887 142 891 q 203 876 188 884 q 253 836 218 869 q 300 794 288 803 l 298 791 q 319 756 300 783 q 343 717 338 729 q 366 551 366 656 l 364 486 m 323 401 l 322 452 l 315 591 q 267 758 313 670 q 211 828 246 800 q 136 856 176 856 q 121 578 121 856 q 136 81 121 300 l 135 54 l 140 52 l 144 33 l 187 33 q 208 54 195 45 q 225 68 220 64 q 323 401 323 157 z "},"":{"ha":569,"x_min":49,"x_max":497,"o":"m 135 811 l 123 1060 q 132 1077 123 1065 q 146 1089 140 1089 q 382 922 262 1089 q 432 842 410 882 l 432 839 q 497 440 497 655 q 464 249 497 349 q 365 63 430 149 q 218 -60 299 -24 q 202 -54 212 -57 q 178 -33 185 -50 l 176 -33 q 164 408 176 151 q 153 511 157 494 l 68 503 q 53 508 56 503 q 49 527 49 514 q 73 546 49 539 q 122 552 98 552 l 147 551 l 153 554 l 154 561 q 144 686 154 602 q 135 811 135 769 m 204 557 l 300 572 q 319 562 311 572 q 329 539 328 551 l 315 522 q 201 513 245 522 q 205 402 201 491 q 211 306 209 314 l 210 304 q 217 154 210 255 q 224 4 224 54 q 250 16 242 8 q 264 31 258 24 q 273 40 271 37 q 395 218 343 109 q 447 409 447 327 q 446 529 447 490 q 418 737 443 643 q 333 930 395 846 q 174 1043 271 1014 l 171 1040 q 181 764 171 953 q 204 557 191 576 z "},"":{"ha":443,"x_min":31,"x_max":371,"o":"m 208 442 q 152 436 208 439 q 73 433 97 433 q 31 456 31 433 q 87 463 31 459 q 165 466 143 466 q 208 442 208 466 m 364 486 q 371 419 364 431 q 355 296 362 374 q 338 178 348 219 q 313 109 328 138 q 192 -7 277 39 l 96 -7 q 83 31 83 -7 q 78 272 78 138 l 81 600 q 75 861 81 745 q 64 885 64 871 q 75 909 64 899 q 96 920 87 920 q 118 908 106 920 q 136 894 130 897 q 165 887 142 891 q 203 876 188 884 q 253 836 218 869 q 300 794 288 803 l 298 791 q 319 756 300 783 q 343 717 338 729 q 366 551 366 656 l 364 486 m 323 401 l 322 452 l 315 591 q 267 758 313 670 q 211 828 246 800 q 136 856 176 856 q 121 578 121 856 q 136 81 121 300 l 135 54 l 140 52 l 144 33 l 187 33 q 208 54 195 45 q 225 68 220 64 q 323 401 323 157 z "},"":{"ha":337,"x_min":1,"x_max":283,"o":"m 259 1161 q 264 1158 259 1161 q 269 1144 269 1154 q 180 1135 268 1135 q 97 1135 128 1135 q 52 1135 66 1135 q 31 1137 38 1136 q 16 1141 24 1139 q 1 1157 1 1145 q 90 1168 3 1168 l 169 1168 q 259 1161 249 1168 m 135 41 l 218 46 q 283 24 283 46 q 242 -2 272 3 q 184 -8 212 -8 l 152 -8 q 80 2 90 -8 q 71 22 71 12 l 83 74 l 83 77 q 78 138 78 104 l 85 279 l 77 576 l 83 852 q 75 927 83 878 q 65 999 66 976 l 90 1038 l 187 1050 l 192 1046 q 230 1037 224 1046 q 235 1019 235 1029 q 184 993 235 993 l 147 996 q 117 979 117 996 l 127 743 l 121 570 l 118 567 l 126 562 l 203 576 q 219 569 210 576 q 228 553 228 561 q 207 525 228 525 l 175 526 q 122 500 122 526 l 132 383 l 127 375 l 127 93 q 135 54 135 84 l 135 41 z "},"":{"ha":333,"x_min":15,"x_max":283,"o":"m 273 1029 q 278 1026 273 1029 q 282 1012 283 1022 q 194 1002 281 1002 q 111 1002 142 1002 q 66 1003 80 1002 q 44 1005 52 1004 q 29 1009 37 1006 q 15 1025 15 1013 q 104 1036 16 1036 l 182 1036 q 273 1029 262 1036 m 74 11 l 75 46 l 71 52 q 81 109 81 79 l 74 292 l 83 710 l 78 876 q 118 916 78 916 q 140 907 134 916 q 180 901 145 905 q 268 867 266 892 q 241 840 268 856 q 129 867 165 865 l 122 859 q 123 799 123 839 l 118 583 q 138 545 118 545 l 184 547 q 239 522 237 547 q 232 497 239 508 q 206 486 224 486 q 179 497 188 486 l 134 504 l 127 504 l 121 497 l 121 493 q 123 383 123 457 l 121 186 q 140 33 121 47 q 184 22 152 22 l 236 25 q 277 7 277 25 q 216 -18 277 -18 l 102 -18 q 74 11 76 -18 z "},"":{"ha":337,"x_min":28,"x_max":283,"o":"m 213 1283 q 227 1277 220 1283 q 234 1264 234 1272 q 227 1242 234 1257 l 230 1232 q 219 1207 227 1225 q 208 1183 212 1190 q 197 1165 205 1177 q 180 1148 189 1153 q 130 1135 157 1135 q 81 1147 102 1135 q 50 1182 60 1160 q 28 1276 28 1224 l 43 1289 q 56 1267 53 1288 q 92 1177 70 1194 l 107 1166 l 142 1166 q 175 1192 160 1166 q 189 1237 189 1217 l 188 1257 q 213 1283 188 1283 m 135 41 l 218 46 q 283 24 283 46 q 242 -2 272 3 q 184 -8 212 -8 l 152 -8 q 80 2 90 -8 q 71 22 71 12 l 83 74 l 83 77 q 78 138 78 104 l 85 279 l 77 576 l 83 852 q 75 927 83 878 q 65 999 66 976 l 90 1038 l 187 1050 l 192 1046 q 230 1037 224 1046 q 235 1019 235 1029 q 184 993 235 993 l 147 996 q 117 979 117 996 l 127 743 l 121 570 l 118 567 l 126 562 l 203 576 q 219 569 210 576 q 228 553 228 561 q 207 525 228 525 l 175 526 q 122 500 122 526 l 132 383 l 127 375 l 127 93 q 135 54 135 84 l 135 41 z "},"":{"ha":333,"x_min":42,"x_max":277,"o":"m 227 1152 q 241 1146 234 1152 q 248 1133 248 1140 q 240 1110 248 1125 l 243 1100 q 233 1076 240 1093 q 222 1052 225 1059 q 210 1033 218 1045 q 194 1017 202 1021 q 143 1003 171 1003 q 95 1016 115 1003 q 63 1050 74 1029 q 42 1145 42 1093 l 57 1157 q 70 1135 66 1156 q 106 1046 83 1062 l 121 1035 l 155 1035 q 188 1060 174 1035 q 203 1105 203 1086 l 201 1125 q 227 1152 201 1152 m 74 11 l 75 46 l 71 52 q 81 109 81 79 l 74 292 l 83 710 l 78 876 q 118 916 78 916 q 140 907 134 916 q 180 901 145 905 q 268 867 266 892 q 241 840 268 856 q 129 867 165 865 l 122 859 q 123 799 123 839 l 118 583 q 138 545 118 545 l 184 547 q 239 522 237 547 q 232 497 239 508 q 206 486 224 486 q 179 497 188 486 l 134 504 l 127 504 l 121 497 l 121 493 q 123 383 123 457 l 121 186 q 140 33 121 47 q 184 22 152 22 l 236 25 q 277 7 277 25 q 216 -18 277 -18 l 102 -18 q 74 11 76 -18 z "},"":{"ha":337,"x_min":65,"x_max":283,"o":"m 131 1135 q 110 1145 119 1135 q 100 1168 100 1156 q 112 1193 100 1181 q 136 1205 123 1205 q 159 1193 149 1205 q 170 1169 170 1181 q 131 1135 170 1135 m 135 41 l 218 46 q 283 24 283 46 q 242 -2 272 3 q 184 -8 212 -8 l 152 -8 q 80 2 90 -8 q 71 22 71 12 l 83 74 l 83 77 q 78 138 78 104 l 85 279 l 77 576 l 83 852 q 75 927 83 878 q 65 999 66 976 l 90 1038 l 187 1050 l 192 1046 q 230 1037 224 1046 q 235 1019 235 1029 q 184 993 235 993 l 147 996 q 117 979 117 996 l 127 743 l 121 570 l 118 567 l 126 562 l 203 576 q 219 569 210 576 q 228 553 228 561 q 207 525 228 525 l 175 526 q 122 500 122 526 l 132 383 l 127 375 l 127 93 q 135 54 135 84 l 135 41 z "},"":{"ha":333,"x_min":71,"x_max":277,"o":"m 144 1003 q 123 1014 132 1003 q 114 1037 114 1024 q 125 1062 114 1050 q 149 1074 136 1074 q 173 1062 162 1074 q 183 1038 183 1050 q 144 1003 183 1003 m 74 11 l 75 46 l 71 52 q 81 109 81 79 l 74 292 l 83 710 l 78 876 q 118 916 78 916 q 140 907 134 916 q 180 901 145 905 q 268 867 266 892 q 241 840 268 856 q 129 867 165 865 l 122 859 q 123 799 123 839 l 118 583 q 138 545 118 545 l 184 547 q 239 522 237 547 q 232 497 239 508 q 206 486 224 486 q 179 497 188 486 l 134 504 l 127 504 l 121 497 l 121 493 q 123 383 123 457 l 121 186 q 140 33 121 47 q 184 22 152 22 l 236 25 q 277 7 277 25 q 216 -18 277 -18 l 102 -18 q 74 11 76 -18 z "},"":{"ha":337,"x_min":65,"x_max":283,"o":"m 180 -279 l 225 -265 q 240 -281 240 -265 q 220 -307 240 -297 q 180 -317 200 -317 q 107 -278 138 -317 q 75 -207 75 -239 q 85 -140 75 -174 q 109 -81 95 -106 q 161 -7 139 -30 l 171 3 l 211 -3 q 212 -4 214 -1 q 203 -18 211 -7 q 138 -161 138 -107 q 135 -193 138 -174 l 134 -222 q 149 -260 134 -240 q 180 -279 163 -279 m 135 41 l 218 46 q 283 24 283 46 q 242 -2 272 3 q 184 -8 212 -8 l 152 -8 q 80 2 90 -8 q 71 22 71 12 l 83 74 l 83 77 q 78 138 78 104 l 85 279 l 77 576 l 83 852 q 75 927 83 878 q 65 999 66 976 l 90 1038 l 187 1050 l 192 1046 q 230 1037 224 1046 q 235 1019 235 1029 q 184 993 235 993 l 147 996 q 117 979 117 996 l 127 743 l 121 570 l 118 567 l 126 562 l 203 576 q 219 569 210 576 q 228 553 228 561 q 207 525 228 525 l 175 526 q 122 500 122 526 l 132 383 l 127 375 l 127 93 q 135 54 135 84 l 135 41 z "},"":{"ha":333,"x_min":54,"x_max":277,"o":"m 159 -290 l 204 -275 q 219 -291 219 -275 q 199 -317 219 -307 q 159 -327 179 -327 q 86 -288 117 -327 q 54 -217 54 -250 q 64 -150 54 -184 q 88 -92 74 -117 q 140 -18 118 -40 l 150 -7 l 190 -13 q 191 -14 193 -12 q 182 -28 190 -17 q 117 -172 117 -117 q 114 -203 117 -184 l 113 -233 q 127 -270 113 -250 q 159 -290 142 -290 m 74 11 l 75 46 l 71 52 q 81 109 81 79 l 74 292 l 83 710 l 78 876 q 118 916 78 916 q 140 907 134 916 q 180 901 145 905 q 268 867 266 892 q 241 840 268 856 q 129 867 165 865 l 122 859 q 123 799 123 839 l 118 583 q 138 545 118 545 l 184 547 q 239 522 237 547 q 232 497 239 508 q 206 486 224 486 q 179 497 188 486 l 134 504 l 127 504 l 121 497 l 121 493 q 123 383 123 457 l 121 186 q 140 33 121 47 q 184 22 152 22 l 236 25 q 277 7 277 25 q 216 -18 277 -18 l 102 -18 q 74 11 76 -18 z "},"":{"ha":337,"x_min":32,"x_max":283,"o":"m 179 1383 l 197 1394 q 222 1378 222 1390 q 217 1362 222 1373 l 218 1356 l 208 1335 l 210 1326 q 193 1276 205 1309 q 168 1171 168 1207 q 148 1135 168 1135 q 80 1237 127 1135 q 32 1369 33 1339 l 57 1388 l 81 1356 q 110 1256 83 1333 q 139 1175 138 1179 q 179 1383 172 1299 m 135 41 l 218 46 q 283 24 283 46 q 242 -2 272 3 q 184 -8 212 -8 l 152 -8 q 80 2 90 -8 q 71 22 71 12 l 83 74 l 83 77 q 78 138 78 104 l 85 279 l 77 576 l 83 852 q 75 927 83 878 q 65 999 66 976 l 90 1038 l 187 1050 l 192 1046 q 230 1037 224 1046 q 235 1019 235 1029 q 184 993 235 993 l 147 996 q 117 979 117 996 l 127 743 l 121 570 l 118 567 l 126 562 l 203 576 q 219 569 210 576 q 228 553 228 561 q 207 525 228 525 l 175 526 q 122 500 122 526 l 132 383 l 127 375 l 127 93 q 135 54 135 84 l 135 41 z "},"":{"ha":333,"x_min":45,"x_max":277,"o":"m 193 1251 l 211 1262 q 236 1246 236 1258 q 231 1230 236 1241 l 232 1223 l 222 1202 l 223 1194 q 207 1143 218 1177 q 182 1039 182 1075 q 161 1002 182 1002 q 94 1104 141 1002 q 45 1237 47 1206 l 71 1255 l 94 1223 q 124 1123 96 1200 q 153 1043 151 1046 q 193 1251 186 1167 m 74 11 l 75 46 l 71 52 q 81 109 81 79 l 74 292 l 83 710 l 78 876 q 118 916 78 916 q 140 907 134 916 q 180 901 145 905 q 268 867 266 892 q 241 840 268 856 q 129 867 165 865 l 122 859 q 123 799 123 839 l 118 583 q 138 545 118 545 l 184 547 q 239 522 237 547 q 232 497 239 508 q 206 486 224 486 q 179 497 188 486 l 134 504 l 127 504 l 121 497 l 121 493 q 123 383 123 457 l 121 186 q 140 33 121 47 q 184 22 152 22 l 236 25 q 277 7 277 25 q 216 -18 277 -18 l 102 -18 q 74 11 76 -18 z "},"":{"ha":525,"x_min":64,"x_max":458,"o":"m 299 1135 l 281 1146 q 241 1354 274 1230 q 203 1249 223 1310 q 182 1174 184 1187 l 159 1142 l 134 1160 q 182 1292 135 1190 q 250 1394 229 1394 q 270 1366 270 1394 q 276 1312 270 1338 q 295 1253 283 1286 q 311 1203 307 1221 l 310 1194 l 320 1174 l 319 1166 q 324 1152 324 1156 q 299 1135 324 1139 m 387 314 q 431 256 431 314 q 445 132 431 214 q 458 8 458 50 q 440 -14 458 -14 q 407 17 407 -14 q 408 20 407 18 q 408 24 408 23 q 373 4 395 20 q 340 -15 351 -12 q 308 -20 330 -18 q 275 -28 286 -21 l 278 -28 q 141 36 186 -7 q 90 153 104 71 q 64 595 64 291 q 71 764 64 714 q 85 853 77 814 q 104 919 93 891 q 132 977 115 947 q 170 1024 149 1006 q 285 1065 218 1065 q 326 1042 326 1065 q 306 1025 326 1025 l 267 1032 q 129 838 160 1032 q 111 561 111 732 q 107 409 107 451 q 108 343 107 366 q 111 284 109 319 q 119 221 113 249 q 133 160 125 193 q 155 103 141 127 q 187 59 169 79 q 294 17 225 17 q 407 86 362 17 q 394 228 407 190 q 371 265 382 265 l 315 260 q 283 283 283 260 q 325 305 283 296 q 387 314 366 314 z "},"":{"ha":467,"x_min":62,"x_max":397,"o":"m 277 1002 l 258 1014 q 218 1222 252 1098 q 181 1116 201 1177 q 160 1042 161 1055 l 136 1010 l 111 1027 q 160 1160 113 1058 q 227 1262 207 1262 q 248 1234 248 1262 q 254 1180 248 1206 q 272 1121 260 1154 q 289 1071 284 1088 l 288 1062 l 298 1042 l 296 1034 q 302 1019 302 1023 q 277 1002 302 1006 m 382 275 l 387 62 q 245 -9 315 -9 q 124 28 153 -9 q 79 205 96 66 q 62 402 62 343 q 69 531 62 460 q 80 666 76 602 q 94 773 84 730 q 252 920 127 920 q 294 900 294 920 q 285 885 294 890 q 267 879 276 879 l 240 882 q 167 822 193 882 q 131 699 138 755 q 121 610 124 643 q 116 534 117 576 q 114 414 114 469 q 118 325 114 358 q 132 270 129 308 q 138 193 136 231 q 149 116 140 154 q 185 54 157 78 q 261 31 213 31 q 345 252 345 31 l 345 354 q 296 368 330 368 l 269 367 q 236 383 236 367 q 269 407 236 407 q 397 379 397 407 l 382 275 z "},"":{"ha":525,"x_min":64,"x_max":458,"o":"m 307 1283 q 321 1277 315 1283 q 328 1264 328 1272 q 321 1242 328 1257 l 324 1232 q 313 1207 321 1225 q 302 1183 306 1190 q 291 1165 299 1177 q 275 1148 283 1153 q 224 1135 252 1135 q 175 1147 196 1135 q 144 1182 155 1160 q 123 1276 123 1224 l 138 1289 q 151 1267 147 1288 q 186 1177 164 1194 l 201 1166 l 236 1166 q 269 1192 254 1166 q 283 1237 283 1217 l 282 1257 q 307 1283 282 1283 m 387 314 q 431 256 431 314 q 445 132 431 214 q 458 8 458 50 q 440 -14 458 -14 q 407 17 407 -14 q 408 20 407 18 q 408 24 408 23 q 373 4 395 20 q 340 -15 351 -12 q 308 -20 330 -18 q 275 -28 286 -21 l 278 -28 q 141 36 186 -7 q 90 153 104 71 q 64 595 64 291 q 71 764 64 714 q 85 853 77 814 q 104 919 93 891 q 132 977 115 947 q 170 1024 149 1006 q 285 1065 218 1065 q 326 1042 326 1065 q 306 1025 326 1025 l 267 1032 q 129 838 160 1032 q 111 561 111 732 q 107 409 107 451 q 108 343 107 366 q 111 284 109 319 q 119 221 113 249 q 133 160 125 193 q 155 103 141 127 q 187 59 169 79 q 294 17 225 17 q 407 86 362 17 q 394 228 407 190 q 371 265 382 265 l 315 260 q 283 283 283 260 q 325 305 283 296 q 387 314 366 314 z "},"":{"ha":467,"x_min":62,"x_max":397,"o":"m 285 1152 q 299 1146 292 1152 q 306 1133 306 1140 q 298 1110 306 1125 l 302 1100 q 291 1076 298 1093 q 280 1052 283 1059 q 269 1033 277 1045 q 252 1017 260 1021 q 201 1003 229 1003 q 153 1016 174 1003 q 121 1050 132 1029 q 100 1145 100 1093 l 115 1157 q 128 1135 125 1156 q 164 1046 142 1062 l 179 1035 l 214 1035 q 247 1060 232 1035 q 261 1105 261 1086 l 260 1125 q 285 1152 260 1152 m 382 275 l 387 62 q 245 -9 315 -9 q 124 28 153 -9 q 79 205 96 66 q 62 402 62 343 q 69 531 62 460 q 80 666 76 602 q 94 773 84 730 q 252 920 127 920 q 294 900 294 920 q 285 885 294 890 q 267 879 276 879 l 240 882 q 167 822 193 882 q 131 699 138 755 q 121 610 124 643 q 116 534 117 576 q 114 414 114 469 q 118 325 114 358 q 132 270 129 308 q 138 193 136 231 q 149 116 140 154 q 185 54 157 78 q 261 31 213 31 q 345 252 345 31 l 345 354 q 296 368 330 368 l 269 367 q 236 383 236 367 q 269 407 236 407 q 397 379 397 407 l 382 275 z "},"":{"ha":525,"x_min":64,"x_max":458,"o":"m 224 1135 q 203 1145 212 1135 q 194 1168 194 1156 q 205 1193 194 1181 q 229 1205 216 1205 q 253 1193 242 1205 q 263 1169 263 1181 q 224 1135 263 1135 m 387 314 q 431 256 431 314 q 445 132 431 214 q 458 8 458 50 q 440 -14 458 -14 q 407 17 407 -14 q 408 20 407 18 q 408 24 408 23 q 373 4 395 20 q 340 -15 351 -12 q 308 -20 330 -18 q 275 -28 286 -21 l 278 -28 q 141 36 186 -7 q 90 153 104 71 q 64 595 64 291 q 71 764 64 714 q 85 853 77 814 q 104 919 93 891 q 132 977 115 947 q 170 1024 149 1006 q 285 1065 218 1065 q 326 1042 326 1065 q 306 1025 326 1025 l 267 1032 q 129 838 160 1032 q 111 561 111 732 q 107 409 107 451 q 108 343 107 366 q 111 284 109 319 q 119 221 113 249 q 133 160 125 193 q 155 103 141 127 q 187 59 169 79 q 294 17 225 17 q 407 86 362 17 q 394 228 407 190 q 371 265 382 265 l 315 260 q 283 283 283 260 q 325 305 283 296 q 387 314 366 314 z "},"":{"ha":467,"x_min":62,"x_max":397,"o":"m 202 1003 q 181 1014 190 1003 q 172 1037 172 1024 q 183 1062 172 1050 q 207 1074 194 1074 q 230 1062 220 1074 q 241 1038 241 1050 q 202 1003 241 1003 m 382 275 l 387 62 q 245 -9 315 -9 q 124 28 153 -9 q 79 205 96 66 q 62 402 62 343 q 69 531 62 460 q 80 666 76 602 q 94 773 84 730 q 252 920 127 920 q 294 900 294 920 q 285 885 294 890 q 267 879 276 879 l 240 882 q 167 822 193 882 q 131 699 138 755 q 121 610 124 643 q 116 534 117 576 q 114 414 114 469 q 118 325 114 358 q 132 270 129 308 q 138 193 136 231 q 149 116 140 154 q 185 54 157 78 q 261 31 213 31 q 345 252 345 31 l 345 354 q 296 368 330 368 l 269 367 q 236 383 236 367 q 269 407 236 407 q 397 379 397 407 l 382 275 z "},"":{"ha":525,"x_min":64,"x_max":458,"o":"m 290 -201 q 249 -140 249 -177 q 266 -109 249 -121 q 302 -97 282 -97 q 348 -138 333 -97 l 345 -142 q 348 -164 348 -147 q 331 -221 348 -182 q 287 -293 314 -260 q 237 -326 260 -326 l 214 -315 l 217 -303 q 290 -201 290 -245 m 387 314 q 431 256 431 314 q 445 132 431 214 q 458 8 458 50 q 440 -14 458 -14 q 407 17 407 -14 q 408 20 407 18 q 408 24 408 23 q 373 4 395 20 q 340 -15 351 -12 q 308 -20 330 -18 q 275 -28 286 -21 l 278 -28 q 141 36 186 -7 q 90 153 104 71 q 64 595 64 291 q 71 764 64 714 q 85 853 77 814 q 104 919 93 891 q 132 977 115 947 q 170 1024 149 1006 q 285 1065 218 1065 q 326 1042 326 1065 q 306 1025 326 1025 l 267 1032 q 129 838 160 1032 q 111 561 111 732 q 107 409 107 451 q 108 343 107 366 q 111 284 109 319 q 119 221 113 249 q 133 160 125 193 q 155 103 141 127 q 187 59 169 79 q 294 17 225 17 q 407 86 362 17 q 394 228 407 190 q 371 265 382 265 l 315 260 q 283 283 283 260 q 325 305 283 296 q 387 314 366 314 z "},"":{"ha":467,"x_min":62,"x_max":397,"o":"m 382 275 l 387 62 q 245 -9 315 -9 q 124 28 153 -9 q 79 205 96 66 q 62 402 62 343 q 69 531 62 460 q 80 666 76 602 q 94 773 84 730 q 252 920 127 920 q 294 900 294 920 q 285 885 294 890 q 267 879 276 879 l 240 882 q 167 822 193 882 q 131 699 138 755 q 121 610 124 643 q 116 534 117 576 q 114 414 114 469 q 118 325 114 358 q 132 270 129 308 q 138 193 136 231 q 149 116 140 154 q 185 54 157 78 q 261 31 213 31 q 345 252 345 31 l 345 354 q 296 368 330 368 l 269 367 q 236 383 236 367 q 269 407 236 407 q 397 379 397 407 l 382 275 m 167 -288 l 170 -275 q 187 -259 172 -273 q 208 -240 202 -246 q 224 -221 214 -233 q 241 -174 241 -199 q 213 -147 224 -164 q 201 -112 201 -130 q 218 -81 201 -94 q 254 -69 235 -69 q 282 -80 273 -69 q 300 -110 292 -90 l 297 -114 q 300 -137 300 -119 q 283 -193 300 -154 q 239 -265 267 -233 q 189 -298 212 -298 l 167 -288 z "},"":{"ha":408,"x_min":64,"x_max":334,"o":"m 250 1135 l 231 1146 q 191 1354 224 1230 q 154 1249 174 1310 q 133 1174 134 1187 l 109 1142 l 84 1160 q 133 1292 85 1190 q 200 1394 180 1394 q 220 1366 220 1394 q 227 1312 220 1338 q 245 1253 233 1286 q 262 1203 257 1221 l 260 1194 l 271 1174 l 269 1166 q 275 1152 275 1156 q 250 1135 275 1139 m 278 559 l 265 1031 q 268 1050 265 1036 q 301 1013 294 1050 q 307 836 307 981 q 317 386 307 690 q 328 33 328 83 q 334 13 334 21 q 326 -9 334 4 q 309 -22 318 -22 q 289 8 289 -22 l 290 40 q 277 517 290 254 l 268 515 l 215 522 q 117 505 146 522 q 129 265 117 425 q 140 25 140 106 q 126 4 140 4 q 103 20 109 4 q 96 116 98 36 q 92 288 93 195 q 89 406 91 380 q 64 1039 64 745 l 86 1050 l 104 1035 q 98 932 98 983 l 110 650 l 109 595 q 114 546 109 567 l 277 557 l 278 559 z "},"":{"ha":411,"x_min":71,"x_max":335,"o":"m 242 1002 l 224 1014 q 184 1222 217 1098 q 146 1116 166 1177 q 125 1042 127 1055 l 102 1010 l 77 1027 q 125 1160 78 1058 q 193 1262 172 1262 q 213 1234 213 1262 q 219 1180 213 1206 q 238 1121 226 1154 q 254 1071 250 1088 l 253 1062 l 263 1042 l 262 1034 q 267 1019 267 1023 q 242 1002 267 1006 m 260 911 q 267 926 260 920 q 279 932 275 932 q 309 924 284 932 q 317 599 309 815 q 326 251 326 383 q 335 0 326 119 l 326 -16 q 283 -1 325 -1 q 277 371 277 307 l 273 376 l 278 389 q 273 440 278 410 l 252 446 q 224 441 239 441 l 135 456 l 121 450 l 117 275 l 121 269 l 129 37 q 106 1 129 1 q 75 85 75 1 l 78 339 q 74 475 78 465 q 81 567 81 488 q 71 892 81 567 q 78 910 71 901 q 94 918 85 918 q 122 838 122 918 l 117 498 q 228 482 117 482 q 266 492 254 482 q 278 547 278 502 q 269 719 278 591 q 260 911 260 847 m 239 501 l 241 498 l 239 498 l 239 501 z "},"":{"ha":408,"x_min":36,"x_max":334,"o":"m 36 842 q 306 848 36 848 q 320 841 313 848 q 326 822 326 833 q 113 819 334 823 l 83 819 l 83 818 l 65 818 q 45 824 55 818 q 36 842 36 831 m 278 559 l 265 1031 q 268 1050 265 1036 q 301 1013 294 1050 q 307 836 307 981 q 317 386 307 690 q 328 33 328 83 q 334 13 334 21 q 326 -9 334 4 q 309 -22 318 -22 q 289 8 289 -22 l 290 40 q 277 517 290 254 l 268 515 l 215 522 q 117 505 146 522 q 129 265 117 425 q 140 25 140 106 q 126 4 140 4 q 103 20 109 4 q 96 116 98 36 q 92 288 93 195 q 89 406 91 380 q 64 1039 64 745 l 86 1050 l 104 1035 q 98 932 98 983 l 110 650 l 109 595 q 114 546 109 567 l 277 557 l 278 559 z "},"":{"ha":411,"x_min":58,"x_max":335,"o":"m 260 911 q 267 926 260 920 q 279 932 275 932 q 309 924 284 932 q 317 599 309 815 q 326 251 326 383 q 335 0 326 119 l 326 -16 q 283 -1 325 -1 q 277 371 277 307 l 273 376 l 278 389 q 273 440 278 410 l 252 446 q 224 441 239 441 l 135 456 l 121 450 l 117 275 l 121 269 l 129 37 q 106 1 129 1 q 75 85 75 1 l 78 339 q 74 475 78 465 q 81 567 81 488 q 71 892 81 567 q 78 910 71 901 q 94 918 85 918 q 122 838 122 918 l 117 498 q 228 482 117 482 q 266 492 254 482 q 278 547 278 502 q 269 719 278 591 q 260 911 260 847 m 239 501 l 241 498 l 239 498 l 239 501 m 326 749 q 236 722 326 734 q 111 709 145 709 q 68 715 77 709 q 58 732 58 722 q 150 760 58 747 q 273 772 241 772 q 326 749 326 772 z "},"":{"ha":323,"x_min":-28,"x_max":268,"o":"m 227 1222 l 218 1249 q 236 1257 222 1257 q 257 1242 249 1257 q 264 1203 264 1227 q 242 1158 264 1180 q 193 1136 220 1136 q 140 1151 165 1136 q 102 1178 115 1165 q 67 1218 90 1192 l 58 1222 l 33 1222 q 18 1205 31 1214 q 6 1188 6 1196 q 13 1156 6 1179 l -2 1135 q -20 1142 -11 1135 q -28 1158 -28 1149 q -7 1229 -28 1201 q 56 1257 15 1257 q 111 1226 101 1234 q 138 1189 121 1206 q 168 1172 155 1172 q 185 1173 181 1172 l 195 1171 q 208 1186 198 1180 q 227 1222 227 1197 m 244 5 l 200 12 q 168 -4 184 12 q 129 7 137 -4 l 125 7 q 52 31 62 7 q 83 46 52 46 l 114 45 q 142 85 142 45 q 139 182 143 125 q 133 297 134 240 q 125 519 132 354 q 117 755 119 684 l 118 918 q 114 999 118 985 l 66 989 q 52 1008 52 989 q 113 1040 52 1027 q 195 1053 174 1053 q 232 1030 232 1053 q 215 1007 232 1007 l 182 1008 q 153 986 158 1008 q 149 878 149 968 q 166 524 149 789 q 183 125 183 258 l 182 53 l 232 57 q 268 22 268 57 l 244 5 z "},"":{"ha":373,"x_min":16,"x_max":318,"o":"m 271 1090 l 263 1117 q 280 1125 267 1125 q 301 1110 294 1125 q 309 1072 309 1095 q 287 1026 309 1048 q 237 1004 264 1004 q 185 1019 210 1004 q 147 1047 160 1034 q 112 1086 134 1060 l 102 1090 l 77 1090 q 63 1074 75 1082 q 51 1056 51 1065 q 58 1024 51 1048 l 43 1003 q 25 1010 34 1003 q 16 1027 16 1018 q 38 1097 16 1069 q 101 1125 60 1125 q 156 1095 146 1102 q 183 1057 166 1074 q 213 1040 200 1040 q 230 1042 226 1040 l 239 1039 q 253 1055 243 1048 q 271 1090 271 1065 m 288 11 l 241 16 q 216 8 231 16 q 180 0 201 0 q 154 14 159 0 l 131 12 q 93 26 101 12 q 101 41 93 35 q 111 50 109 47 l 151 50 l 157 56 l 161 85 q 151 389 161 85 l 158 713 q 151 873 158 807 q 110 878 138 878 l 77 875 q 50 899 50 875 q 63 910 50 905 q 83 916 75 916 q 277 873 277 916 q 273 863 277 869 l 241 860 q 201 868 231 868 l 195 864 q 199 790 199 852 l 195 460 l 204 155 l 203 113 q 207 74 203 80 l 205 71 q 236 57 205 57 l 277 58 q 318 39 318 58 q 309 19 318 26 q 288 11 300 11 z "},"":{"ha":323,"x_min":-15,"x_max":268,"o":"m 243 1161 q 248 1158 243 1161 q 252 1144 253 1154 q 164 1135 252 1135 q 81 1135 112 1135 q 36 1135 50 1135 q 15 1137 22 1136 q -1 1141 7 1139 q -15 1157 -15 1145 q 74 1168 -14 1168 l 153 1168 q 243 1161 233 1168 m 244 5 l 200 12 q 168 -4 184 12 q 129 7 137 -4 l 125 7 q 52 31 62 7 q 83 46 52 46 l 114 45 q 142 85 142 45 q 139 182 143 125 q 133 297 134 240 q 125 519 132 354 q 117 755 119 684 l 118 918 q 114 999 118 985 l 66 989 q 52 1008 52 989 q 113 1040 52 1027 q 195 1053 174 1053 q 232 1030 232 1053 q 215 1007 232 1007 l 182 1008 q 153 986 158 1008 q 149 878 149 968 q 166 524 149 789 q 183 125 183 258 l 182 53 l 232 57 q 268 22 268 57 l 244 5 z "},"":{"ha":373,"x_min":30,"x_max":318,"o":"m 288 1029 q 293 1026 288 1029 q 297 1012 298 1022 q 209 1002 296 1002 q 126 1002 157 1002 q 81 1003 95 1002 q 59 1005 66 1004 q 44 1009 52 1006 q 30 1025 30 1013 q 119 1036 31 1036 l 197 1036 q 288 1029 277 1036 m 288 11 l 241 16 q 216 8 231 16 q 180 0 201 0 q 154 14 159 0 l 131 12 q 93 26 101 12 q 101 41 93 35 q 111 50 109 47 l 151 50 l 157 56 l 161 85 q 151 389 161 85 l 158 713 q 151 873 158 807 q 110 878 138 878 l 77 875 q 50 899 50 875 q 63 910 50 905 q 83 916 75 916 q 277 873 277 916 q 273 863 277 869 l 241 860 q 201 868 231 868 l 195 864 q 199 790 199 852 l 195 460 l 204 155 l 203 113 q 207 74 203 80 l 205 71 q 236 57 205 57 l 277 58 q 318 39 318 58 q 309 19 318 26 q 288 11 300 11 z "},"":{"ha":323,"x_min":12,"x_max":268,"o":"m 196 1283 q 210 1277 203 1283 q 217 1264 217 1272 q 210 1242 217 1257 l 213 1232 q 202 1207 210 1225 q 191 1183 195 1190 q 180 1165 188 1177 q 163 1148 172 1153 q 113 1135 140 1135 q 64 1147 85 1135 q 33 1182 43 1160 q 12 1276 12 1224 l 26 1289 q 39 1267 36 1288 q 75 1177 53 1194 l 90 1166 l 125 1166 q 158 1192 143 1166 q 172 1237 172 1217 l 171 1257 q 196 1283 171 1283 m 244 5 l 200 12 q 168 -4 184 12 q 129 7 137 -4 l 125 7 q 52 31 62 7 q 83 46 52 46 l 114 45 q 142 85 142 45 q 139 182 143 125 q 133 297 134 240 q 125 519 132 354 q 117 755 119 684 l 118 918 q 114 999 118 985 l 66 989 q 52 1008 52 989 q 113 1040 52 1027 q 195 1053 174 1053 q 232 1030 232 1053 q 215 1007 232 1007 l 182 1008 q 153 986 158 1008 q 149 878 149 968 q 166 524 149 789 q 183 125 183 258 l 182 53 l 232 57 q 268 22 268 57 l 244 5 z "},"":{"ha":373,"x_min":50,"x_max":318,"o":"m 241 1152 q 256 1146 249 1152 q 262 1133 262 1140 q 255 1110 262 1125 l 258 1100 q 248 1076 255 1093 q 237 1052 240 1059 q 225 1033 233 1045 q 209 1017 217 1021 q 158 1003 186 1003 q 110 1016 130 1003 q 78 1050 89 1029 q 57 1145 57 1093 l 72 1157 q 85 1135 81 1156 q 121 1046 98 1062 l 136 1035 l 170 1035 q 203 1060 189 1035 q 218 1105 218 1086 l 216 1125 q 241 1152 216 1152 m 288 11 l 241 16 q 216 8 231 16 q 180 0 201 0 q 154 14 159 0 l 131 12 q 93 26 101 12 q 101 41 93 35 q 111 50 109 47 l 151 50 l 157 56 l 161 85 q 151 389 161 85 l 158 713 q 151 873 158 807 q 110 878 138 878 l 77 875 q 50 899 50 875 q 63 910 50 905 q 83 916 75 916 q 277 873 277 916 q 273 863 277 869 l 241 860 q 201 868 231 868 l 195 864 q 199 790 199 852 l 195 460 l 204 155 l 203 113 q 207 74 203 80 l 205 71 q 236 57 205 57 l 277 58 q 318 39 318 58 q 309 19 318 26 q 288 11 300 11 z "},"":{"ha":323,"x_min":52,"x_max":268,"o":"m 162 -275 l 207 -261 q 222 -277 222 -261 q 202 -303 222 -293 q 162 -313 182 -313 q 89 -274 120 -313 q 57 -202 57 -235 q 67 -136 57 -170 q 91 -77 77 -102 q 143 -3 121 -26 l 153 7 l 193 1 q 194 0 195 3 q 184 -14 193 -3 q 119 -157 119 -103 q 117 -189 119 -170 l 115 -218 q 130 -256 115 -236 q 162 -275 145 -275 m 244 5 l 200 12 q 168 -4 184 12 q 129 7 137 -4 l 125 7 q 52 31 62 7 q 83 46 52 46 l 114 45 q 142 85 142 45 q 139 182 143 125 q 133 297 134 240 q 125 519 132 354 q 117 755 119 684 l 118 918 q 114 999 118 985 l 66 989 q 52 1008 52 989 q 113 1040 52 1027 q 195 1053 174 1053 q 232 1030 232 1053 q 215 1007 232 1007 l 182 1008 q 153 986 158 1008 q 149 878 149 968 q 166 524 149 789 q 183 125 183 258 l 182 53 l 232 57 q 268 22 268 57 l 244 5 z "},"":{"ha":373,"x_min":50,"x_max":318,"o":"m 202 -271 l 247 -257 q 262 -273 262 -257 q 242 -299 262 -289 q 202 -309 222 -309 q 129 -270 160 -309 q 97 -198 97 -231 q 107 -132 97 -165 q 131 -73 117 -98 q 183 1 161 -22 l 193 11 l 233 5 q 234 4 235 7 q 224 -10 233 1 q 159 -153 159 -99 q 157 -185 159 -166 l 155 -214 q 170 -252 155 -232 q 202 -271 185 -271 m 288 11 l 241 16 q 216 8 231 16 q 180 0 201 0 q 154 14 159 0 l 131 12 q 93 26 101 12 q 101 41 93 35 q 111 50 109 47 l 151 50 l 157 56 l 161 85 q 151 389 161 85 l 158 713 q 151 873 158 807 q 110 878 138 878 l 77 875 q 50 899 50 875 q 63 910 50 905 q 83 916 75 916 q 277 873 277 916 q 273 863 277 869 l 241 860 q 201 868 231 868 l 195 864 q 199 790 199 852 l 195 460 l 204 155 l 203 113 q 207 74 203 80 l 205 71 q 236 57 205 57 l 277 58 q 318 39 318 58 q 309 19 318 26 q 288 11 300 11 z "},"":{"ha":323,"x_min":52,"x_max":268,"o":"m 114 1135 q 93 1145 102 1135 q 83 1168 83 1156 q 95 1193 83 1181 q 119 1205 106 1205 q 142 1193 132 1205 q 153 1169 153 1181 q 114 1135 153 1135 m 244 5 l 200 12 q 168 -4 184 12 q 129 7 137 -4 l 125 7 q 52 31 62 7 q 83 46 52 46 l 114 45 q 142 85 142 45 q 139 182 143 125 q 133 297 134 240 q 125 519 132 354 q 117 755 119 684 l 118 918 q 114 999 118 985 l 66 989 q 52 1008 52 989 q 113 1040 52 1027 q 195 1053 174 1053 q 232 1030 232 1053 q 215 1007 232 1007 l 182 1008 q 153 986 158 1008 q 149 878 149 968 q 166 524 149 789 q 183 125 183 258 l 182 53 l 232 57 q 268 22 268 57 l 244 5 z "},"":{"ha":373,"x_min":50,"x_max":318,"o":"m 288 11 l 241 16 q 216 8 231 16 q 180 0 201 0 q 154 14 159 0 l 131 12 q 93 26 101 12 q 101 41 93 35 q 111 50 109 47 l 151 50 l 157 56 l 161 85 q 151 389 161 85 l 158 713 q 151 873 158 807 q 110 878 138 878 l 77 875 q 50 899 50 875 q 63 910 50 905 q 83 916 75 916 q 277 873 277 916 q 273 863 277 869 l 241 860 q 201 868 231 868 l 195 864 q 199 790 199 852 l 195 460 l 204 155 l 203 113 q 207 74 203 80 l 205 71 q 236 57 205 57 l 277 58 q 318 39 318 58 q 309 19 318 26 q 288 11 300 11 z "},"":{"ha":642,"x_min":52,"x_max":586,"o":"m 547 207 l 540 93 q 545 68 540 77 l 534 46 q 497 -54 532 -3 q 422 -135 463 -105 q 393 -109 393 -135 q 416 -81 394 -96 q 443 -62 439 -66 q 504 150 504 -1 q 497 355 504 222 q 488 591 490 489 q 465 1010 480 928 l 391 997 q 378 1003 383 997 q 372 1018 372 1010 q 564 1053 372 1053 q 579 1046 573 1053 q 586 1031 586 1040 q 522 1010 586 1010 l 507 1010 l 505 983 q 514 873 505 947 q 522 735 522 800 q 535 485 522 669 q 547 207 547 300 m 465 -17 q 467 -18 467 -17 l 465 -17 m 244 5 l 200 12 q 168 -4 184 12 q 129 7 137 -4 l 125 7 q 52 31 62 7 q 83 46 52 46 l 114 45 q 142 85 142 45 q 139 182 143 125 q 133 297 134 240 q 125 519 132 354 q 117 755 119 684 l 118 918 q 114 999 118 985 l 66 989 q 52 1008 52 989 q 113 1040 52 1027 q 195 1053 174 1053 q 232 1030 232 1053 q 215 1007 232 1007 l 182 1008 q 153 986 158 1008 q 149 878 149 968 q 166 524 149 789 q 183 125 183 258 l 182 53 l 232 57 q 268 22 268 57 l 244 5 z "},"":{"ha":762,"x_min":50,"x_max":710,"o":"m 422 -139 l 421 -134 q 471 -95 421 -127 q 526 -57 521 -63 q 560 20 549 -32 q 571 117 571 71 q 558 854 571 117 l 550 869 q 516 876 544 872 q 449 905 449 885 q 460 917 449 911 q 494 922 472 922 q 613 903 517 922 q 710 864 710 883 q 688 846 710 846 l 612 860 q 600 832 600 860 l 614 256 l 614 103 q 606 51 606 85 q 597 -18 606 17 q 572 -88 588 -53 q 527 -147 555 -123 q 464 -171 498 -171 l 454 -171 l 422 -139 m 288 11 l 241 16 q 216 8 231 16 q 180 0 201 0 q 154 14 159 0 l 131 12 q 93 26 101 12 q 101 41 93 35 q 111 50 109 47 l 151 50 l 157 56 l 161 85 q 151 389 161 85 l 158 713 q 151 873 158 807 q 110 878 138 878 l 77 875 q 50 899 50 875 q 63 910 50 905 q 83 916 75 916 q 277 873 277 916 q 273 863 277 869 l 241 860 q 201 868 231 868 l 195 864 q 199 790 199 852 l 195 460 l 204 155 l 203 113 q 207 74 203 80 l 205 71 q 236 57 205 57 l 277 58 q 318 39 318 58 q 309 19 318 26 q 288 11 300 11 z "},"":{"ha":317,"x_min":45,"x_max":262,"o":"m 210 1135 l 192 1146 q 152 1354 185 1230 q 115 1249 134 1310 q 94 1174 95 1187 l 70 1142 l 45 1160 q 93 1292 46 1190 q 161 1394 140 1394 q 181 1366 181 1394 q 188 1312 181 1338 q 206 1253 194 1286 q 222 1203 218 1221 l 221 1194 l 231 1174 l 230 1166 q 235 1152 235 1156 q 210 1135 235 1139 m 224 207 l 216 93 q 221 68 216 77 l 211 46 q 174 -54 208 -3 q 98 -135 139 -105 q 69 -109 69 -135 q 93 -81 71 -96 q 119 -62 115 -66 q 180 150 180 -1 q 174 355 180 222 q 164 591 167 489 q 142 1010 157 928 l 68 997 q 54 1003 60 997 q 49 1018 49 1010 q 240 1053 49 1053 q 256 1046 250 1053 q 262 1031 262 1040 q 198 1010 262 1010 l 183 1010 l 182 983 q 190 873 182 947 q 199 735 199 800 q 211 485 199 669 q 224 207 224 300 m 142 -17 q 143 -18 143 -17 l 142 -17 z "},"":{"ha":389,"x_min":47,"x_max":336,"o":"m 237 1002 l 219 1014 q 179 1222 212 1098 q 142 1116 161 1177 q 121 1042 122 1055 l 97 1010 l 72 1027 q 120 1160 73 1058 q 188 1262 168 1262 q 208 1234 208 1262 q 215 1180 208 1206 q 233 1121 221 1154 q 250 1071 245 1088 l 248 1062 l 258 1042 l 257 1034 q 262 1019 262 1023 q 237 1002 262 1006 m 49 -139 l 47 -134 q 97 -95 47 -127 q 153 -57 147 -63 q 186 20 175 -32 q 197 117 197 71 q 184 854 197 117 l 176 869 q 142 876 170 872 q 75 905 75 885 q 87 917 75 911 q 121 922 98 922 q 240 903 143 922 q 336 864 336 883 q 314 846 336 846 l 239 860 q 227 832 227 860 l 240 256 l 240 103 q 232 51 232 85 q 223 -18 232 17 q 198 -88 214 -53 q 153 -147 182 -123 q 90 -171 125 -171 l 81 -171 l 49 -139 z "},"":{"ha":468,"x_min":69,"x_max":411,"o":"m 258 -205 q 218 -144 218 -181 q 234 -113 218 -125 q 271 -101 251 -101 q 317 -142 302 -101 l 314 -146 q 317 -169 317 -151 q 300 -225 317 -186 q 256 -297 283 -264 q 205 -330 229 -330 l 183 -319 l 186 -307 q 258 -205 258 -249 m 383 -32 l 364 -26 q 281 332 337 134 q 180 616 226 530 l 176 614 q 147 555 172 597 q 119 487 122 512 q 117 390 117 463 l 123 83 q 94 -4 123 -4 q 69 60 69 -4 q 78 253 69 124 q 87 446 87 381 q 82 945 87 446 l 79 950 l 69 1015 q 93 1044 69 1044 q 110 1042 105 1044 q 119 1023 115 1039 q 126 884 126 998 l 121 586 l 122 586 q 196 761 150 645 q 249 890 243 876 q 347 1083 324 1083 q 371 1063 371 1083 q 353 1015 368 1038 q 336 984 339 991 q 313 935 332 977 q 279 862 293 893 q 247 790 264 831 q 205 673 208 701 l 212 661 l 207 657 q 316 313 254 538 q 411 -5 378 87 q 383 -32 409 -32 z "},"":{"ha":459,"x_min":69,"x_max":401,"o":"m 259 -199 q 218 -138 218 -174 q 235 -106 218 -119 q 271 -94 252 -94 q 317 -135 302 -94 l 315 -139 q 317 -162 317 -144 q 300 -218 317 -179 q 256 -290 283 -258 q 206 -323 229 -323 l 184 -313 l 186 -300 q 259 -199 259 -242 m 232 631 l 229 542 q 277 311 229 479 q 374 54 334 109 q 401 3 401 18 q 378 -25 401 -25 q 299 100 345 -25 q 222 358 254 224 q 189 539 191 491 l 186 545 q 164 499 181 534 q 140 450 146 465 q 119 351 119 401 l 113 252 l 113 74 l 122 -5 q 115 -18 122 -13 q 95 -22 108 -22 q 76 -17 82 -22 q 69 7 69 -11 l 69 268 l 82 443 l 96 711 l 96 904 q 118 920 103 920 q 140 911 132 920 q 149 893 149 903 q 136 825 136 871 q 134 680 136 779 q 131 533 131 582 q 239 725 144 538 q 343 911 334 911 q 380 888 378 911 q 232 631 294 760 z "},"":{"ha":459,"x_min":69,"x_max":401,"o":"m 232 631 l 229 542 q 277 311 229 479 q 374 54 334 109 q 401 3 401 18 q 378 -25 401 -25 q 299 100 345 -25 q 222 358 254 224 q 189 539 191 491 l 186 545 q 164 499 181 534 q 140 450 146 465 q 119 351 119 401 l 113 252 l 113 74 l 122 -5 q 115 -18 122 -13 q 95 -22 108 -22 q 76 -17 82 -22 q 69 7 69 -11 l 69 268 l 82 443 l 96 711 l 96 904 q 118 920 103 920 q 140 911 132 920 q 149 893 149 903 q 136 825 136 871 q 134 680 136 779 q 131 533 131 582 q 239 725 144 538 q 343 911 334 911 q 380 888 378 911 q 232 631 294 760 z "},"":{"ha":322,"x_min":66,"x_max":312,"o":"m 134 1135 q 109 1156 109 1135 q 192 1227 109 1164 q 281 1297 274 1291 q 312 1276 312 1297 q 308 1255 312 1275 q 134 1135 238 1223 m 199 0 l 155 1 q 136 -7 148 1 q 115 -16 125 -16 q 96 -7 106 -16 q 86 14 86 2 l 94 77 l 81 471 l 66 1051 q 85 1065 66 1065 q 111 1040 111 1065 q 118 634 111 720 q 125 528 125 548 q 122 473 125 507 l 126 468 q 123 394 123 431 q 131 250 123 356 q 139 98 138 143 q 134 71 134 90 q 140 44 134 51 q 168 37 146 37 q 196 46 189 37 l 248 46 q 267 24 267 37 q 248 -3 267 -3 q 227 3 243 -3 q 199 0 220 0 z "},"":{"ha":337,"x_min":74,"x_max":319,"o":"m 142 1003 q 117 1023 117 1003 q 199 1095 117 1031 q 289 1165 281 1158 q 319 1143 319 1165 q 315 1122 319 1143 q 142 1003 245 1091 m 127 32 l 258 28 l 262 28 q 277 20 270 28 q 283 4 283 12 q 261 -14 283 -12 q 146 -12 225 -12 l 149 -14 l 97 -18 q 74 14 77 -18 q 77 60 77 27 l 85 800 l 92 892 q 102 901 92 901 l 125 896 q 123 786 125 896 l 125 484 q 121 367 121 370 l 123 249 l 119 237 l 121 239 l 119 228 q 123 208 119 216 l 119 75 l 119 66 q 121 38 119 45 q 127 32 122 32 z "},"":{"ha":322,"x_min":66,"x_max":267,"o":"m 193 -189 q 153 -128 153 -165 q 169 -97 153 -109 q 205 -85 186 -85 q 252 -125 237 -85 l 249 -130 q 252 -152 252 -135 q 235 -209 252 -170 q 191 -281 218 -248 q 140 -314 163 -313 l 118 -303 l 121 -291 q 193 -189 193 -233 m 199 0 l 155 1 q 136 -7 148 1 q 115 -16 125 -16 q 96 -7 106 -16 q 86 14 86 2 l 94 77 l 81 471 l 66 1051 q 85 1065 66 1065 q 111 1040 111 1065 q 118 634 111 720 q 125 528 125 548 q 122 473 125 507 l 126 468 q 123 394 123 431 q 131 250 123 356 q 139 98 138 143 q 134 71 134 90 q 140 44 134 51 q 168 37 146 37 q 196 46 189 37 l 248 46 q 267 24 267 37 q 248 -3 267 -3 q 227 3 243 -3 q 199 0 220 0 z "},"":{"ha":337,"x_min":74,"x_max":283,"o":"m 196 -192 q 155 -131 155 -168 q 172 -100 155 -112 q 208 -87 189 -87 q 254 -128 239 -87 l 252 -132 q 254 -155 254 -138 q 237 -212 254 -172 q 193 -283 220 -251 q 143 -317 166 -316 l 121 -306 l 123 -294 q 196 -192 196 -235 m 127 32 l 258 28 l 262 28 q 277 20 270 28 q 283 4 283 12 q 261 -14 283 -12 q 146 -12 225 -12 l 149 -14 l 97 -18 q 74 14 77 -18 q 77 60 77 27 l 85 800 l 92 892 q 102 901 92 901 l 125 896 q 123 786 125 896 l 125 484 q 121 367 121 370 l 123 249 l 119 237 l 121 239 l 119 228 q 123 208 119 216 l 119 75 l 119 66 q 121 38 119 45 q 127 32 122 32 z "},"":{"ha":322,"x_min":66,"x_max":473,"o":"m 340 847 l 342 860 q 415 961 415 920 q 387 987 398 970 q 375 1023 375 1004 q 392 1053 375 1041 q 427 1065 408 1065 q 473 1025 458 1065 l 471 1021 q 473 998 473 1015 q 456 942 473 981 q 412 870 439 903 q 362 836 385 837 l 340 847 m 199 0 l 155 1 q 136 -7 148 1 q 115 -16 125 -16 q 96 -7 106 -16 q 86 14 86 2 l 94 77 l 81 471 l 66 1051 q 85 1065 66 1065 q 111 1040 111 1065 q 118 634 111 720 q 125 528 125 548 q 122 473 125 507 l 126 468 q 123 394 123 431 q 131 250 123 356 q 139 98 138 143 q 134 71 134 90 q 140 44 134 51 q 168 37 146 37 q 196 46 189 37 l 248 46 q 267 24 267 37 q 248 -3 267 -3 q 227 3 243 -3 q 199 0 220 0 z "},"":{"ha":337,"x_min":74,"x_max":496,"o":"m 362 715 l 365 728 q 437 829 437 789 q 409 856 420 839 q 397 891 397 873 q 414 922 397 909 q 450 934 431 934 q 496 893 481 934 l 493 889 q 496 867 496 884 q 479 810 496 850 q 435 738 462 771 q 385 705 408 705 l 362 715 m 127 32 l 258 28 l 262 28 q 277 20 270 28 q 283 4 283 12 q 261 -14 283 -12 q 146 -12 225 -12 l 149 -14 l 97 -18 q 74 14 77 -18 q 77 60 77 27 l 85 800 l 92 892 q 102 901 92 901 l 125 896 q 123 786 125 896 l 125 484 q 121 367 121 370 l 123 249 l 119 237 l 121 239 l 119 228 q 123 208 119 216 l 119 75 l 119 66 q 121 38 119 45 q 127 32 122 32 z "},"":{"ha":322,"x_min":66,"x_max":267,"o":"m 153 490 q 132 500 141 490 q 123 524 123 511 q 134 549 123 537 q 158 561 145 561 q 181 549 171 561 q 192 525 192 537 q 153 490 192 490 m 199 0 l 155 1 q 136 -7 148 1 q 115 -16 125 -16 q 96 -7 106 -16 q 86 14 86 2 l 94 77 l 81 471 l 66 1051 q 85 1065 66 1065 q 111 1040 111 1065 q 118 634 111 720 q 125 528 125 548 q 122 473 125 507 l 126 468 q 123 394 123 431 q 131 250 123 356 q 139 98 138 143 q 134 71 134 90 q 140 44 134 51 q 168 37 146 37 q 196 46 189 37 l 248 46 q 267 24 267 37 q 248 -3 267 -3 q 227 3 243 -3 q 199 0 220 0 z "},"":{"ha":559,"x_min":74,"x_max":484,"o":"m 445 472 q 424 483 433 472 q 414 506 414 493 q 426 531 414 519 q 450 543 437 543 q 473 531 463 543 q 484 507 484 519 q 445 472 484 472 m 127 32 l 258 28 l 262 28 q 277 20 270 28 q 283 4 283 12 q 261 -14 283 -12 q 146 -12 225 -12 l 149 -14 l 97 -18 q 74 14 77 -18 q 77 60 77 27 l 85 800 l 92 892 q 102 901 92 901 l 125 896 q 123 786 125 896 l 125 484 q 121 367 121 370 l 123 249 l 119 237 l 121 239 l 119 228 q 123 208 119 216 l 119 75 l 119 66 q 121 38 119 45 q 127 32 122 32 z "},"":{"ha":322,"x_min":28,"x_max":296,"o":"m 199 0 l 155 1 q 136 -7 148 1 q 115 -16 125 -16 q 96 -7 106 -16 q 86 14 86 2 l 94 77 l 81 471 l 66 1051 q 85 1065 66 1065 q 111 1040 111 1065 q 118 634 111 720 q 125 528 125 548 q 122 473 125 507 l 126 468 q 123 394 123 431 q 131 250 123 356 q 139 98 138 143 q 134 71 134 90 q 140 44 134 51 q 168 37 146 37 q 196 46 189 37 l 248 46 q 267 24 267 37 q 248 -3 267 -3 q 227 3 243 -3 q 199 0 220 0 m 296 501 q 205 474 296 487 q 81 461 115 461 q 37 468 47 461 q 28 485 28 474 q 119 512 28 499 q 243 525 211 525 q 296 501 296 525 z "},"":{"ha":337,"x_min":35,"x_max":303,"o":"m 127 32 l 258 28 l 262 28 q 277 20 270 28 q 283 4 283 12 q 261 -14 283 -12 q 146 -12 225 -12 l 149 -14 l 97 -18 q 74 14 77 -18 q 77 60 77 27 l 85 800 l 92 892 q 102 901 92 901 l 125 896 q 123 786 125 896 l 125 484 q 121 367 121 370 l 123 249 l 119 237 l 121 239 l 119 228 q 123 208 119 216 l 119 75 l 119 66 q 121 38 119 45 q 127 32 122 32 m 303 501 q 213 474 303 487 q 88 461 122 461 q 45 468 54 461 q 35 485 35 474 q 127 512 35 499 q 250 525 218 525 q 303 501 303 525 z "},"":{"ha":524,"x_min":71,"x_max":449,"o":"m 242 1152 q 217 1172 217 1152 q 299 1243 217 1180 q 389 1314 382 1307 q 420 1292 420 1314 q 416 1271 420 1291 q 242 1152 346 1240 m 421 75 l 425 25 q 390 -16 425 -16 q 357 37 366 -16 q 351 64 352 61 q 180 689 216 492 q 178 708 179 695 q 165 747 177 736 l 168 754 q 155 826 159 806 q 145 871 151 846 q 121 950 136 915 q 117 907 117 922 q 119 884 117 892 q 110 787 110 851 l 110 407 q 119 209 110 340 q 129 11 129 77 l 119 0 l 87 0 l 83 11 q 86 66 86 22 l 71 550 l 71 732 l 81 994 l 79 1023 q 89 1047 79 1041 q 112 1053 98 1053 q 138 1044 127 1053 q 149 1017 149 1036 q 155 977 149 999 q 172 929 161 956 q 190 880 184 902 q 202 809 197 858 q 215 724 208 761 q 239 623 222 686 q 278 484 256 560 q 307 383 300 407 q 323 321 313 359 q 346 212 345 244 q 360 157 355 198 q 383 102 366 117 q 392 168 392 121 l 397 652 l 393 867 l 397 920 q 393 937 397 935 l 397 949 q 392 1063 397 1034 q 427 1082 397 1082 q 449 1036 449 1082 q 440 990 440 1019 l 441 943 q 436 901 441 913 l 432 463 q 435 425 432 450 l 432 419 l 432 244 l 435 192 q 421 78 435 109 l 421 75 z "},"":{"ha":585,"x_min":71,"x_max":510,"o":"m 272 1003 q 247 1023 247 1003 q 329 1095 247 1031 q 419 1165 412 1158 q 450 1143 450 1165 q 446 1122 450 1143 q 272 1003 376 1091 m 463 846 l 460 880 q 479 909 460 909 q 502 897 493 909 q 510 869 510 884 l 510 777 l 503 765 q 488 345 503 656 q 458 4 473 33 q 438 -1 455 3 q 415 -5 422 -5 q 403 4 408 -5 q 394 28 397 13 q 389 47 391 43 l 390 52 q 354 183 381 109 q 318 283 326 258 q 281 387 313 290 q 123 806 156 774 q 113 708 113 763 l 115 599 l 113 532 q 118 435 113 516 l 114 435 q 123 179 114 203 l 123 54 q 129 30 129 45 q 103 -3 129 -3 q 74 72 74 -3 l 79 163 l 71 562 l 79 808 l 79 833 q 80 857 79 851 q 82 872 81 863 q 85 885 83 880 q 90 896 87 890 q 104 916 96 908 l 109 911 l 122 914 q 141 892 138 909 q 143 885 141 891 q 144 878 144 878 q 244 602 168 779 q 336 374 320 425 q 366 267 353 323 q 428 85 394 142 l 431 89 q 463 846 463 392 m 433 -1 q 435 -3 435 -1 l 433 -1 z "},"":{"ha":524,"x_min":71,"x_max":449,"o":"m 302 -189 q 261 -128 261 -165 q 278 -97 261 -109 q 314 -85 294 -85 q 360 -125 345 -85 l 357 -130 q 360 -152 360 -135 q 343 -209 360 -170 q 299 -281 326 -248 q 249 -314 272 -313 l 227 -303 l 229 -291 q 302 -189 302 -233 m 421 75 l 425 25 q 390 -16 425 -16 q 357 37 366 -16 q 351 64 352 61 q 180 689 216 492 q 178 708 179 695 q 165 747 177 736 l 168 754 q 155 826 159 806 q 145 871 151 846 q 121 950 136 915 q 117 907 117 922 q 119 884 117 892 q 110 787 110 851 l 110 407 q 119 209 110 340 q 129 11 129 77 l 119 0 l 87 0 l 83 11 q 86 66 86 22 l 71 550 l 71 732 l 81 994 l 79 1023 q 89 1047 79 1041 q 112 1053 98 1053 q 138 1044 127 1053 q 149 1017 149 1036 q 155 977 149 999 q 172 929 161 956 q 190 880 184 902 q 202 809 197 858 q 215 724 208 761 q 239 623 222 686 q 278 484 256 560 q 307 383 300 407 q 323 321 313 359 q 346 212 345 244 q 360 157 355 198 q 383 102 366 117 q 392 168 392 121 l 397 652 l 393 867 l 397 920 q 393 937 397 935 l 397 949 q 392 1063 397 1034 q 427 1082 397 1082 q 449 1036 449 1082 q 440 990 440 1019 l 441 943 q 436 901 441 913 l 432 463 q 435 425 432 450 l 432 419 l 432 244 l 435 192 q 421 78 435 109 l 421 75 z "},"":{"ha":585,"x_min":71,"x_max":510,"o":"m 326 -179 q 285 -118 285 -155 q 301 -87 285 -99 q 338 -75 318 -75 q 384 -115 369 -75 l 381 -119 q 384 -142 384 -125 q 367 -199 384 -159 q 323 -271 350 -238 q 273 -304 296 -303 l 250 -293 l 253 -281 q 326 -179 326 -222 m 463 846 l 460 880 q 479 909 460 909 q 502 897 493 909 q 510 869 510 884 l 510 777 l 503 765 q 488 345 503 656 q 458 4 473 33 q 438 -1 455 3 q 415 -5 422 -5 q 403 4 408 -5 q 394 28 397 13 q 389 47 391 43 l 390 52 q 354 183 381 109 q 318 283 326 258 q 281 387 313 290 q 123 806 156 774 q 113 708 113 763 l 115 599 l 113 532 q 118 435 113 516 l 114 435 q 123 179 114 203 l 123 54 q 129 30 129 45 q 103 -3 129 -3 q 74 72 74 -3 l 79 163 l 71 562 l 79 808 l 79 833 q 80 857 79 851 q 82 872 81 863 q 85 885 83 880 q 90 896 87 890 q 104 916 96 908 l 109 911 l 122 914 q 141 892 138 909 q 143 885 141 891 q 144 878 144 878 q 244 602 168 779 q 336 374 320 425 q 366 267 353 323 q 428 85 394 142 l 431 89 q 463 846 463 392 m 433 -1 q 435 -3 435 -1 l 433 -1 z "},"":{"ha":524,"x_min":71,"x_max":449,"o":"m 286 1400 l 304 1411 q 329 1395 329 1407 q 323 1379 329 1390 l 325 1373 l 315 1352 l 316 1343 q 300 1293 311 1326 q 275 1188 275 1224 q 254 1152 275 1152 q 187 1254 234 1152 q 138 1386 140 1356 l 163 1404 l 187 1373 q 217 1273 189 1350 q 245 1192 244 1196 q 286 1400 279 1316 m 421 75 l 425 25 q 390 -16 425 -16 q 357 37 366 -16 q 351 64 352 61 q 180 689 216 492 q 178 708 179 695 q 165 747 177 736 l 168 754 q 155 826 159 806 q 145 871 151 846 q 121 950 136 915 q 117 907 117 922 q 119 884 117 892 q 110 787 110 851 l 110 407 q 119 209 110 340 q 129 11 129 77 l 119 0 l 87 0 l 83 11 q 86 66 86 22 l 71 550 l 71 732 l 81 994 l 79 1023 q 89 1047 79 1041 q 112 1053 98 1053 q 138 1044 127 1053 q 149 1017 149 1036 q 155 977 149 999 q 172 929 161 956 q 190 880 184 902 q 202 809 197 858 q 215 724 208 761 q 239 623 222 686 q 278 484 256 560 q 307 383 300 407 q 323 321 313 359 q 346 212 345 244 q 360 157 355 198 q 383 102 366 117 q 392 168 392 121 l 397 652 l 393 867 l 397 920 q 393 937 397 935 l 397 949 q 392 1063 397 1034 q 427 1082 397 1082 q 449 1036 449 1082 q 440 990 440 1019 l 441 943 q 436 901 441 913 l 432 463 q 435 425 432 450 l 432 419 l 432 244 l 435 192 q 421 78 435 109 l 421 75 z "},"":{"ha":585,"x_min":71,"x_max":510,"o":"m 315 1251 l 334 1262 q 359 1246 359 1258 q 353 1230 359 1241 l 355 1223 l 345 1202 l 346 1194 q 330 1143 341 1177 q 304 1039 304 1075 q 284 1002 304 1002 q 217 1104 264 1002 q 168 1237 170 1206 l 193 1255 l 217 1223 q 247 1123 219 1200 q 275 1043 274 1046 q 315 1251 309 1167 m 463 846 l 460 880 q 479 909 460 909 q 502 897 493 909 q 510 869 510 884 l 510 777 l 503 765 q 488 345 503 656 q 458 4 473 33 q 438 -1 455 3 q 415 -5 422 -5 q 403 4 408 -5 q 394 28 397 13 q 389 47 391 43 l 390 52 q 354 183 381 109 q 318 283 326 258 q 281 387 313 290 q 123 806 156 774 q 113 708 113 763 l 115 599 l 113 532 q 118 435 113 516 l 114 435 q 123 179 114 203 l 123 54 q 129 30 129 45 q 103 -3 129 -3 q 74 72 74 -3 l 79 163 l 71 562 l 79 808 l 79 833 q 80 857 79 851 q 82 872 81 863 q 85 885 83 880 q 90 896 87 890 q 104 916 96 908 l 109 911 l 122 914 q 141 892 138 909 q 143 885 141 891 q 144 878 144 878 q 244 602 168 779 q 336 374 320 425 q 366 267 353 323 q 428 85 394 142 l 431 89 q 463 846 463 392 m 433 -1 q 435 -3 435 -1 l 433 -1 z "}}}
